<svg xmlns="http://www.w3.org/2000/svg" width="32" height="20" viewBox="0 0 32 20">
  <g fill="none" fill-rule="nonzero">
    <path fill="#000" d="M28.434 0H2.797a54.897 54.897 0 00-.59.005 3.921 3.921 0 00-.588.051c-.196.036-.38.094-.558.184a1.874 1.874 0 00-.82.821c-.092.179-.15.362-.185.559a3.895 3.895 0 00-.052.587L0 2.477V17.516l.004.27c.006.195.017.393.052.587.036.197.093.38.184.558a1.867 1.867 0 00.821.821c.179.091.362.149.558.184.194.035.392.047.588.052l.27.004h26.277c.09 0 .18-.002.27-.004.195-.005.393-.017.587-.052.197-.035.38-.093.558-.184a1.865 1.865 0 00.821-.82c.091-.18.149-.362.184-.56.035-.193.046-.39.051-.586.003-.09.004-.18.005-.27V2.797v-.32c0-.09-.002-.18-.005-.27a3.895 3.895 0 00-.051-.587A1.882 1.882 0 0029.61.057a3.932 3.932 0 00-.587-.052c-.09-.003-.18-.004-.27-.004L28.434 0z"/>
    <path fill="#FFF" d="M28.434.666l.315.001c.085 0 .17.002.257.004.15.004.324.012.487.041.142.026.26.065.374.123a1.206 1.206 0 01.53.53c.057.112.096.23.121.373.03.161.037.337.041.487.003.085.004.17.004.257l.001.315v14.717c-.001.085-.002.17-.005.255a3.31 3.31 0 01-.041.488c-.025.14-.064.26-.122.373a1.207 1.207 0 01-.53.53 1.305 1.305 0 01-.372.121c-.166.03-.348.038-.485.042-.087.002-.172.003-.26.003l-.315.001H2.48l-.255-.004a3.395 3.395 0 01-.488-.042 1.309 1.309 0 01-.374-.122 1.196 1.196 0 01-.529-.53 1.308 1.308 0 01-.122-.374 3.297 3.297 0 01-.041-.486c-.003-.085-.004-.17-.004-.256V2.481c0-.086.001-.17.004-.256a3.3 3.3 0 01.041-.488c.026-.141.064-.26.122-.374a1.202 1.202 0 01.53-.529c.113-.057.232-.096.373-.122.163-.029.338-.037.488-.041L2.48.667h25.954"/>
    <path fill="#000" d="M23.161 7.964l1.318 4.24h.02l1.317-4.24h1.13l-1.952 5.484c-.446 1.263-.96 1.669-2.04 1.669-.09 0-.358-.01-.437-.025v-.867c.08.02.258.02.347.02.495 0 .763-.208.926-.743 0-.01.094-.317.094-.322l-1.882-5.216h1.16zM19.48 7.87c1.263 0 2.07.669 2.07 1.714v3.591h-1.025v-.857h-.025c-.302.58-.96.946-1.644.946-1.02 0-1.734-.634-1.734-1.57 0-.911.698-1.471 1.937-1.54l1.426-.085v-.4c0-.58-.391-.927-1.045-.927-.62 0-1.006.297-1.1.763h-1.01c.06-.942.862-1.635 2.15-1.635zM8.922 7.355c.247.02.962.096 1.419.772-.038.029-.848.495-.838 1.477.01 1.172 1.028 1.563 1.038 1.572-.01.029-.162.553-.533 1.096-.324.477-.658.943-1.191.953-.514.01-.686-.305-1.276-.305s-.781.295-1.267.314c-.514.02-.904-.505-1.228-.981-.667-.963-1.172-2.716-.486-3.898.333-.59.943-.962 1.6-.971.505-.01.971.333 1.276.333.305 0 .848-.4 1.486-.362zm5.556-1.328c1.387 0 2.353.956 2.353 2.348 0 1.397-.986 2.358-2.388 2.358h-1.535v2.442h-1.11V6.027h2.68zm6.006 4.785l-1.283.08c-.639.044-1 .327-1 .772 0 .456.376.753.95.753.749 0 1.333-.515 1.333-1.193v-.412zm-6.298-3.849h-1.278v2.839h1.273c.966 0 1.516-.52 1.516-1.422 0-.901-.55-1.417-1.511-1.417zm-5.26-1.48c.049.458-.133.907-.4 1.242-.277.325-.716.582-1.156.544-.057-.44.163-.907.411-1.194.277-.335.754-.573 1.146-.593z"/>
  </g>
</svg>
