<svg xmlns="http://www.w3.org/2000/svg" width="32" height="20" viewBox="0 0 32 20">
  <g fill="none" fill-rule="nonzero">
    <path fill="#3C4043" d="M28.436.007H2.477c-.09 0-.18.002-.27.004a3.907 3.907 0 00-.588.052c-.196.035-.38.093-.558.184A1.877 1.877 0 00.056 1.625a3.878 3.878 0 00-.051.587c-.003.09-.004.18-.005.27v15.032c0 .09.002.18.005.27.005.196.016.393.051.587.036.196.093.38.184.558a1.871 1.871 0 00.821.82c.179.091.362.15.558.185.194.034.392.046.588.051l.27.004h26.28c.09 0 .179-.002.27-.004.195-.005.393-.017.587-.051.196-.036.38-.094.558-.185a1.87 1.87 0 00.82-.82 1.96 1.96 0 00.185-.558c.035-.194.046-.391.051-.587a45.34 45.34 0 00.005-.59V2.802v-.32c-.001-.09-.002-.18-.005-.27a3.877 3.877 0 00-.051-.587A1.882 1.882 0 0029.614.063a3.916 3.916 0 00-.588-.052 14.4 14.4 0 00-.27-.004h-.32"/>
    <path fill="#FFFFFE" d="M28.436.673h.316c.085 0 .17.002.256.004.15.004.325.012.488.041.141.026.26.065.374.123a1.206 1.206 0 01.53.529 1.3 1.3 0 01.12.374c.03.161.038.336.042.487.002.084.004.17.004.256v15.024c0 .085-.002.17-.004.255-.004.15-.012.325-.042.488-.025.14-.063.259-.121.373a1.204 1.204 0 01-.53.529 1.302 1.302 0 01-.372.122c-.166.03-.349.038-.486.041l-.26.004H2.48c-.086 0-.172-.002-.255-.004a3.4 3.4 0 01-.488-.041 1.306 1.306 0 01-.374-.123 1.194 1.194 0 01-.529-.528 1.304 1.304 0 01-.122-.375 3.33 3.33 0 01-.041-.486c-.003-.085-.004-.17-.004-.255V2.486c0-.085.001-.17.004-.256.004-.149.012-.323.042-.488A1.204 1.204 0 011.364.84c.113-.057.232-.096.373-.122.163-.029.338-.037.488-.04.085-.003.17-.004.256-.005h25.956"/>
    <path fill="#3C4043" d="M23.969 8.497l1.41 3.454h.016l1.376-3.454h.967l-2.973 6.924h-.918L24.953 13l-1.951-4.502h.967zm-3.244-.157c.657 0 1.177.18 1.558.533.382.353.57.846.57 1.469v2.966H22v-.668h-.038c-.37.55-.857.825-1.47.825-.52 0-.962-.157-1.31-.471a1.496 1.496 0 01-.526-1.178c0-.499.188-.891.559-1.188.37-.297.867-.443 1.486-.443.531 0 .962.1 1.305.291v-.207c0-.308-.133-.6-.365-.802a1.283 1.283 0 00-.857-.33c-.497 0-.89.212-1.177.639l-.785-.5c.42-.622 1.056-.936 1.902-.936zm-4.218-2.063a2.099 2.099 0 011.526.611 2.05 2.05 0 01.1 2.87l-.1.102c-.415.398-.923.6-1.526.6h-1.47v2.848h-.89v-7.03h2.36zm4.334 4.637c-.36 0-.664.09-.907.263-.238.174-.36.393-.36.656 0 .236.111.454.294.589.199.157.442.24.69.235.377 0 .736-.151 1.001-.42.293-.28.442-.611.442-.993-.276-.224-.663-.336-1.16-.33zM16.53 7.14h-1.493v2.456h1.493c.331.011.652-.123.878-.364a1.25 1.25 0 00-.027-1.744 1.204 1.204 0 00-.851-.348z"/>
    <path fill="#4285F4" d="M11.44 9.843c0-.275-.023-.55-.067-.819H7.62v1.553h2.15a1.871 1.871 0 01-.796 1.228v1.01h1.282c.752-.702 1.183-1.739 1.183-2.972z"/>
    <path fill="#34A853" d="M7.62 13.79c1.072 0 1.979-.36 2.636-.976l-1.282-1.009c-.36.247-.818.387-1.354.387-1.04 0-1.918-.712-2.233-1.665h-1.32v1.043a3.97 3.97 0 003.553 2.22z"/>
    <path fill="#FBBC04" d="M5.387 10.527a2.469 2.469 0 010-1.548V7.942h-1.32a4.054 4.054 0 000 3.622l1.32-1.037z"/>
    <path fill="#EA4335" d="M7.62 7.314a2.125 2.125 0 011.525.606l1.139-1.155A3.811 3.811 0 007.62 5.716c-1.503 0-2.88.864-3.554 2.226l1.321 1.043c.315-.959 1.194-1.67 2.233-1.67z"/>
  </g>
</svg>
