<svg xmlns="http://www.w3.org/2000/svg" width="19" height="25" viewBox="0 0 19 25"><path d="M5.5 10.113V5.75a2.918 2.918 0 015.833 0v4.363a5.233 5.233 0 002.333-4.363A5.243 5.243 0 008.416.5a5.243 5.243 0 00-5.25 5.25c0 1.82.922 3.418 2.334 4.363zm11.48 5.402l-5.297-2.637a1.645 1.645 0 00-.63-.128h-.887v-7c0-.968-.781-1.75-1.75-1.75-.968 0-1.75.782-1.75 1.75v12.53l-4.001-.84c-.094-.012-.175-.035-.28-.035-.362 0-.688.152-.922.385l-.921.933 5.763 5.764c.315.315.758.513 1.237.513h7.921c.875 0 1.552-.642 1.68-1.493l.875-6.149c.012-.081.023-.163.023-.233 0-.723-.443-1.353-1.061-1.61z"></path></svg>
