<?xml version="1.0" standalone="no"?>
<!DOCTYPE svg PUBLIC "-//W3C//DTD SVG 20010904//EN"
 "http://www.w3.org/TR/2001/REC-SVG-20010904/DTD/svg10.dtd">
<svg version="1.0" xmlns="http://www.w3.org/2000/svg"
 width="700.000000pt" height="700.000000pt" viewBox="0 0 700.000000 700.000000"
 preserveAspectRatio="xMidYMid meet">
<metadata>
Created by potrace 1.11, written by Peter Selinger 2001-2013
</metadata>
<g transform="translate(0.000000,700.000000) scale(0.100000,-0.100000)"
fill="#000000" stroke="none">
<path d="M2546 5651 c-27 -5 -30 -12 -42 -67 -12 -60 -58 -166 -75 -172 -5 -2
-6 -8 -3 -13 3 -6 -1 -20 -8 -32 -8 -12 -22 -42 -32 -66 -10 -25 -26 -57 -37
-72 -10 -15 -19 -38 -19 -51 0 -13 -11 -39 -25 -58 -14 -19 -25 -46 -25 -62 0
-15 -9 -42 -20 -60 -11 -18 -20 -46 -20 -61 0 -25 2 -27 21 -17 11 7 23 9 26
7 2 -3 -43 -149 -100 -324 -209 -632 -327 -1002 -371 -1164 -25 -90 -84 -299
-131 -464 -139 -484 -247 -948 -276 -1185 -13 -103 -35 -140 -84 -140 -37 0
-60 -71 -51 -160 7 -76 15 -95 52 -123 65 -48 130 -29 235 70 36 35 71 63 77
63 5 0 12 6 15 14 7 19 112 77 245 136 59 26 137 61 173 79 36 17 78 31 92 31
14 0 29 5 32 10 12 19 80 48 130 55 28 4 70 16 94 26 24 10 53 19 64 19 11 0
34 8 51 19 17 10 58 21 91 25 33 4 83 13 110 21 28 7 104 20 170 28 66 9 121
20 123 26 2 7 12 7 29 0 18 -7 30 -6 37 1 5 5 31 10 57 10 26 0 51 5 54 10 4
6 13 4 23 -6 12 -13 27 -15 66 -10 28 3 67 6 87 6 33 0 36 2 36 30 0 17 -4 30
-9 30 -4 0 -8 -7 -8 -16 0 -12 -7 -15 -30 -12 -16 2 -31 0 -33 -5 -2 -6 -11
-5 -24 2 -12 6 -35 11 -52 11 -24 0 -29 3 -24 17 6 14 -1 16 -63 10 -38 -4
-80 -7 -94 -7 l-25 -1 25 -14 c23 -13 20 -14 -47 -15 -42 0 -73 -4 -73 -10 0
-11 -33 -14 -43 -3 -4 3 1 12 11 19 16 12 16 13 -4 14 -11 0 -24 -3 -28 -7 -3
-4 -30 -8 -59 -9 -72 -2 -70 -2 -64 -24 3 -11 1 -20 -4 -20 -5 0 -9 6 -9 13 0
9 -3 8 -9 -2 -7 -10 -10 -11 -16 0 -6 9 -10 7 -16 -9 -7 -18 -16 -22 -46 -21
-21 1 -30 3 -20 6 9 2 17 12 17 21 0 13 2 14 9 3 6 -9 11 -10 15 -2 4 6 4 11
-1 12 -4 0 -20 2 -35 4 -20 3 -32 -3 -43 -18 -14 -20 -14 -22 2 -28 14 -5 12
-8 -12 -13 -16 -4 -44 -11 -61 -16 -17 -6 -42 -10 -56 -10 -15 0 -47 -9 -73
-20 -51 -22 -80 -26 -70 -10 3 6 15 10 25 10 21 0 60 28 60 43 0 5 -10 7 -22
5 -15 -2 -22 -9 -22 -21 1 -9 -4 -17 -12 -17 -8 0 -11 6 -7 18 5 14 3 15 -8 5
-7 -7 -27 -13 -43 -13 -29 -1 -30 -1 -12 -15 11 -8 16 -15 10 -15 -5 0 -22 11
-37 26 -28 25 -31 24 -39 -18 -3 -16 -6 -17 -31 -3 -25 13 -29 12 -52 -11 -15
-15 -34 -23 -52 -23 -24 2 -24 2 -5 6 12 2 22 8 22 13 0 14 -39 18 -51 4 -8
-10 -14 -11 -24 -1 -11 10 -9 14 9 24 11 7 31 12 42 13 12 0 27 7 34 15 7 9
19 14 27 11 7 -3 13 1 13 8 0 19 30 29 46 15 11 -9 14 -8 14 5 0 9 9 17 23 18
31 2 38 3 70 16 35 15 47 15 47 2 0 -5 7 -10 16 -10 13 0 14 3 5 14 -9 11 8
19 101 44 138 38 314 72 372 72 23 0 65 7 92 15 66 19 477 16 574 -5 36 -8 57
-16 48 -18 -22 -4 -24 -22 -2 -22 8 0 12 -5 9 -10 -4 -6 7 -10 27 -9 18 1 54
-2 79 -6 53 -8 101 7 65 21 -11 4 -28 16 -39 27 -53 53 -216 81 -482 81 -212
0 -333 -12 -474 -46 -47 -11 -97 -22 -111 -23 -64 -7 -467 -117 -550 -150 -51
-20 -99 -38 -106 -39 -7 -1 -17 -5 -20 -9 -4 -4 -16 -7 -26 -7 -10 0 -26 -4
-36 -9 -9 -4 -30 -13 -47 -19 -69 -24 -198 -81 -204 -89 -12 -18 -39 -22 -45
-7 -10 25 -7 34 10 34 11 0 14 6 9 20 -4 12 -1 28 6 36 6 8 9 17 6 21 -4 3 -2
12 4 20 7 7 12 31 12 53 0 22 6 45 13 51 17 14 18 81 2 98 -11 10 -8 16 10 29
14 11 21 24 17 34 -4 9 0 18 9 21 17 7 11 36 -8 49 -7 5 -5 8 4 8 23 0 41 45
22 56 -20 13 -2 74 33 115 19 23 23 35 15 44 -13 15 -4 41 17 49 13 5 12 8 -2
22 -13 14 -14 19 -3 25 7 5 13 14 13 21 1 7 7 26 14 43 8 20 9 31 2 33 -16 5
-13 28 4 42 23 19 18 39 -12 52 -22 9 -24 12 -10 15 9 3 14 9 11 15 -4 7 -2 8
4 4 7 -4 12 -14 12 -22 0 -12 4 -12 23 -2 34 20 39 32 18 49 -14 12 -16 20 -9
33 7 12 13 15 17 8 4 -6 7 7 8 29 2 41 -21 65 -37 39 -4 -7 -7 5 -6 28 0 25
-6 47 -17 59 -22 25 -22 33 3 33 11 0 26 12 34 28 9 15 15 20 16 12 0 -13 1
-13 10 0 13 21 12 33 -2 24 -8 -5 -9 -2 -5 10 4 10 7 27 8 39 0 12 3 16 6 9 2
-6 9 -9 15 -6 6 4 5 -2 -1 -15 -7 -13 -8 -21 -2 -21 6 0 2 -19 -8 -42 -10 -24
-21 -64 -25 -90 -6 -43 -5 -47 13 -45 12 1 21 8 21 17 0 8 7 24 15 34 18 24
20 76 3 76 -9 0 -9 3 0 12 10 10 15 10 20 1 4 -6 8 6 8 28 1 21 7 45 13 53 8
10 9 16 1 21 -15 9 -13 19 10 45 24 28 26 42 3 33 -11 -4 -14 -3 -9 5 4 7 14
12 22 12 16 0 19 16 4 25 -15 9 -12 25 4 19 18 -7 32 16 16 26 -8 5 -7 9 4 13
22 9 20 22 -6 35 -13 6 -17 11 -10 11 14 1 17 31 2 31 -5 0 -6 8 -3 17 4 9 8
12 10 6 5 -13 43 -5 43 9 0 5 -5 6 -11 3 -6 -4 -5 2 2 14 8 12 16 16 20 10 4
-8 9 -8 13 -1 3 6 2 13 -4 17 -15 10 -13 33 16 127 17 54 33 90 43 93 9 2 22
23 29 45 17 54 16 66 -4 49 -15 -12 -16 -10 -9 21 4 19 12 40 17 45 7 7 8 3 3
-12 -5 -18 -3 -22 8 -17 8 3 17 15 20 27 2 12 8 31 12 41 7 15 5 18 -6 14 -10
-4 -15 1 -16 14 -1 14 3 18 18 13 15 -5 19 -2 19 19 0 14 5 28 10 31 6 3 10
15 10 26 0 11 -5 17 -10 14 -14 -9 -2 41 17 75 8 14 12 17 9 8 -3 -10 -1 -18
4 -18 6 0 11 8 12 18 2 32 4 37 30 87 14 28 31 70 38 94 6 24 20 56 31 70 10
14 28 69 40 121 11 52 27 105 35 118 8 12 12 27 9 32 -3 6 1 10 9 10 9 0 16 8
16 17 0 9 10 47 22 85 15 46 26 67 35 64 7 -3 13 2 13 10 0 8 -4 12 -10 9 -13
-8 -13 -3 6 47 27 71 44 107 54 113 6 3 10 15 10 26 0 10 4 19 10 19 5 0 7 13
4 30 -5 22 -2 31 10 36 9 3 16 15 16 26 0 11 9 33 20 48 11 16 25 48 30 72 5
24 23 81 39 128 43 119 41 141 -10 175 -35 23 -50 27 -91 23 -27 -3 -51 -1
-54 3 -3 5 -8 8 -12 8 -4 -1 -20 -4 -36 -8z m-326 -1198 c-11 -17 -11 -17 -6
0 3 10 7 26 7 35 1 15 2 15 6 0 2 -10 -1 -25 -7 -35z m-19 -61 c-6 -2 -11 -14
-11 -27 0 -13 -4 -27 -10 -30 -16 -10 -12 20 8 61 13 28 18 32 21 18 2 -10 -2
-20 -8 -22z m-40 -109 c-12 -20 -14 -14 -5 12 4 9 9 14 11 11 3 -2 0 -13 -6
-23z m-20 -70 c-9 -16 -10 -16 -11 -1 0 9 3 25 7 35 7 16 8 17 11 1 2 -10 -1
-25 -7 -35z m70 -84 c-5 -13 -10 -19 -10 -12 -1 15 10 45 15 40 3 -2 0 -15 -5
-28z m-91 -69 c0 -11 -2 -20 -4 -20 -2 0 -6 9 -9 20 -3 11 -1 20 4 20 5 0 9
-9 9 -20z m46 -76 c-14 -31 -26 -69 -26 -85 0 -25 -15 -47 -25 -37 -5 5 12 63
27 92 6 10 17 42 26 70 9 30 17 44 19 34 3 -10 -7 -43 -21 -74z m-80 -235 c-9
-22 -15 -27 -15 -16 -1 21 18 61 25 54 3 -3 -2 -20 -10 -38z m-17 -86 c-1 -17
-3 -21 -6 -10 -2 9 -9 17 -14 17 -5 0 -9 5 -9 10 0 6 7 10 15 10 10 0 15 -9
14 -27z m-38 -103 c-22 -48 -28 -35 -10 21 20 62 22 66 26 44 2 -12 -5 -41
-16 -65z m-100 -123 c-10 -9 -11 -8 -5 6 3 10 9 15 12 12 3 -3 0 -11 -7 -18z
m49 -43 c0 -9 -5 -14 -12 -12 -18 6 -21 28 -4 28 9 0 16 -7 16 -16z m-57 -11
c-7 -2 -21 -2 -30 0 -10 3 -4 5 12 5 17 0 24 -2 18 -5z m-16 -55 c-3 -7 -5 -2
-5 12 0 14 2 19 5 13 2 -7 2 -19 0 -25z m42 -36 c0 -11 -2 -12 -6 -4 -2 6 -9
10 -14 7 -5 -4 -6 1 -3 9 8 20 24 11 23 -12z m-89 -16 c0 -3 -4 -8 -10 -11 -5
-3 -10 -1 -10 4 0 6 5 11 10 11 6 0 10 -2 10 -4z m69 -5 c10 -7 11 -15 3 -37
-6 -16 -11 -22 -11 -12 -1 9 -10 19 -20 23 -29 9 -35 35 -8 35 12 0 28 -4 36
-9z m-82 -133 c-6 -24 -13 -36 -15 -27 -3 15 14 69 22 69 2 0 -1 -19 -7 -42z
m-48 -190 c-5 -18 -9 -35 -9 -38 0 -3 -4 1 -9 8 -5 8 -4 24 3 38 16 35 26 29
15 -8z m18 -50 c-15 -9 -19 -4 -11 16 5 14 9 15 15 5 5 -8 3 -17 -4 -21z m-76
-21 c-10 -9 -11 -8 -5 6 3 10 9 15 12 12 3 -3 0 -11 -7 -18z m95 -24 c-10 -10
-19 5 -10 18 6 11 8 11 12 0 2 -7 1 -15 -2 -18z m-125 -96 c-6 -6 -11 -20 -12
-31 0 -12 -3 -15 -6 -8 -3 7 1 27 8 44 7 17 15 26 17 19 2 -7 -1 -18 -7 -24z
m79 -22 c0 -8 -4 -15 -10 -15 -5 0 -10 7 -10 15 0 8 5 15 10 15 6 0 10 -7 10
-15z m-18 -85 c-11 -8 -27 -28 -36 -45 -15 -26 -16 -27 -10 -5 15 56 23 69 44
67 20 -1 20 -2 2 -17z m-118 -94 c-3 -15 -8 -25 -11 -23 -2 3 -1 17 3 31 3 15
8 25 11 23 2 -3 1 -17 -3 -31z m31 -44 c-5 -19 -9 -22 -15 -12 -8 13 -7 21 7
58 6 16 6 16 10 -1 3 -10 2 -30 -2 -45z m14 -46 c-9 -8 -10 -7 -5 7 3 10 7 26
7 35 1 9 4 6 6 -7 3 -13 -1 -28 -8 -35z m-29 -16 c0 -5 -4 -10 -10 -10 -5 0
-10 5 -10 10 0 6 5 10 10 10 6 0 10 -4 10 -10z m7 -72 c-3 -8 -6 -5 -6 6 -1
11 2 17 5 13 3 -3 4 -12 1 -19z m-17 -75 c-10 -16 -11 -15 -6 7 3 14 6 32 7
40 1 8 4 5 6 -7 2 -12 -1 -30 -7 -40z m-69 0 c-12 -20 -14 -14 -5 12 4 9 9 14
11 11 3 -2 0 -13 -6 -23z m34 17 c3 -5 1 -10 -4 -10 -6 0 -11 5 -11 10 0 6 2
10 4 10 3 0 8 -4 11 -10z m80 0 c3 -5 1 -10 -4 -10 -6 0 -11 5 -11 10 0 6 2
10 4 10 3 0 8 -4 11 -10z m-145 -117 c-11 -17 -11 -17 -6 0 3 10 6 24 7 30 0
9 2 9 5 0 3 -7 0 -20 -6 -30z m59 -76 c-12 -43 -22 -50 -13 -9 9 42 14 55 19
50 2 -2 0 -21 -6 -41z m38 11 c-3 -8 -6 -5 -6 6 -1 11 2 17 5 13 3 -3 4 -12 1
-19z m1496 -95 c-7 -2 -21 -2 -30 0 -10 3 -4 5 12 5 17 0 24 -2 18 -5z m-1636
-55 c-3 -7 -5 -2 -5 12 0 14 2 19 5 13 2 -7 2 -19 0 -25z m1323 22 c0 -5 -7
-10 -16 -10 -8 0 -12 5 -9 10 3 6 10 10 16 10 5 0 9 -4 9 -10z m-1264 -85
l-16 -40 6 50 c7 56 18 80 22 50 1 -11 -4 -38 -12 -60z m707 -51 c-20 -15 -53
-19 -53 -6 0 11 43 29 58 24 9 -3 8 -8 -5 -18z m-673 -4 c-20 -13 -33 -13 -25
0 3 6 14 10 23 10 15 0 15 -2 2 -10z m610 -4 c0 -3 -4 -8 -10 -11 -5 -3 -10
-1 -10 4 0 6 5 11 10 11 6 0 10 -2 10 -4z"/>
<path d="M5135 5640 c-122 -28 -154 -37 -170 -50 -8 -7 -20 -10 -27 -7 -14 5
-83 -31 -137 -72 -45 -34 -236 -254 -286 -331 -22 -33 -54 -86 -71 -118 -17
-31 -62 -106 -99 -167 -182 -297 -316 -640 -435 -1114 -87 -345 -137 -687
-113 -766 6 -19 7 -35 2 -35 -14 0 -10 -206 5 -285 10 -50 11 -72 3 -77 -8 -5
-7 -14 2 -32 8 -13 11 -39 8 -58 -2 -18 -1 -40 4 -50 5 -9 16 -60 24 -113 25
-155 107 -326 201 -420 86 -85 273 -190 394 -221 82 -21 269 -16 315 8 17 9
54 19 82 23 29 4 56 11 59 17 4 6 43 27 88 48 74 34 92 48 185 148 86 92 112
128 146 200 23 49 58 113 77 143 44 71 79 139 71 139 -4 0 -2 5 5 12 7 7 12
18 12 26 0 25 -20 1 -47 -56 -17 -38 -28 -51 -30 -40 -7 27 25 126 47 148 11
11 20 27 20 36 0 9 5 12 12 8 8 -5 9 -2 5 9 -5 13 -1 17 14 17 16 0 19 4 15
16 -4 10 1 26 11 37 17 20 17 20 -4 15 -20 -5 -23 -2 -23 23 0 16 4 37 9 47
14 27 28 79 55 204 20 87 25 132 20 175 -8 83 -11 90 -30 67 -14 -18 -15 -18
-9 4 4 12 2 22 -3 22 -6 0 -18 -35 -27 -77 -52 -237 -207 -614 -325 -788 -26
-38 -61 -98 -79 -132 -17 -35 -37 -63 -45 -63 -7 0 -26 -18 -42 -41 -101 -147
-316 -264 -522 -285 -121 -13 -236 54 -326 189 -30 45 -61 100 -70 122 -23 62
-54 202 -61 285 -4 41 -10 93 -12 115 -3 22 -5 48 -6 58 -1 9 -5 17 -10 17 -9
0 2 42 13 50 4 3 5 52 1 110 -5 58 -6 113 -3 123 2 10 -1 17 -9 17 -11 1 -10
4 2 13 19 15 36 181 19 192 -5 3 -10 16 -9 28 0 21 1 21 8 2 6 -14 8 -5 7 27
-1 25 -4 41 -8 35 -5 -8 -8 -6 -8 5 0 9 4 20 10 23 5 3 9 21 8 39 -1 36 9 59
22 51 5 -3 12 9 15 27 5 21 4 33 -4 36 -8 3 -8 9 1 25 12 22 35 114 45 177 3
19 12 45 20 57 9 13 12 31 8 43 -4 13 0 31 11 48 10 15 17 32 16 38 -3 13 18
90 47 179 48 144 63 192 68 225 3 19 16 48 29 63 13 16 24 35 24 43 0 8 18 51
40 95 22 44 68 141 100 215 62 140 130 275 142 284 4 3 34 49 67 101 82 130
218 289 247 289 7 0 20 13 31 29 10 17 58 71 107 120 85 88 90 91 133 91 58 0
90 -18 147 -81 51 -57 98 -148 117 -224 31 -128 35 -138 61 -158 23 -17 31
-18 56 -8 38 16 98 79 105 111 9 38 -18 202 -41 246 -27 53 -103 154 -116 154
-5 0 -20 10 -33 22 -12 11 -54 34 -93 50 -85 33 -162 36 -285 8z m-463 -422
c-8 -8 -9 -4 -5 13 4 13 8 18 11 10 2 -7 -1 -18 -6 -23z m-84 -15 c-15 -16
-31 -40 -37 -55 -9 -25 -31 -39 -31 -20 0 9 80 102 88 102 3 0 -6 -12 -20 -27z
m52 -23 c-6 -11 -20 -30 -31 -42 -11 -13 -32 -36 -46 -53 l-25 -30 18 30 c18
30 85 115 91 115 2 0 -1 -9 -7 -20z m-134 -126 c-4 -13 -13 -24 -21 -24 -19 0
-19 1 3 46 18 39 30 25 18 -22z m-46 -33 c0 -5 -9 -19 -20 -32 -17 -21 -19
-21 -13 -4 10 33 33 57 33 36z m11 -84 l-23 -22 17 28 c10 15 20 25 23 22 3
-3 -5 -16 -17 -28z m-45 10 c8 3 14 0 14 -6 0 -13 -36 -15 -44 -2 -3 4 -2 11
2 15 3 4 8 3 10 -3 2 -5 10 -7 18 -4z m-38 -54 c-1 -16 -11 -40 -22 -54 -12
-15 -26 -35 -33 -45 -11 -18 -12 -17 -12 7 -1 21 52 119 65 119 2 0 3 -12 2
-27z m19 -75 c-12 -13 -34 -53 -47 -90 -13 -37 -27 -65 -31 -62 -4 2 -11 -1
-15 -7 -3 -6 0 -15 7 -20 8 -5 9 -9 3 -9 -6 0 -16 -15 -21 -32 -9 -29 -11 -31
-18 -14 -6 14 1 38 25 85 69 133 114 206 118 189 2 -9 -8 -27 -21 -40z m-87
-81 c11 -4 9 -7 -8 -13 -17 -5 -22 -12 -19 -25 3 -11 1 -21 -3 -24 -5 -3 -10
3 -12 12 -5 23 13 78 21 65 3 -5 13 -12 21 -15z m-53 -77 c-1 -11 -7 -22 -15
-25 -7 -3 -12 -15 -10 -27 2 -15 -3 -24 -16 -26 -16 -3 -15 2 10 47 16 28 30
51 31 51 1 0 1 -9 0 -20z m-50 -138 c-14 -29 -30 -13 -22 21 6 21 10 23 20 14
9 -9 10 -18 2 -35z m49 13 c0 -14 -4 -25 -7 -25 -4 0 -10 -20 -13 -45 -5 -28
-12 -45 -21 -45 -13 0 -31 -36 -27 -52 1 -5 -3 -8 -9 -8 -6 0 -8 -7 -4 -17 4
-13 3 -15 -5 -7 -8 8 -5 23 9 55 12 24 21 50 21 57 0 8 9 27 21 43 13 18 18
36 14 49 -4 14 -2 20 8 20 10 0 14 -9 13 -25z m-111 -105 c-4 -12 -9 -19 -12
-17 -3 3 -2 15 2 27 4 12 9 19 12 17 3 -3 2 -15 -2 -27z m-24 -57 c-12 -20
-14 -14 -5 12 4 9 9 14 11 11 3 -2 0 -13 -6 -23z m46 -58 c7 -20 0 -27 -20
-19 -9 3 -13 12 -10 20 7 19 22 18 30 -1z m-28 -84 c-6 -17 -15 -31 -21 -31
-6 0 -8 -7 -4 -15 3 -8 1 -15 -5 -15 -6 0 -9 -6 -6 -14 3 -7 1 -18 -3 -22 -5
-5 -11 -18 -13 -29 -2 -11 -7 -28 -12 -37 -4 -10 -5 -25 -1 -33 3 -9 0 -15 -9
-15 -15 0 -20 -16 -16 -57 1 -13 -3 -23 -10 -23 -7 0 -9 -9 -6 -21 3 -11 -5
-43 -18 -72 l-23 -52 2 71 c2 52 7 76 19 89 9 9 17 25 17 35 0 15 55 183 90
275 10 25 13 27 21 14 5 -11 5 -28 -2 -48z m-56 -5 c3 -8 -2 -16 -14 -19 -21
-6 -22 -5 -13 17 8 20 20 21 27 2z m-44 -107 c-16 -10 -23 -4 -14 10 3 6 11 8
17 5 6 -4 5 -9 -3 -15z m-25 -61 c-4 -24 -13 -52 -21 -63 l-15 -20 5 20 c16
60 31 105 34 105 2 0 0 -19 -3 -42z m156 -79 c0 -5 -4 -9 -10 -9 -5 0 -10 7
-10 16 0 8 5 12 10 9 6 -3 10 -10 10 -16z m-193 -41 c-3 -8 -6 -5 -6 6 -1 11
2 17 5 13 3 -3 4 -12 1 -19z m-17 -82 c0 -2 -7 -17 -15 -32 -16 -30 -19 -25
-9 14 5 18 24 33 24 18z m137 -78 c-3 -7 -5 -2 -5 12 0 14 2 19 5 13 2 -7 2
-19 0 -25z m-173 -32 c-3 -21 -9 -35 -11 -32 -3 3 -2 21 1 42 4 20 10 34 12
31 3 -3 2 -21 -2 -41z m71 34 c3 -5 1 -10 -4 -10 -6 0 -11 5 -11 10 0 6 2 10
4 10 3 0 8 -4 11 -10z m-5 -24 c0 -3 -4 -8 -10 -11 -5 -3 -10 -1 -10 4 0 6 5
11 10 11 6 0 10 -2 10 -4z m-17 -59 c-4 -7 -8 -15 -8 -19 0 -3 -3 -10 -7 -14
-9 -9 -10 3 -2 33 4 13 10 20 15 17 5 -3 6 -11 2 -17z m94 -39 c-3 -8 -6 -5
-6 6 -1 11 2 17 5 13 3 -3 4 -12 1 -19z m-113 -70 c-4 -35 -11 -65 -15 -68 -4
-3 -10 -33 -12 -65 -2 -33 -7 -67 -10 -75 -10 -28 -27 -159 -27 -209 0 -29 -5
-53 -12 -58 -8 -5 -14 -32 -14 -68 -1 -33 -2 -94 -3 -135 -1 -41 -5 -131 -9
-200 l-6 -125 -6 80 c-5 83 4 453 13 515 3 19 10 79 16 133 13 119 18 141 43
190 11 22 17 46 14 54 -7 18 14 93 26 93 5 0 6 -27 2 -62z m106 32 c0 -13 -5
-18 -15 -14 -12 5 -13 10 -4 20 15 19 19 18 19 -6z m-183 -72 c-3 -8 -6 -5 -6
6 -1 11 2 17 5 13 3 -3 4 -12 1 -19z m160 -50 c-3 -8 -6 -5 -6 6 -1 11 2 17 5
13 3 -3 4 -12 1 -19z m-29 -120 c-2 -6 -10 -14 -16 -16 -7 -2 -10 2 -6 12 7
18 28 22 22 4z m9 -50 c-3 -8 -6 -5 -6 6 -1 11 2 17 5 13 3 -3 4 -12 1 -19z
m-10 -70 c-3 -7 -5 -2 -5 12 0 14 2 19 5 13 2 -7 2 -19 0 -25z m-50 -20 c-3
-8 -6 -5 -6 6 -1 11 2 17 5 13 3 -3 4 -12 1 -19z m38 -96 c-10 -56 -17 -29 -9
35 6 42 9 50 12 29 2 -16 1 -45 -3 -64z m-47 8 c-1 -23 -6 -44 -11 -47 -6 -4
-8 6 -4 27 4 18 7 39 7 46 0 8 2 14 5 14 3 0 4 -18 3 -40z m-10 -117 c0 -32
-3 -62 -6 -67 -3 -5 -4 -52 -3 -103 1 -69 -2 -92 -10 -87 -9 5 -10 41 -5 128
9 168 25 251 24 129z m35 6 c-6 -6 -7 3 -4 23 4 28 6 29 9 9 2 -13 0 -27 -5
-32z m-49 -311 c9 -34 7 -88 -3 -88 -5 0 -14 7 -21 15 -10 12 -9 16 4 21 17 7
22 34 6 34 -5 0 -10 9 -10 20 0 27 16 25 24 -2z m16 -138 c0 -5 -4 -10 -10
-10 -5 0 -10 -16 -10 -35 0 -19 5 -35 10 -35 6 0 9 -12 9 -27 -1 -17 -3 -21
-6 -10 -2 9 -11 17 -19 17 -8 0 -12 5 -9 10 3 6 1 10 -5 10 -6 0 -8 5 -3 13 4
6 6 20 5 30 -4 19 14 47 29 47 5 0 9 -4 9 -10z m-83 -132 c-3 -7 -5 -2 -5 12
0 14 2 19 5 13 2 -7 2 -19 0 -25z m68 -48 c-3 -5 -12 -10 -18 -10 -7 0 -6 4 3
10 19 12 23 12 15 0z m19 -45 c3 -8 1 -15 -4 -15 -6 0 -10 7 -10 15 0 8 2 15
4 15 2 0 6 -7 10 -15z m1334 -204 c-30 -38 -57 -52 -36 -19 8 13 18 29 22 36
4 6 14 12 22 12 12 0 10 -7 -8 -29z"/>
<path d="M2740 5389 c0 -5 5 -7 10 -4 6 3 10 8 10 11 0 2 -4 4 -10 4 -5 0 -10
-5 -10 -11z"/>
<path d="M2250 4130 c0 -5 5 -10 10 -10 6 0 10 5 10 10 0 6 -4 10 -10 10 -5 0
-10 -4 -10 -10z"/>
<path d="M2110 3670 c0 -5 5 -10 10 -10 6 0 10 5 10 10 0 6 -4 10 -10 10 -5 0
-10 -4 -10 -10z"/>
<path d="M4060 3293 c0 -22 2 -25 10 -13 13 20 13 40 0 40 -5 0 -10 -12 -10
-27z"/>
<path d="M1825 3060 c3 -5 8 -10 11 -10 2 0 4 5 4 10 0 6 -5 10 -11 10 -5 0
-7 -4 -4 -10z"/>
<path d="M1880 2859 c0 -5 5 -7 10 -4 6 3 10 8 10 11 0 2 -4 4 -10 4 -5 0 -10
-5 -10 -11z"/>
<path d="M5545 2809 c-19 -35 -10 -54 11 -25 13 19 20 56 9 56 -2 0 -12 -14
-20 -31z"/>
<path d="M5526 2623 c-3 -10 -9 -24 -12 -30 -3 -7 -1 -13 4 -13 5 0 13 12 16
26 8 30 2 44 -8 17z"/>
<path d="M5496 2554 c-9 -22 3 -32 14 -14 12 19 12 30 1 30 -5 0 -12 -7 -15
-16z"/>
<path d="M3210 2151 c0 -6 5 -13 10 -16 6 -3 10 1 10 9 0 9 -4 16 -10 16 -5 0
-10 -4 -10 -9z"/>
<path d="M3420 2139 c0 -4 7 -15 16 -24 12 -12 19 -13 30 -4 8 6 14 17 13 23
0 7 -2 6 -6 -1 -6 -17 -23 -17 -23 0 0 8 -7 14 -15 14 -8 0 -15 -4 -15 -8z"/>
<path d="M3490 2130 c0 -13 11 -13 30 0 12 8 11 10 -7 10 -13 0 -23 -4 -23
-10z"/>
<path d="M3295 2100 c3 -5 10 -10 16 -10 5 0 9 5 9 10 0 6 -7 10 -16 10 -8 0
-12 -4 -9 -10z"/>
<path d="M3490 2106 c0 -2 9 -6 20 -9 11 -3 20 -1 20 4 0 5 -9 9 -20 9 -11 0
-20 -2 -20 -4z"/>
<path d="M3045 2090 c-3 -5 -1 -10 4 -10 6 0 11 5 11 10 0 6 -2 10 -4 10 -3 0
-8 -4 -11 -10z"/>
<path d="M2635 2060 c-3 -5 -1 -10 4 -10 6 0 11 5 11 10 0 6 -2 10 -4 10 -3 0
-8 -4 -11 -10z"/>
<path d="M2716 2062 c-3 -6 -1 -14 5 -17 15 -10 25 3 12 16 -7 7 -13 7 -17 1z"/>
<path d="M3260 2060 c0 -5 11 -10 25 -10 14 0 25 5 25 10 0 6 -11 10 -25 10
-14 0 -25 -4 -25 -10z"/>
<path d="M3320 2060 c0 -5 12 -10 28 -10 21 0 24 2 12 10 -20 13 -40 13 -40 0z"/>
<path d="M2960 2050 c-11 -7 0 -10 38 -10 28 0 52 5 52 10 0 13 -70 13 -90 0z"/>
<path d="M3433 2045 c0 -18 19 -15 25 3 2 7 -3 12 -10 12 -8 0 -15 -7 -15 -15z"/>
<path d="M3478 2043 c7 -3 16 -2 19 1 4 3 -2 6 -13 5 -11 0 -14 -3 -6 -6z"/>
<path d="M2540 2019 c0 -5 5 -7 10 -4 6 3 10 8 10 11 0 2 -4 4 -10 4 -5 0 -10
-5 -10 -11z"/>
<path d="M2515 1986 c-23 -7 -50 -18 -60 -25 -19 -12 -19 -12 2 -8 13 3 26 1
29 -4 3 -6 10 -6 17 -1 7 5 29 15 49 21 21 7 40 17 43 22 8 13 -32 10 -80 -5z"/>
</g>
</svg>
