<svg xmlns="http://www.w3.org/2000/svg" width="144" height="125" fill="none" viewBox="0 0 144 125"><defs/><style>.squiggle { stroke-dasharray: 1083.1663818359375; stroke-dashoffset: 1083.1663818359375; animation: draw 1.5s linear infinite alternate; } @keyframes draw { to { stroke-dashoffset: 0; } }</style><clipPath id="clippy"><path fill="#073358" fill-rule="evenodd" d="M67.233 104.584c.272.092.53.22.768.382v.002c-.431.174-.451.299-.075.456.308.048.596.182.831.387-.512.426-1.262.488-2.244.194a3.285 3.285 0 00-2.5.063c0-.195.088-.239.255-.195.136.035.135.014.129-.094a1.363 1.363 0 01-.003-.098c0-.195-.124-.238-.383-.195-.255.044-.516.007-.516-.187 0-.193.062-.231.192-.193.132.036.238-.025.326-.194.362.303.79.516 1.25.623a1.363 1.363 0 00-.832-.705 10.333 10.333 0 00-1.25-.326c-.423-.084-.85-.15-1.28-.192a2.266 2.266 0 01-1.032-.32c-.513 0-1.12-.019-1.8-.062a47.927 47.927 0 01-2.118-.193 11.042 11.042 0 00-2.057-.063 2.054 2.054 0 00-1.35.444c-.088 0-.125-.168-.125-.513a16.068 16.068 0 01-3.344.193c-1.281-.044-2.144.15-2.569.583a27.78 27.78 0 00-4.432.38c-1.64.266-3.27.587-4.887.964a64.033 64.033 0 00-4.945 1.35c-1.63.518-3.13.943-4.5 1.286v.626c-.169-.432-.506-.556-1.026-.388-.518.169-.643.47-.387.9-.175-.257-.449-.3-.837-.131a1.65 1.65 0 00-.83.775c-.239-.257-.458-.345-.627-.257a2.968 2.968 0 00-.512.32 7.908 7.908 0 01-.581.386 1.08 1.08 0 01-.832.063c0 .6.088.769.257.514.169-.257.468-.301.9-.125a.877.877 0 01-.775.38.85.85 0 001.156-.125 1.16 1.16 0 011.288-.255c.081.424-.026.531-.326.318-.298-.213-.537-.107-.705.325a3.757 3.757 0 001.605-.131.963.963 0 00.838-1.156 1.113 1.113 0 01.768.387c.238.257.457.294.626.125.257.168.343.324.257.387-.087.063-.125.28-.125.625.681 0 1.074-.082 1.156-.255.081-.176.4-.264 1.024-.264a.803.803 0 00-.575-.256c-.194 0-.28-.168-.194-.513-.157.16-.36.273-.58.32-.212.058-.275.296-.187.713a2.371 2.371 0 01-.326-1.095.87.87 0 01.45-.962c.169.169.194.293.064.382a.623.623 0 00-.188.517c.512-.431.75-.506.706-.263-.044.244.274.457.962.626.169-.424.089-.599-.256-.512-.344.088-.476 0-.388-.257.36.083.734.083 1.095 0a.914.914 0 00.83-.625 1.135 1.135 0 01-.255.964 1.57 1.57 0 01-1.026.705c.86.169 1.752.008 2.5-.45a5.181 5.181 0 013.02-.575 1.547 1.547 0 011.412-.581 1.728 1.728 0 001.413-.449c.6 0 .899.13.899.386.087-.344.368-.493.838-.449.468.044.575-.213.32-.838.255-.169.424-.075.511.262.088.338.262.382.519.125a4.669 4.669 0 011.67-.193 1.434 1.434 0 001.287-.576c.08-.086.211-.042.38.125a.246.246 0 01-.03-.223.25.25 0 01.162-.157c.166-.088.122-.176-.131-.264a2.441 2.441 0 011.287-.255c.081.257-.025.362-.324.257-.3-.108-.364.086-.188.517.222.16.497.229.769.194.255-.044.343.063.255.32.194-.088.238-.195.194-.32a1.425 1.425 0 01-.062-.449c.847.17 1.72.17 2.568 0a17.661 17.661 0 012.958-.264 1.438 1.438 0 00-1.545-.318 1.212 1.212 0 01-1.413-.319c.765.168 1.56.145 2.314-.069a4.252 4.252 0 012.445.069c-.157.338-.37.468-.627.382a2.022 2.022 0 00-1.03 0 1.309 1.309 0 00.968.387c.363 0 .726-.022 1.088-.063a4.133 4.133 0 011.03 0 1.5 1.5 0 01.901.45.526.526 0 00.256-.519 1.472 1.472 0 001.67 0c-.09.264-.038.408.13.451.168.043.212.193.125.45a3.746 3.746 0 00-2.25-.063 5.763 5.763 0 01-2.63.063c-.195-.169-.239-.294-.195-.382.044-.086-.025-.218-.194-.387-.088.257-.168.387-.256.387-.087 0-.169.125-.257.382a12.455 12.455 0 00-1.8-.125 1.094 1.094 0 00-1.157.625c-.255-.431-.485-.556-.704-.387-.22.167-.408.087-.577-.257-.086 0-.13.194-.13.625a62.251 62.251 0 00-3.663.512 18.696 18.696 0 01-3.125.257 9.252 9.252 0 01-2.313.769c-.6.088-1.5.175-2.7.263-.47.188-.922.426-1.345.705a1.664 1.664 0 01-1.48.188 7.616 7.616 0 01-3.663 1.287 5.386 5.386 0 00-3.532 1.67h-1.273a72.56 72.56 0 01-6.109 2.83 37.398 37.398 0 00-5.975 3.083.722.722 0 00-.443.343.733.733 0 00-.07.556c-.168 0-.255-.043-.255-.13 0-.088-.087-.088-.256 0a58.736 58.736 0 00-2.375 2.249 8.568 8.568 0 01-2.501 1.738 3.47 3.47 0 01-2.5-.131 4.25 4.25 0 01-1.607-1.538 1.923 1.923 0 00-.255-1.545c0-.174.019-.28.062-.324a.5.5 0 00.063-.319c.088-.174.063-.281-.063-.318a.3.3 0 01-.194-.326 4.184 4.184 0 01.32-1.731c.22-.484.413-.933.58-1.35a3.347 3.347 0 002.444-1.031c.483-4.444 1.19-8.861 2.12-13.235a235.015 235.015 0 012.955-12.187 437.882 437.882 0 013.331-11.819 323.5 323.5 0 003.282-11.877 930.02 930.02 0 005.782-17.926 486.484 486.484 0 015.781-17.412v-.018c0-.07.001-.107-.062-.107-.07 0-.07-.044-.07-.132a.845.845 0 00-.706.256 1.2 1.2 0 01-.706.388 2.151 2.151 0 01.132-1.607c.207-.51.565-.946 1.026-1.25a2.568 2.568 0 01.706-2.437 2.368 2.368 0 00.706-2.312 4.32 4.32 0 001.25-1.8c.25-.64.485-1.283.706-1.932a.626.626 0 00.45-.512c.031-.218.097-.43.194-.625.524-.936.996-1.9 1.413-2.888.456-1.127.716-2.323.767-3.537.46.081.932.016 1.35-.188.47-.22.795-.069.964.45a2.688 2.688 0 012.5-.263 7.054 7.054 0 011.993 1.418 12.429 12.429 0 01-.706 3.595 94.47 94.47 0 01-1.248 2.956 2.63 2.63 0 01-.627 2.188 1.958 1.958 0 00-.52 1.926c-.598 0-.874.193-.83.58.043.42.108.837.194 1.25-.256-.087-.344-.15-.256-.193.082-.042.04-.149-.132-.318a.75.75 0 00-.132.768 1.57 1.57 0 010 .9c-.422-.088-.66.143-.705.767a.856.856 0 01-.963.901c0 .088.168.132.512.132a142.543 142.543 0 01-1.126 3.154l-.217.595a20.215 20.215 0 00-.968 3.344c-.17.088-.276.088-.32 0-.042-.087-.15-.131-.324-.131.106.287.151.594.131.9a3.844 3.844 0 00-.837 1.762l-.019.094c-.12.61-.244 1.247-.364 1.894a14.802 14.802 0 01-.506 1.876 3.435 3.435 0 01-1.087 1.606 8.312 8.312 0 01-.625 2.501c-.27.473-.615 1.181-1.032 2.118-.255-.082-.343-.193-.255-.318a.795.795 0 00.13-.45c-.43.168-.537.406-.324.705.21.277.324.616.324.963h-.02c-.073 0-.11 0-.11.063 0 .069-.044.069-.125.069l-.257-.263a4.175 4.175 0 00-.775 1.875 5.078 5.078 0 01-.77 1.989.813.813 0 00.627-.627 1.66 1.66 0 01.38-.769 1.163 1.163 0 01-.187 1.22 1.64 1.64 0 00-.325 1.35c-.169.174-.3.174-.388 0a.41.41 0 00-.38-.257.626.626 0 00-.132.626.906.906 0 01-.125.768.3.3 0 00.32-.256c.043-.168.23-.212.58-.126a7.79 7.79 0 01-.58.964 1.08 1.08 0 00-.064 1.093c-.175-.168-.281-.212-.325-.13-.046.086-.152.13-.318.13.293-.362.43-.824.387-1.288a1.64 1.64 0 00-.776 1.25 6.878 6.878 0 01-.38 1.482 2.94 2.94 0 00.9-.775c.179.42.104.905-.194 1.25a1.156 1.156 0 00-.194 1.251.518.518 0 00-.51.255c-.071.176-.283.176-.627 0a16.738 16.738 0 01-.838 3.089 12.154 12.154 0 00-.707 3.338l-.008.003c-.163.066-.266.107-.31.064-.043-.042-.112.063-.194.32.082.169.22.188.387.062.17-.125.213.025.125.45a.705.705 0 01-.512.062.543.543 0 00-.512.195 2.126 2.126 0 01.38-1.925c.45-.585.638-1.33.52-2.057h.04c.142 0 .216 0 .216-.063 0-.068.081-.068.257-.068a3.787 3.787 0 01.32-2.5 6.155 6.155 0 00.704-2.12 9.542 9.542 0 00-1.193 1.583 2.843 2.843 0 00-.07 1.874l-.083.021c-.206.05-.327.08-.366.042-.044-.044-.15-.019-.32.063v.773a.113.113 0 00.126-.13c0-.081.088-.125.263-.125v.77a.525.525 0 00-.52.254 2.307 2.307 0 00-.193.627 5.906 5.906 0 01-.187.767.763.763 0 01-.519.513.743.743 0 01.132.712 1.35 1.35 0 00.13.963c-.234.08-.47.145-.713.195-.211.042-.318.23-.318.575.17.255.276.219.318-.126.044-.344.194-.474.451-.388 0 .344.063.426.194.257.13-.17.28-.132.45.131l-.451.444a.976.976 0 01-.705.194c.086.175.193.257.324.257.152-.004.304-.024.45-.063.169-.04.341-.061.513-.063.168 0 .343.132.256.387-.088.257-.232.364-.451.32-.218-.044-.404.062-.58.318.857 0 1.014.274.387.9a.224.224 0 01-.247-.153.224.224 0 01-.008-.104c0-.169-.088-.211-.257-.125 0 .257-.044.382-.132.382 0 .255.132.387.326.387.193 0 .274.2.193.625-.412-.343-.624-.387-.624-.13 0 .255-.2.387-.626.387-.174-.17-.149-.326.063-.451a.442.442 0 00.194-.58c-.345-.169-.494-.1-.45.194.047.236.025.481-.063.705-.325-.255-.538-.213-.624.132a1.644 1.644 0 01-.389.769c-.168-.338-.324-.414-.45-.194-.125.219-.275.238-.449.069-.257.087-.3.213-.125.382a.332.332 0 010 .517c.081.169.174.206.255.125.081-.08.213-.08.389 0a8.174 8.174 0 01-.389 2.313 10.308 10.308 0 01-.899 2.188 3.554 3.554 0 01.13-1.607 6.61 6.61 0 00.257-1.605 3.124 3.124 0 00-.623 3.08h-.627c.004.215-.038.428-.124.624a.888.888 0 01.768.627c.086.356.216.7.387 1.024 0 .15-.174.43-.517.775a2.7 2.7 0 00.517.625c.169-.081.188-.186.062-.318a.35.35 0 01-.062-.45c.513 0 .831.087.963.258a.788.788 0 01.063.705 2.98 2.98 0 01-.45.9c-.172.25-.365.487-.576.707a.564.564 0 00.32.324c.13.044.15.194.062.45.087.168.169.143.255-.068.088-.213.213-.232.389-.063a1.043 1.043 0 00-.257.776c-.431-.345-.625-.389-.581-.132.043.255-.105.43-.45.512-.044-.084-.086-.17-.128-.256a10.919 10.919 0 00-.129-.256l-.255-.514c-.345.17-.426.301-.257.382a.425.425 0 01.257.387 2.8 2.8 0 01-.577-.062c-.192-.044-.28.062-.192.32h-.002c-.174 0-.255.131-.255.386-.175 0-.22.019-.132.063.088.043.132.025.132-.063.17-.168.255-.3.255-.387.194.119.406.206.627.257.188-.046.363-.134.512-.257a.661.661 0 000 .581.822.822 0 01.124.45 2.967 2.967 0 00-.768.9c0-.087-.088-.131-.257-.131v.194c0-.063.088-.063.257-.063 0 .5.168.713.512.625-.172.273-.28.58-.32.9a.757.757 0 01-.704.626c-.09.167 0 .287.193.324.194.038.275.188.194.445-.43.088-.625.081-.581 0 .044-.082-.15-.17-.581-.257.175-.17.131-.257-.125-.257 0-.255.08-.406.256-.45a.576.576 0 00.387-.317.757.757 0 00.512-.257c-.343-.088-.512 0-.512.257h-.255c0-.17-.132-.257-.389-.257-.087-.688.063-1.068.45-1.156.388-.088.532-.406.451-1.032-.175-.082-.257-.038-.257.131 0 .17-.087.17-.255 0a50.985 50.985 0 00-1.94 6.381 294.8 294.8 0 01-1.667 6.745 4.752 4.752 0 001.106-3.188 5.2 5.2 0 011.026-3.124 3.075 3.075 0 01.068-1.875c.18-.58.462-1.124.83-1.607h.257a1.606 1.606 0 010 2.575.628.628 0 00.387.32c.17.041.257.192.257.449-.257.413-.559.8-.899 1.15v-.126c0-.343-.045-.343-.125 0 .012.067.03.132.056.194l-.056.07c-.42.392-.614.97-.512 1.537-.182.157-.339.224-.47.157.15.132.266.299.338.485a1.249 1.249 0 00.768.627 1.116 1.116 0 01-.9.194c-.413-.044-.624-.156-.624-.326-.195 0-.238.107-.195.326a.839.839 0 00.195.45c.512 0 .769-.132.769-.387a.626.626 0 01.255.767c-.172 0-.345-.02-.512-.062-.176-.043-.257.106-.257.451.338-.088.514-.025.514.194.004.24.048.478.13.705-.174.257-.262.257-.262 0 0-.256-.044-.343-.125-.256a1.414 1.414 0 00-.194 1.25c.131.387-.15.619-.838.707v.9a1.063 1.063 0 00-.256.774.626.626 0 00.256-.774c.175 0 .263 0 .263-.062 0-.063.037-.063.123-.063.092.53.113 1.07.063 1.605-.042.638-.318 1.001-.83 1.089.17 0 .257.362.257 1.156 0 .792-.2 1.243-.625 1.419a.504.504 0 00.387.512 2.326 2.326 0 00-.72 1.013 1.387 1.387 0 01-.768-.125.997.997 0 00-.389.899c.29-.103.564-.246.815-.424.299-.22.53-.238.706-.069.168.344.105.474-.196.388a.974.974 0 00-.704 0c-.088.423 0 .68.194.768.194.087.274.344.194.775.115-.095.247-.167.39-.211.142-.044.292-.059.44-.044.389 0 .494-.201.326-.627a42.059 42.059 0 002.7-1.03 46.325 46.325 0 002.824-1.282.807.807 0 00.635.123.815.815 0 00.523-.379c.341-.433.596-.477.767-.13.17 0 .37-.132.583-.389.211-.255.405-.255.575 0a34.194 34.194 0 013.986-1.668 47.722 47.722 0 014.495-1.35c1.147-.284 2.269-.553 3.367-.816l1.133-.273a64.976 64.976 0 003.856-1.03c0 .169.038.255.125.255a48.002 48.002 0 016.25-1.25 74.264 74.264 0 016.938-.581 55.617 55.617 0 017.07.193c2.2.185 4.373.593 6.488 1.221.145.238.366.42.626.517zm-50.29-11.05c.043-.087-.02-.131-.195-.131h-.025c-.17.087-.15.219.025.388.175.168.299.124.387-.131-.193 0-.237-.038-.193-.126zm-.576-.882c0 .082-.025.126-.062.126l-.026-.019c-.043 0-.068.044-.043.15.343 0 .468-.087.386-.257h-.255zm-.062 1.608c-.044.125-.195.144-.451.062l-.026-.019c.14.157.241.345.295.549-.055.22-.141.43-.257.626a.869.869 0 00.625-.257c-.168-.255-.212-.43-.125-.512a1.55 1.55 0 00.256-.518c-.175-.088-.274-.057-.317.069zm-.351 2.512a1.067 1.067 0 01-.45.125c-.125 0-.25.063-.3.255.216-.024.436.022.624.132 0-.174.02-.28.063-.324a.282.282 0 00.063-.188zm-1.057 4.477a.441.441 0 00.032-.176v-.025c0-.126-.087-.195-.257-.169 0 .343.038.518.126.518a.443.443 0 00.1-.148zm2.856-11.228c0 .297-.083.3-.248.049.165-.324.248-.344.248-.049zm-.255-2.119a.626.626 0 01-.063.257v-.013a.893.893 0 00-.069.4c.257.087.387-.007.387-.325 0-.319-.086-.405-.255-.319zm16.707-49.696c0 .3-.043.282-.131-.063.088-.255.131-.232.131.063zm-.643 1.737a2.227 2.227 0 00-.326.514.512.512 0 00.069.642 1.056 1.056 0 01.125-.58c.1-.174.146-.375.132-.576zm.255-.387c.175.17.088.3-.255.387 0-.423.081-.556.255-.387zm-1.637 3.15c-.213.213-.25.106-.163-.324.317.007.37.119.163.324zm-.32 1.607c.082.167.02.318-.192.45h.03c-.193.125-.193.256.031.319 0-.081.088-.188.257-.32.17-.131.132-.28-.125-.45zm-1.268 3.6c.168.088.32.018.45-.194h.012c.132-.2.107-.363-.073-.45a.3.3 0 01-.257.319c-.176.042-.301.238-.132.324zm.615-1.054a.418.418 0 01.154-.234h.013c.175-.168.131-.3-.138-.387a.888.888 0 00-.194.45.362.362 0 00.194.45.418.418 0 01-.03-.279zm-.103-1.002v-.263h-.255c0 .088-.088.132-.257.132v.386h.387c0-.169.038-.255.125-.255zM30.88 39.3h-.4l.012.257h.388V39.3zm-.275 7.708c-.084-.08-.126-.034-.126.131-.087 0-.125-.169-.125-.513.162 0 .25.13.25.382zm.275 1.137c-.169.424-.344.627-.514.627-.018-.389.15-.627.514-.627zm-4.625 13.75c.168.17.274.063.318-.324l-.019.025c.044-.38-.019-.575-.169-.6-.262.088-.305.382-.13.9zm.943-5.141l.002-.002h-.002v.002zm-.694 2.98a4.625 4.625 0 01.694-2.98v.023a3.394 3.394 0 00.631-2.582 5.112 5.112 0 00-.775 1.875 4.192 4.192 0 01-.768 1.739.975.975 0 01-.062.769l-.389.767c-.123.24-.19.506-.194.777 0 .255.194.51.627.768.167-.257.123-.412-.132-.45-.257-.038-.345-.194-.257-.451a.856.856 0 00.625-.255zm1.513-10.926a.844.844 0 00-.194.443l.019.006c-.044.22.018.326.175.32a.356.356 0 01.063-.45c.131-.132.106-.238-.063-.32zm1.668 1.67c.17.344.257.36.257.062l.019.005c0-.3-.088-.319-.276-.068zm-1.7 3.605a6.924 6.924 0 00.707-1.668l.049-.007c.115-.51.34-.99.658-1.406-.176 0-.282-.019-.32-.063a.27.27 0 00-.194-.069c-.134.333-.306.697-.512 1.133l-.193.412a2.12 2.12 0 00-.194 1.668zm.258-6.814v.52l.05-.006c.255.088.337-.019.337-.32 0-.299-.132-.361-.387-.194zm.437-.718c.12.128.193.292.206.468-.118-.005-.197-.155-.206-.468zm.587 3.807c0-.338-.088-.338-.257 0l.05-.006c.17.343.207.343.207.006zm-.053-7.577a.232.232 0 01.103-.011c-.169-.17-.312-.25-.382-.256-.024.18.02.363.125.512a.23.23 0 01.154-.245zm-.534.364a4.72 4.72 0 01-.838 2.582 2.544 2.544 0 00-.45 2.156 4.33 4.33 0 00.512-.626.862.862 0 000-.9c.126-.138.279-.249.45-.325a.558.558 0 00.326-.318c-.264-.17-.264-.489 0-.963.24-.41.37-.876.38-1.35a.206.206 0 01-.192-.13.203.203 0 00-.188-.126zm-1.55 4.893a10.11 10.11 0 01-.626 1.67v-.002a3.122 3.122 0 00-.236 1.802 2.098 2.098 0 00.623-1.538 2.097 2.097 0 01.627-1.543c-.195-.088-.232-.2-.195-.326.038-.125-.025-.144-.192-.063zm-1.268 6.557c-.17.169-.213.3-.125.382h-.014a.55.55 0 01.137.352v-.003c.326 0 .458-.217.326-.623-.131-.407-.026-.627.318-.627-.088-.169-.218-.194-.387-.062-.169.131-.3.106-.382-.063a2.24 2.24 0 01.125-.899 2.6 2.6 0 00.132-1.026.788.788 0 00-.387.963c.088.453.044.921-.125 1.35.257 0 .382.088.382.256zm-.002.75c-.169 0-.255-.044-.255-.125a.113.113 0 00-.125-.132c0 .495.167.714.512.627.081-.17.081-.257 0-.257a.12.12 0 01-.132-.113zm-.38 1.051c.188.345.23.362.188.063h-.013c-.044-.301-.106-.326-.175-.063zm-3.114 12.85c.17.087.3.018.389-.195v.002c.093-.213.05-.326-.132-.326 0 .176-.044.257-.125.257-.088 0-.132.088-.132.262zm.514-4.643a1.25 1.25 0 01.261-.626h.013c.169-.256.081-.387-.274-.4a.32.32 0 010 .512.326.326 0 000 .514zm.775-4.1c0-.339-.088-.47-.257-.382v.257c.082 0 .125 0 .125.062 0 .063.044.063.132.063zm.255 1.543c-.175-.082-.324 0-.45.256h.013c-.131.256-.094.387.05.387a1.52 1.52 0 01.193-.318c.078-.1.144-.21.194-.325zm-1.17 1.021a.525.525 0 01-.242.266h.012c-.255.17-.255.343-.01.531 0-.345.255-.602.767-.767-.17-.088-.256-.201-.256-.326 0-.126-.087-.15-.256-.063a.525.525 0 01-.015.36zm-.76 1.547c.173 0 .344-.123.518-.38h.012a.506.506 0 00-.53.38zm0 2.575c.175.346.262.346.262 0h.013c0-.344-.093-.344-.276 0zm-.11 3.998c.077.248.05.448-.079.515-.131.07-.155.282-.069.626.17-.17.301-.106.389.193.087.3.213.32.387.062-.174-.167-.15-.324.062-.45.213-.124.232-.405.063-.83a.748.748 0 01-.752-.117zm-.273-2.458c.083.343.125.343.125 0h.013c0-.338-.044-.338-.138 0zm0 1.417c.083.257.125.232.125-.069h.013c0-.292-.044-.275-.138.07zm-1.543 6.297c-.172 0-.344-.02-.512-.063h.013a.518.518 0 00-.527.193c.138.077.293.12.451.125.126 0 .23.088.318.257a.73.73 0 01.257-.512zm.132-2.19c.167 0 .318-.23.45-.705h.012c.125-.468.019-.706-.337-.694-.079.25-.1.516-.063.776.029.21.008.423-.062.623zm.637-2.567c-.169.255-.106.343.194.255h.011c.301-.081.439-.123.182-.38-.255-.257-.387-.213-.387.125zm.519-1.925c-.088.063-.157.105-.194.063h.012c-.044-.038-.063.023-.075.192l.257-.255zm0 1.281a.705.705 0 01-.07-.514h.013a.306.306 0 00-.213-.393.876.876 0 01-.192.513.349.349 0 00.075.526c0-.088.13-.132.387-.132zm-.59-1.412a.55.55 0 01-.184.194h.01c-.168.13-.168.236-.012.324a.55.55 0 01.257-.45c.176-.131.176-.238 0-.326a.55.55 0 01-.07.258zm-.44 1.155a.207.207 0 01-.126.194h.012c-.087.044-.044.107.113.195a.36.36 0 01.13-.257c.085-.088.04-.132-.13-.132zm.773 1.545c0-.088-.193-.15-.581-.195h.012a1.019 1.019 0 00-.831.195c0 .175.2.274.626.318.425.043.688-.063.774-.318zm-1.803-1.398c-.16.16-.156.287-.028.372a.2.2 0 01.125-.193c.083-.041.049-.1-.097-.179zm-.028 3.066c-.088 0-.157.112-.194.326h.044a.368.368 0 00.15.449c-.088-.257-.082-.406 0-.45.081-.043.125-.15.125-.325h.257v-.38c-.17 0-.257.124-.257.38h-.125zm.038 1.01a.263.263 0 00-.038-.11h.045c-.432-.169-.651-.025-.564.45.088.476.264.539.519.194-.257-.088-.3-.17-.132-.257a.264.264 0 00.17-.277zM8.885 110.649c0-.088.132-.125.387-.125 0 .056-.132.125-.387.125zm3.468-.125h.518v-.025c.082-.35.007-.492-.257-.492-.261 0-.349.167-.261.517zm-.37-7.713a.708.708 0 01-.01.575c-.088.219-.045.326.125.326a1.18 1.18 0 01.194-.583c.128-.209.021-.315-.309-.318zm.633-1.799c.025.341-.067.68-.261.961v-.025c-.17.213-.088.408.261.588a.997.997 0 01.257-.899c.255-.326.168-.538-.257-.625zm.512 2.443a2.652 2.652 0 00-.512 1.475v-.025a7.28 7.28 0 01-.261 1.764 5.22 5.22 0 00.71-1.676 2.121 2.121 0 00.063-1.538zm-.63 6.27c.167-.326.38-.449.613-.364.017.236-.196.361-.614.364zm1.43-.776a4.054 4.054 0 01-.194-.451l-.031.007c-.042-.13.025-.281.226-.456-.343-.088-.475 0-.387.257.087.255 0 .387-.257.387-.17-.176-.17-.318 0-.45.169-.131.131-.194-.126-.194 0 .257-.08.412-.255.449-.175.038-.255.195-.255.451a.802.802 0 01.705.063.423.423 0 00.575-.063zm-.675-6.426c.088-.344.132-.368.132-.067 0 .299-.044.33-.131.067zm1.288.454c0 .29-.088.27-.255-.072.167-.249.254-.225.255.072zm-.512.478c.016.27-.05.539-.193.769h-.001v-.025a1.25 1.25 0 00-.193.794c.255 0 .456-.257.581-.771.125-.51.063-.767-.194-.767zm-.132 2.957c-.169 0-.255-.069-.255-.194v-.025c0-.132-.088-.194-.263-.15v.624h.263l.255-.255zm0-.194c.088.044.088.106 0 .194-.088-.175-.088-.238 0-.194zm-.74-6.297a.83.83 0 00-.403-.222l-.002-.001a.568.568 0 00.627.626.831.831 0 00-.223-.403zm.366-1.123c.174.176.28.132.324-.125h-.012c.039-.255-.024-.387-.18-.387 0 .17-.044.256-.132.256v.257zm.518-1.783v-.01h-.037l.037.01zm-.131.44c.086-.042.13-.188.131-.44.254.066.35 0 .32-.204a2.78 2.78 0 01-.063-.581c-.43 0-.687.131-.775.387a.38.38 0 010 .575.995.995 0 00-.257.582c.17-.088.3-.088.389 0a.52.52 0 00.386.13c-.175-.258-.219-.407-.131-.45zm-.013-1.576c.6 0 .945-.493 1.032-1.48a5.72 5.72 0 01.638-2.376c-.257 0-.407.081-.451.257a.626.626 0 01-.318.387.732.732 0 01-.194.963c-.3.211-.362.592-.195 1.218-.343 0-.512.088-.512.257.326 0 .458.13.326.387s-.238.387-.326.387zm1.592-4.244c0-.09.022-.177.065-.256l.013-.031c.088-.17.044-.255-.138-.224a1.977 1.977 0 00-.388.512c-.113.17.087.255.513.255a.532.532 0 01-.065-.256zm.227-1.481a.256.256 0 01.1-.062l.012-.032c.17-.081.126-.169-.142-.225a.955.955 0 01-.132.388c-.087.176-.043.257.132.257a.258.258 0 01.03-.326zm.225-.443a.806.806 0 00.194-.387v-.001l.013-.032c.044-.167-.025-.257-.207-.225.088.087-.019.125-.318.125-.3 0-.325.132-.069.388 0-.081.088-.125.262-.125 0 .17.037.257.125.257zm-.112-1.707c.16-.309.242-.3.242.028 0 .337-.075.32-.242-.028zm.11-.484h.39v-.257h-.39v.257zm.901-.126c0 .344-.075.314-.243-.028.16-.316.243-.306.243.028zm-.15 1.156c.175 0 .343-.13.52-.386h-.002l.032-.02a.512.512 0 00-.55.406zm.374-2.161a.8.8 0 01.063-.313v.001c.069-.258 0-.388-.105-.407a.46.46 0 01-.52.519c0 .343.194.513.625.513a.812.812 0 01-.063-.313zm.424-1.239c-.161-.142-.278-.134-.361.025a.513.513 0 01-.512.257c.169-.337.32-.512.45-.512s.106-.213-.063-.627c.169.09.294.063.382-.062.087-.124.213-.15.387-.061a.569.569 0 01-.193.512c-.14.066-.167.227-.09.468zm2.084-1.13h-.257v.256h.257v-.257zm-1.053.416a.412.412 0 01-.042-.16h-.019a.411.411 0 00-.43-.413c.08.46.014.933-.195 1.35a1.381 1.381 0 00-.062 1.251c.256-.088.344-.35.256-.777-.087-.423 0-.68.257-.767.168.175.3.255.387.255 0 .257-.175.389-.512.389a.945.945 0 00.255.574c.17.22.339.238.514.068-.175-.086-.15-.28.063-.58.203-.3.097-.45-.32-.45-.087-.168-.069-.256.063-.256.131 0 .194-.088.194-.257.343.088.424.038.255-.132-.167-.167-.255-.123-.255.132a.413.413 0 01-.409-.227zm-.463-6.275a.525.525 0 01-.154.271h-.019c-.175.213-.131.406.145.574.028-.251.115-.494.256-.705.168-.3.088-.451-.256-.451a.53.53 0 01.028.31zm-.154 2.903c0 .087-.025.13-.069.13h-.018c-.063 0-.063.075-.044.125a.117.117 0 01.097.034.12.12 0 01.034.098c0 .087.082.125.257.125 0-.338-.088-.512-.257-.512zm-.537-5.164v-.256c0-.062-.044-.062-.125 0 0 .256 0 .381.062.381.063 0 .063-.038.063-.125zm0 5.013c-.088-.344-.044-.45.132-.325.175.125.125.238-.132.325zm0 .025c-.004.841-.217 1.301-.627 1.388a.736.736 0 00.265-.775c-.106-.232.019-.443.362-.613zm-.237 1.925c-.255.345-.386.387-.386.132 0-.257.112-.3.386-.132zm-.386-5.525c.175.256.261.238.261-.063h-.017c0-.3-.088-.282-.244.063zm.263.643h-.407c-.095.257-.044.426.144.514a.732.732 0 01.263-.514zm.255 5.526a.544.544 0 01-.581-.063h-.019c-.125-.131-.236-.069-.299.188.232.115.467.224.705.325a.837.837 0 00.838-.07.807.807 0 01.257-1.28c-.176-.168-.301-.212-.389-.13a.533.533 0 01-.387.13.976.976 0 01-.125.9zm-1.288-1.156c.17.255.257.237.257-.069h-.018c0-.294-.088-.275-.238.07zm.286 2.29a1.247 1.247 0 01-.285.41h-.02a.481.481 0 00.02.768l.012-.019c.163-.248.315-.48.437-.686a1.108 1.108 0 00-.063-.963c0 .168-.035.335-.101.49zm-.41 1.303c0 .176-.045.263-.132.263v.257c.169.168.275.124.32-.131.043-.257-.02-.389-.189-.389zm-.264 1.288a10.05 10.05 0 01-.705 1.412h-.018a1.062 1.062 0 00.21 1.413 2.27 2.27 0 01.388-1.475 1.4 1.4 0 00.125-1.35zm-.767 3.532c.087-.038.043-.1-.126-.188h-.019c-.175.257-.175.426.02.513 0-.169.037-.288.125-.325zm-.644 1.224a14.15 14.15 0 00-.512 1.607h-.02c-.175.646-.168 1.053.02 1.219.232-.442.385-.92.45-1.413.06-.477.263-.925.58-1.287-.175 0-.263 0-.263-.063s-.086-.063-.255-.063zm-.974 2.832a.112.112 0 00-.052-.006h-.019a.257.257 0 00.144.387c.17.081.257.037.257-.13-.169 0-.257-.044-.257-.126a.112.112 0 00-.073-.125zm.205 1.15v-.255h-.276v.255h.276zm-.132.257c-.087 0-.15.087-.188.255h-.018c-.041.175.028.263.206.263-.087-.175-.056-.299.07-.387.124-.087.018-.131-.07-.131zm-.518-3.495h-.25l-.007.412h.257v-.412zm-.25 5.27c.106.57.015 1.157-.256 1.669l-.019.025a3.207 3.207 0 00-.368 1.649c.392-.451.64-1.01.705-1.605.213-.9.194-1.482-.063-1.739zm-.388 6.057c0 .167-.001.27-.062.312-.063.044.062.149.318.318a.512.512 0 01-.38.132.969.969 0 01-.388-.132c.083-.163.148-.335.193-.512.018-.153.127-.198.32-.118zm-.256 2.305v-.519l-.018.019c0-.168-.089-.218-.219-.143a.294.294 0 01-.194.318.308.308 0 00-.194.325h.625zm-.126-4.611a2.21 2.21 0 00-.387.967h-.018a3.01 3.01 0 01-.239.964c.282-.206.485-.502.577-.838.127-.351.15-.73.067-1.093zm-.917 5.011c-.162-.004-.218-.067-.176-.194a.306.306 0 00-.063-.318c.3.169.407.345.239.512zm-.351.513c-.16.299-.25.631-.257.969h-.036a5.5 5.5 0 01-.094 1.087 1.916 1.916 0 00.387-2.056zm.131 2.894c-.088.042-.131.151-.131.324l.513-.017a.74.74 0 00-.382-.626c.082.169.088.275 0 .319zm.45-5.588c-.13.081-.155.257-.068.513h-.037c.167.088.336-.012.424-.319.088-.307.044-.493-.131-.581.087.257.05.274-.126.063-.174-.213-.255-.195-.255.068.255.082.324.174.193.256zm.32 2.763c0-.069-.045-.069-.132-.069h-.038c-.168.175-.168.282.038.326a.319.319 0 00.388-.195h-.039c-.144.001-.218.001-.218-.062zm-.172 6.221c-.06-.036-.086-.163-.086-.378.17-.086.257 0 .257.257a.112.112 0 00-.065-.011.114.114 0 00-.06.024.12.12 0 00-.04.053c-.006.018-.008.037-.006.055zm-.021-.98c.143-.819.272-1.632.386-2.46.132-.95.274-1.874.45-2.831a3.748 3.748 0 010 3.026 20.475 20.475 0 00-.836 2.265zm9.058-.158a.333.333 0 00.366-.215.336.336 0 00.018-.162c-.337 0-.464.128-.384.377zm.641-.377h.519l-.038-.019c.15 0 .15-.087.036-.238-.343 0-.517.088-.517.257zm35.69-4.531h-.258c0 .099-.086.232-.255.381.425 0 .6-.124.512-.381zm-9.763.768c-.088.062-.157.108-.194.062v.021c-.044-.046-.07.025-.07.173l.264-.256zm-.263-.696c-.001.289-.039.261-.126-.072.093-.242.125-.22.126.072zm-.93 1.199a.203.203 0 01-.095.073v.019c-.087.044-.044.106.132.175a.202.202 0 01.125-.194c.086-.038.043-.107-.125-.188a.202.202 0 01-.036.115zm-.864.01c.256.257.362.238.318-.062v.031c-.044-.313-.149-.295-.318.031zm-6.063 1.031c.088.338.132.363.132.063l.019.018c0-.3-.044-.318-.15-.081zm-10.445 1.735a.3.3 0 01-.155.129l.019.019c-.126.037-.15.18-.082.43a.865.865 0 00.77-.387c-.17-.087-.258-.15-.258-.194 0-.044-.087-.106-.255-.194a.3.3 0 01-.04.197zm-.481.578h-.38l-.007.376h.387v-.376zm-.619.201c-.174-.047-.217-.196-.13-.451h-.001a1.003 1.003 0 00-.41.049 1 1 0 00-.358.208 3.7 3.7 0 01.45.256c.145.094.295.179.45.256.175-.166.175-.273 0-.318zm-1.413-.194c0 .169-.043.256-.13.256v.256c.168.169.287.125.325-.132.037-.255-.025-.38-.195-.38zm-.518.769c.175-.17.132-.282-.125-.32v.013c-.256-.044-.343.018-.256.181a.107.107 0 01.05.006.11.11 0 01.044.026.116.116 0 01.032.094h.255zm-.619-.644c.257 0 .213-.125-.131-.381v-.001h-.019c-.168.269-.105.382.15.382zm-.255.644c.168.344.255.361.255.062l-.018.013c0-.301-.088-.32-.237-.075zm-1.42-1.28c-.088.257-.042.319.131.185l-.019.012c.162-.118.136-.18-.112-.197zm-.036-.003c.087-.45 0-.58-.256-.45a2.383 2.383 0 00-.626.45h.882zm43.22-6.062v-.001.001zm-.007 0c-.427-.002-.618-.171-.51-.512a.115.115 0 00.096-.035.11.11 0 00.027-.044.12.12 0 00.006-.052c.398.03.532.24.381.643zm.444-.151a.738.738 0 00-.181-.231l-.019.031c0 .339.081.514.276.483a.733.733 0 00-.076-.283zM100.35 37.88a.115.115 0 00-.052-.006c-.176-.087-.213-.087-.126.126.088.213.176.318.257.318a59.57 59.57 0 00-3.6 7.133 77.705 77.705 0 01-3.594 7.394 2.079 2.079 0 01-.626 1.923 1.873 1.873 0 00-.512 1.927 11.2 11.2 0 00-1.25 3.536 10.727 10.727 0 01-1.35 3.664c.028.5-.036 1-.188 1.475-.13.3-.28.669-.45 1.093a.626.626 0 00.257.32c.078.04.078.191 0 .448a1.444 1.444 0 00-.777 1.676 1.25 1.25 0 01-.767 1.538c.155.273.202.593.131.899a.626.626 0 00.126.627c-.301.363-.516.79-.625 1.25a9.74 9.74 0 00-.188 1.25 5.5 5.5 0 01-.264 1.25 2.403 2.403 0 01-.83 1.092h-.131v.02c0 .074 0 .106.063.106.068 0 .068-.038.068-.126a.55.55 0 01.318.063c.044.063.195.063.45.063.175.52.15.844-.063.97-.211.124-.192.361.063.706-.688.087-1.006.274-.962.574a.893.893 0 01-.45.838c.168.168.256.168.256 0 0-.169.088-.213.257-.131v.788a.586.586 0 00-.32.317c-.042.132-.15.107-.324-.062a.976.976 0 00.13.9 1.044 1.044 0 01.257.77c-.257.173-.343.361-.257.58.088.304.09.625.01.93.034-.052.162-.04.378.034.09.772.046 1.554-.131 2.312a6.155 6.155 0 00-.125 2.181.512.512 0 00-.387.13.736.736 0 01-.512.126c.081.35.336.476.767.388a.512.512 0 00-.255.512.344.344 0 01-.389.387 2.41 2.41 0 01.452 1.933 2.8 2.8 0 00.192 1.793c-.174 0-.255 0-.255-.062 0-.063-.044-.063-.132-.063.34.58.477 1.258.387 1.925-.174 0-.255-.038-.255-.125a.119.119 0 00-.132-.13c-.013.173.011.347.07.51.03.212.006.427-.07.627-.424 0-.556.044-.382.131a.251.251 0 01.125.381c-.255 0-.274.082-.062.257.213.174.238.088.062-.257.176 0 .257-.019.257-.063s.088-.025.257.063a.921.921 0 00-.125.775 1.62 1.62 0 010 .9c0 .168.019.212.063.125a.983.983 0 01.192-.256.355.355 0 01.063.512.875.875 0 00-.193.519.232.232 0 01-.257-.262.224.224 0 00-.063-.193.226.226 0 00-.194-.064 1.25 1.25 0 000 .776c.088.255.213.255.389 0 .343.081.474.387.387.899-.088.514 0 .857.256 1.026a1.307 1.307 0 000 1.156 1.347 1.347 0 010 1.156c.467 1.426.81 2.89 1.025 4.376a23.428 23.428 0 003.214 5.526 10.426 10.426 0 005.526 3.467 13.92 13.92 0 004.949-.38 21.627 21.627 0 004.688-1.8 18.422 18.422 0 003.919-2.763 16.121 16.121 0 002.894-3.538h.768a20.392 20.392 0 012.188-4.176 72.399 72.399 0 002.568-4.044 133.281 133.281 0 004.051-9.257 57.048 57.048 0 002.838-10.13c.343.174.431.343.257.512a.775.775 0 00-.126.775c.256.087.406-.025.45-.325.044-.3.019-.45-.063-.45.257-.081.406 0 .45.255.045.298.066.6.062.901v.9a.343.343 0 00.093.29.335.335 0 00.288.097 33.366 33.366 0 01-.705 3.92 521.105 521.105 0 00-.963 4.05.51.51 0 01-.381-.132c.169.688.144 1.157-.069 1.413a2.657 2.657 0 00-.449 1.287c-.338.088-.407.195-.194.32a.441.441 0 01.194.58.853.853 0 00-.382.769.617.617 0 00.451.132.707.707 0 01.575.381c0 .343-.126.43-.387.257-.251-.168-.459-.168-.627 0 0 .174.038.287.126.324.087.038.087.15 0 .32-.17 0-.257-.044-.257-.126a.352.352 0 00-.13-.257c-.257.17-.295.345-.126.513.168.169.212.3.126.388.086.337.042.468-.126.38a1.476 1.476 0 01-.388-.255 12.744 12.744 0 00-1.413 4.624c.345.169.627-.08.84-.705a3.48 3.48 0 01.705-1.35h.125a.465.465 0 01.23.323.475.475 0 01-.099.383 2.081 2.081 0 01-.625.707c-.081.174-.087.261 0 .261.088 0 .132.082.132.257a35.569 35.569 0 00-4.37 8.095 92.949 92.949 0 00-2.713 2.725c-.856.899-1.843 1.906-2.955 3.018-.763.425-1.559.79-2.376 1.095a7.119 7.119 0 00-2.249 1.349c-.682.081-1.307.15-1.933.194-.492-.011-.962.2-1.281.575a16.542 16.542 0 01-9.708-.318 23.996 23.996 0 01-7.769-4.563c0 .093.014.161.04.204a5.494 5.494 0 01-1.908-2.005 12.112 12.112 0 00-1.875-2.443 14.012 14.012 0 00-1.087-2.763 11.191 11.191 0 01-.97-2.375c0-.257.044-.388.132-.388a1.704 1.704 0 01-.45-1.087c-.045-.475-.089-.97-.131-1.482a9.539 9.539 0 00-.257-1.543 3.497 3.497 0 00-.575-1.282c.426-.174.531-.519.32-1.031-.213-.512-.15-.857.194-1.024 0-.088-.194-.132-.627-.132a1.062 1.062 0 00-.125-.625c0-.188.04-.225.125-.188.09.038.215-.025.387-.194a22.077 22.077 0 01-.705-4.625 56.328 56.328 0 01.063-4.632c.175 0 .255.088.255.263.195-.087.239-.194.195-.325a.626.626 0 01.062-.45.231.231 0 00-.255.257 17.35 17.35 0 01-.063-4.945c.19-1.516.339-3.038.45-4.562a179.863 179.863 0 015.844-22.877 83.59 83.59 0 019.831-20.432 7.464 7.464 0 011.674-2.957 8.902 8.902 0 001.802-2.82 170.058 170.058 0 004.307-4.949 15.158 15.158 0 015.331-3.919.734.734 0 00.837 0c.257-.138.496-.31.708-.512.43 0 .661-.044.705-.131.042-.083.192-.041.451.131.14-.15.316-.262.512-.325a.299.299 0 00.261-.318 19.818 19.818 0 003.532-.577 8.422 8.422 0 013.407-.194c.72.066 1.42.28 2.055.626a7.382 7.382 0 001.926.77c.335.16.623.404.838.706a1.106 1.106 0 00.962.45 25.605 25.605 0 012.013 2.58 13.79 13.79 0 011.607 3.345 14.39 14.39 0 00.255 2.762 4.687 4.687 0 01-.255 2.632c-.456.37-.893.764-1.307 1.18a3.455 3.455 0 01-1.657.87 1.875 1.875 0 01-1.875-1.607 12.312 12.312 0 01-.324-2.5 25.617 25.617 0 00-1.087-2.888 14.664 14.664 0 00-1.738-2.956 7.996 7.996 0 00-2.376-2.119 4.237 4.237 0 00-3.282-.263 17.146 17.146 0 01-2.763 2.895 10.433 10.433 0 00-2.499 3.018 5.18 5.18 0 00-2.632 2.12 10.45 10.45 0 01-2.499 2.637 16.195 16.195 0 01-1.737 2.957 30.755 30.755 0 00-1.877 2.825c-.167 0-.255-.037-.255-.125a.115.115 0 00-.029-.098.126.126 0 00-.044-.028zm-13.691 77.723a.097.097 0 01-.086-.051l.086.051zm-7.182-29.408c.082-.343.126-.361.126-.067 0 .293-.025.324-.126.067zm0-1.287c.082-.255.126-.255.126 0 0 .257-.025.257-.126 0zm0 12.983h.257v-.37h-.257v.37zm43.177-.38c-.002.247-.089.2-.255-.139.166-.167.253-.126.255.14zm-3.981 8.861v.125c-.174.169-.236.257-.193.257a.473.473 0 00.193-.063.407.407 0 00.188-.194c.044-.087-.019-.125-.188-.125zm-.13 1.925c-.601-.169-1.114.106-1.546.838h.002a7.27 7.27 0 00-.751 1.605c.201-.211.373-.449.513-.705.156-.3.369-.369.625-.194a.622.622 0 01.388-.838c.34-.124.616-.378.769-.706zm-4.882 5.975c0 .301-.088.326-.257.063.169-.345.257-.362.257-.063zm-27.828-2.649a1.412 1.412 0 00-.299-.476v.713c0 .213.131.318.388.318-.089.257-.018.326.193.194.213-.131.144-.194-.193-.194a1.408 1.408 0 00-.089-.555zm-.792-10.045c0-.3-.044-.282-.132.062l-.038-.025c.088.282.17.263.17-.037zm-.389-.968c0 .518.176.775.514.775l-.038-.025c0-.514-.169-.775-.476-.75zm1.288-22.102c.257 0 .382-.037.382-.125l-.038-.025c-.257 0-.38.044-.344.15zm16.707-50.76c.081.17.019.301-.193.383l-.037-.025c-.213.087-.194.173.1.286 0-.087.086-.131.255-.131 0-.343-.044-.512-.125-.512zm-.937 1.194c.082.22 0 .451-.257.708l.002-.002c.511-.08.768-.512.768-1.28-.431.168-.594.355-.513.574zm-8.562 9.994a3.62 3.62 0 00-.625 1.252 1.544 1.544 0 00.205 1.262c.075-.145.14-.296.194-.45.044-.13.237-.194.581-.194a1.802 1.802 0 01.45-1.412c.3-.272.569-.576.802-.907-.419 0-.627-.044-.627-.132.338-.081.514-.556.514-1.412.212.19.483.303.767.319.345.05.47-.144.389-.575-.168-.175-.318-.175-.451 0-.133.176-.24.176-.318 0l.167-.169c.113-.115.228-.23.345-.343.189-.193.36-.402.512-.625 0 .43.088.6.257.512a1.25 1.25 0 010-1.095c.175-.292.132-.487-.125-.573a1.959 1.959 0 00-.726 1.08 1.337 1.337 0 01-.831.963 3.38 3.38 0 01-.581 1.25c-.275.457-.594.863-.9 1.25zM88.34 49.313a338.202 338.202 0 01-2.632 7.194h-.001a54.76 54.76 0 00-2.099 7.05.767.767 0 00.512-.513 2.49 2.49 0 00.126-.775 1.876 1.876 0 01.13-.706 1.25 1.25 0 01.626-.575 1.482 1.482 0 010-1.25c.193-.475.324-.973.387-1.482a.282.282 0 01.188.063c.097.06.212.084.326.069.167-.343.167-.519 0-.519a.407.407 0 01-.389-.257.626.626 0 00.32-.512c.047-.26.11-.518.192-.769.053-.187.14-.363.257-.518.088-.082.263-.038.519.131a.42.42 0 00.125-.512.847.847 0 00-.38-.388c.125-.486.297-.959.511-1.413a5.301 5.301 0 00.383-1.668.782.782 0 01.517.125c-.087-.32-.087-.538 0-.625.08-.076.08-.283 0-.625h.513a1.062 1.062 0 01.193-.9c.213-.326.106-.537-.324-.625zm-.9 4.113c-.082.255.043.343.388.255.344-.087.344-.167 0-.255h-.389zm-.126 1.024c0 .43-.13.627-.387.627 0-.407.15-.627.387-.627zm-4.243 10.283c-.108.79-.3 1.564-.575 2.312a4.825 4.825 0 00-.2 2.575c.253-.842.448-1.7.58-2.57a3.547 3.547 0 01.962-2.056h.002c.082 0 .124-.082.124-.255-.08.001-.124.089-.124.255-.088-.255-.17-.293-.257-.125-.088.17-.175.125-.257-.13a.85.85 0 01.382-.387c.176-.077.176-.285 0-.626a.338.338 0 00-.382.38v.627h-.255zm1.024-.382c.175.168.126.306-.13.388-.081-.426-.044-.556.13-.388zm-2.437 7.063a1.356 1.356 0 01-.257.517v.002c-.081.088 0 .213.257.38-.081-.167-.019-.343.194-.512.213-.167.15-.299-.194-.387zm-.382 1.031c.081.257.081.425 0 .512a.532.532 0 00-.13.389c.258 0 .407-.15.45-.451.04-.3-.065-.45-.32-.45zm-.199 1.184a.257.257 0 00-.063.097.257.257 0 00.132.389c0-.17.067-.257.192-.257.126 0 .15-.088.063-.257a.258.258 0 00-.324.028zm-.063 1.836c0 .299-.043.318-.125.063.082-.339.125-.364.125-.063zm-.257 1.218a.448.448 0 01-.062.512c-.13.176-.063.325.194.387a.626.626 0 00.125-.45.456.456 0 00-.257-.449zm-.062 1.932c-.044.255-.105.255-.193 0 .174-.257.237-.257.193 0zm.706 25.569c.155.25.224.545.194.838v.001c-.044.212.105.486.45.83a3.143 3.143 0 01-.318-.963 1.193 1.193 0 00-.326-.706zm-.255-.899c-.088 0-.132.088-.132.255h.387c0-.343-.044-.512-.125-.512 0 .169-.042.257-.13.257zm.943-5.436a.768.768 0 01-.107.554c-.213.37-.11.681.32 1.013-.254 0-.404.044-.45.13l-.194.389c.43-.088.6-.044.512.125-.08.159-.122.334-.125.512.146.057.297.101.451.132.112-.027.22-.071.318-.132.004.196.027.39.069.581.044.213-.019.406-.194.318-.174-.086-.256-.186-.256-.318 0-.131-.131-.106-.388.063a.542.542 0 01.194.518c-.044.169.063.257.32.257.086-.175.167-.219.255-.131.088.087.175.043.257-.126a3.28 3.28 0 01.131-1.03 1.152 1.152 0 00-.131-.901c0 .088-.057.132-.188.132-.132 0-.194-.044-.194-.132a1.873 1.873 0 00-.13-1.543h.512c.087-.332.069-.545-.063-.626a3.905 3.905 0 01-.45-.387c-.08.167-.087.305 0 .387.087.081.044.169-.125.257-.344 0-.438-.132-.263-.326.176-.193.044-.274-.38-.193a.768.768 0 01.3.477zm-.3-3.046c.173 0 .345-.02.513-.062.175-.044.257.025.257.192.086.345-.02.54-.339.607-.299.042-.45.192-.45.45.275.52.555.776.9.776a3.924 3.924 0 00-.13-2.957 3.868 3.868 0 00.387-1.544 2.399 2.399 0 00-.257-1.668c.209-.302.3-.669.257-1.033.025-.4-.063-.802-.257-1.156a1.318 1.318 0 00.45-1.093c-.05-.43-.159-.85-.323-1.251h.517c-.174-.343-.218-.599-.13-.768.087-.167 0-.344-.257-.512l.194-.388c.044-.088.15-.044.318.125a2.469 2.469 0 01-.193-1.089 1.99 1.99 0 01.324-.704 1.289 1.289 0 01-.324-.451.294.294 0 00-.32-.193 53.036 53.036 0 01-.58 5.718 17.82 17.82 0 00.069 5.844h-.625c.255.175.361.3.318.388-.046.096-.152.351-.318.77zm2.057-15.739c0-.069-.088-.069-.257-.069.083.34.083.693 0 1.032.257.088.345-.031.257-.326-.088-.292-.044-.487.125-.574h-.018c-.07 0-.107 0-.107-.063zm-.092-.647a.3.3 0 00-.04.198c.074 0 .144.002.206.005.23.01.37.015.307-.137-.082-.194-.188-.232-.318-.194a.3.3 0 00-.155.128zm-.081 2.362a.25.25 0 01.041-.108v-.025c.088-.15 0-.23-.256-.23a5.857 5.857 0 01-.387.892c.518 0 .775-.08.775-.256a.252.252 0 01-.173-.273zm.294 9.945a.114.114 0 00.003-.052l-.019.019c-.149 0-.218-.107-.174-.276.044-.17.025-.257-.063-.257 0 .175-.037.276-.125.32-.088.043-.088.156 0 .325h.256a.11.11 0 00.096-.034.118.118 0 00.026-.045zm-.174-1.299a.112.112 0 01.052-.003h.001v-.025a.232.232 0 00-.257-.232c0 .257.044.382.126.382a.114.114 0 01.033-.095.112.112 0 01.045-.026zm-.075-.644c.085-.403.128-.44.128-.116 0 .325-.043.364-.128.116zm-.392 13.116c.082-.257.125-.213.125.132 0 .344-.037.267-.125-.132zm.125 4.113v-.901l.007-.025a.762.762 0 01-.519-.1c.088.183.153.376.195.575a.626.626 0 00.317.451zm-1.668-8.87c.343 0 .512-.043.512-.125l.007-.025c-.345 0-.512.038-.519.15zm.922 5.218a1.036 1.036 0 01-.41.051l.007-.025c-.345 0-.432.213-.245.669.17-.17.389-.281.625-.318.257-.044.381-.238.381-.583a1.038 1.038 0 01-.358.206zm-.023.601a2.69 2.69 0 01-.069 1.251c-.115.499-.05.816.176 1.029a1.049 1.049 0 01.131-.579c.082-.125.044-.282-.131-.451.175 0 .257.019.257.063 0 .043.088.025.263-.063a1.88 1.88 0 00-.627-1.25zm.382 3.306h-.256v.257h.257v-.257zm.644 2.188c0 .344-.037.27-.118-.152.077-.232.118-.181.118.152zm-.447-1.07a.3.3 0 00.128-.154l.006-.025a.29.29 0 01.239-.166c-.13-.011-.157-.054-.12-.129a.206.206 0 00-.063-.255c0 .192-.067.236-.192.192-.126-.043-.238.019-.32.195.17 0 .213.125.126.382a.307.307 0 00.196-.04zm.702-13.905a3.71 3.71 0 000 1.349 1.25 1.25 0 01-.255-1.281 1.958 1.958 0 000-1.411c.257.388.345.863.243 1.318l.012.025zm-.012-8.457h.627c.186 0 .211-.068.017-.224h-.768c-.089.443-.153.89-.194 1.344-.047.459.02.922.194 1.35a3.125 3.125 0 01.193-1.252c.125-.4.1-.833-.069-1.218zm1.307 2.16c-.005-.23-.065-.343-.23-.36 0 .344.043.513.124.513 0-.154.036-.205.106-.152zm-.743-4.353c.08-.834.165-1.668.255-2.502l-.025.02c.1-.899.274-1.788.52-2.657-.257 0-.388-.067-.388-.193a1 1 0 01.131-.45c.082-.165.146-.336.195-.513.043-.17-.026-.257-.195-.257a.438.438 0 00-.062.382.207.207 0 01-.068.256h-.626V76.4c-.255-.081-.38.088-.38.514h.38c.175.43.15.661-.063.705-.213.044-.318.157-.063.326.257.169.364.169.32 0-.044-.17.113-.257.45-.257a113.998 113.998 0 01-.575 3.408 31.547 31.547 0 00-.45 3.399c-.175 0-.22.025-.131.069.087.044.131.019.131-.07.425-.079.619-.325.575-.706-.045-.38.15-.618.581-.706a.714.714 0 01-.512-.255zm.38-16.314c-.169 0-.169.087 0 .257l-.025.018c.333.174.519.105.544-.275h-.519zm.644 8.48c0-.342-.044-.298-.125.132l-.025.02c.081.256.15.194.15-.151zm.222-.53a.663.663 0 00.098-.43l-.032.018c-.044-.246-.009-.5.1-.725-.256-.17-.369-.132-.325.125.044.255-.063.343-.32.255a.763.763 0 00.132.452.705.705 0 010 .58.663.663 0 00.347-.275zm.521-2.55h-.23c.194-.17.068-.282-.063-.326-.13-.044-.193-.148-.193-.318-.169 0-.213.15-.125.45.088.3.044.45-.132.45 0 .344-.088.47-.257.382v-.257c.088 0 .132-.038.132-.126h.125c.088-.255.063-.43-.062-.516-.126-.09-.15-.257-.063-.514a1.062 1.062 0 00.706-.962 1.063 1.063 0 01.707-.963 5.257 5.257 0 00-.545 2.7zm-.23 0c-.193.17-.237.32-.193.445.045.128-.017.321-.188.58.337.087.493-.02.45-.32a5.556 5.556 0 01-.07-.705zm.131-2.443c0-.257-.088-.257-.255 0l-.027.019c.17.255.282.236.282-.02zm.378-7.561a.226.226 0 00-.008.104l-.007.018a.226.226 0 00.262-.275.227.227 0 00-.247.153zm.369.367c-.08.169-.122.21-.122.124a.119.119 0 00-.132-.132.11.11 0 01.034-.096.113.113 0 01.098-.03.113.113 0 01.121.09.114.114 0 010 .044zm-.122 6.805c.11-.15.178-.326.194-.512l-.006.019c.037-.257-.069-.345-.32-.274 0 .512.044.767.132.767zm.497-.734a.213.213 0 01.078.09l-.007.02c.044.087.063.043.07-.145a.113.113 0 00-.126-.13.118.118 0 00-.114.059.12.12 0 00-.016.071c.04 0 .08.013.115.035zm-.098-2.735l.627-.962-.008.02a1.25 1.25 0 00.157-1.238 54.415 54.415 0 01-.707 1.793 7.12 7.12 0 00-.45 2.057.507.507 0 01.381.131 1.692 1.692 0 000-1.801zm.132-6.412a1.424 1.424 0 01-.132.45h.002l-.027.005c-.105.22-.042.32.157.312.258-.423.258-.68 0-.767zm.576-.707c-.213-.203-.32-.097-.32.32l-.024.006c.441-.012.556-.122.344-.326zm.168 4.314c.175.255.282.218.282-.075 0-.295-.082-.276-.257.069l-.025.006zm.025-.526c.175.263.282.238.326-.063l-.025.006c.044-.293-.082-.274-.301.056zm.388-5.713c0-.3-.043-.282-.131.063l-.038.006c.1.256.17.232.17-.069zm.387 4.688c.166 0 .273-.044.32-.13v-.001l-.025.006c.043-.081-.02-.125-.17-.132a.83.83 0 00-.512 1.025h.513a.768.768 0 00-.126-.768zm0-5.526c0-.087-.088-.131-.257-.131l-.025.006a.256.256 0 00.15.382c.176.088.258.044.258-.131a.113.113 0 01-.126-.126zm.38 4.308c0-.301-.08-.282-.254.062l-.027.007c.177.255.282.23.282-.07zm-.123-5.976c-.088-.175-.069-.282.063-.325l-.025.03c.13-.062.148-.175.081-.367-.169 0-.257-.132-.257-.389 0-.255-.167-.343-.512-.255a50.52 50.52 0 01-.963 2.7c-.3.768-.581 1.524-.838 2.25a140.95 140.95 0 00-.768 2.244 17.47 17.47 0 00-.626 2.832c-.43 0-.688.123-.768.38a10.156 10.156 0 01-.52 4.182 107.264 107.264 0 01-1.536 5.075c-.088.257-.05.382.125.382.174 0 .212.174.13.519a6.784 6.784 0 00-1.03 2.311 14.78 14.78 0 00-.32 2.314 47.255 47.255 0 01-.192 2.376c-.086.81-.258 1.608-.514 2.38.169 0 .257.044.257.126a16.776 16.776 0 00-.45 5.33 24.74 24.74 0 01-.194 5.338c.192 1.212.299 2.436.32 3.663.042 1.413.11 2.888.192 4.431.345.089.432.276.257.575-.17.301-.083.495.261.583a33.86 33.86 0 01-.324-6.939c.132-2.185.11-4.375-.062-6.556.214-.776.344-1.573.386-2.376a6.483 6.483 0 00-.131-2.381c.224-.099.435-.229.626-.38a10.859 10.859 0 01.193-3.345c.244-1.052.35-2.133.32-3.214.343 0 .512-.255.512-.767a.627.627 0 00-.195-.451c-.123-.132-.104-.237.07-.324.08.173.15.217.194.131.043-.088-.025-.131-.195-.131a6.313 6.313 0 00.257-2.314.27.27 0 01.194.07.501.501 0 00.319.062 5.264 5.264 0 01.062-.963 1.382 1.382 0 00-.188-.839.626.626 0 00.382-.767 5.05 5.05 0 01-.125-1.156c.425.088.55.006.38-.257-.167-.263-.167-.388 0-.388a.74.74 0 00.52.125c.168-.167.124-.255-.13-.255-.258 0-.346-.082-.258-.257a.627.627 0 00.575-.38.5.5 0 00-.063-.626 2.84 2.84 0 00-.192.513c-.044.169-.195.255-.451.255-.08-.423-.007-.68.257-.767.261-.088.386-.214.386-.389-.43-.088-.493-.168-.192-.255.299-.088.45-.17.45-.257-.425-.088-.557-.238-.383-.451a.706.706 0 00.125-.705.256.256 0 01.195.063.501.501 0 00.32.062 1.295 1.295 0 01.26-1.35c.339-.357.339-.92 0-1.607.339 0 .513-.037.513-.125.169-.17.194-.45.063-.838a.8.8 0 01.319-.962c.451-.15.581-.37.451-.625a2.331 2.331 0 01-.188-1.026c.08.088.255.088.512 0a2.56 2.56 0 01.038-.88.066.066 0 01-.014.025.07.07 0 01-.024.017.207.207 0 00-.125.157c-.17-.086-.207-.149-.125-.193.081-.044.125-.15.125-.32.125.126.17.214.17.27.068-.312.209-.603.411-.85a.9.9 0 00-.067-1.349.474.474 0 00.58-.125c.134-.185.222-.4.256-.627a4.85 4.85 0 01.194-.769.824.824 0 01.387-.518c-.343.088-.518-.036-.518-.38.175-.176.299-.17.387 0 .087.167.213.167.388 0zm.767-.643c-.08.088-.08.211 0 .386-.167 0-.255-.175-.255-.518 0-.344.132-.47.387-.382a.731.731 0 01-.157.52l.025-.006zm.132-2.189c0-.253-.043-.379-.13-.38h-.001.001l-.025.006a.362.362 0 01-.038.444c-.131.125-.106.187.063.187a.355.355 0 00.13-.257zm.257.707c0-.294-.088-.276-.257.069l-.025.006c.188.255.282.218.282-.075zm-.144 4.95c.158-.084.334-.128.512-.13l-.013.006c.176 0 .176-.082.013-.264-.337 0-.512.132-.512.387zm.512-.13zm.132-1.345c0-.3-.088-.281-.256.063l-.012.006c.167.256.268.23.268-.069zm.257-4.307c-.345 0-.513.044-.513.125l-.012.038c.343 0 .512-.069.525-.163zm0 3.982h.255v-.256h-.255v.256zm0-6.499c.001-.113.01-.152.062-.12.063.037.113 0 .193-.063a.112.112 0 01-.126.132.113.113 0 00-.13.051zm.242 1.74c-.072-.017-.113-.184-.113-.51.17 0 .257.131.257.388-.098-.08-.142-.039-.144.123zm.788-2.435c-.174.257-.15.362.063.32l-.013.004c.213-.036.194-.149-.05-.324zm4.551-10.29c-.042.02-.103.11-.181.27.155.27.255.238.255-.062 0-.127-.015-.196-.046-.21.051-.011.088-.07.109-.177h-.013c.044-.213-.018-.32-.18-.32a.114.114 0 01-.032.094.113.113 0 01-.093.032v.257c.072.074.132.113.181.117zm.028-.001a.094.094 0 01-.028.002.035.035 0 01.028-.002zm.98-2.44a.325.325 0 01.092-.114h-.031c.194-.168.194-.3.031-.412a19.278 19.278 0 00-2.439 3.662 74.37 74.37 0 01-2.186 3.92.113.113 0 00-.125-.131c-.088 0-.132-.082-.132-.257a.294.294 0 00.32-.188.881.881 0 01.192-.324c-.337-.113-.512.087-.512.512a.481.481 0 00-.318.069c-.044.062-.15.062-.326.062-.081-.167-.087-.307 0-.387.088-.08-.043-.125-.38-.125a9.694 9.694 0 01-1.544 3.75 7.381 7.381 0 00-1.288 3.856c.175-.6.343-.943.512-1.03.257.768.282 1.597.07 2.38a9.459 9.459 0 01-.981 1.906.944.944 0 01.38.326.586.586 0 00.512.194v-.387h.264c0-.325-.063-.545-.195-.626-.131-.082-.15-.257-.069-.512l.326-.625c.124-.254.274-.212.45.131a3 3 0 00.512-1.676 1.778 1.778 0 01.388-1.25c-.089.17 0 .257.256.257-.088-.169-.07-.288.062-.325.132-.038.107-.1-.062-.188 0 .087-.044.125-.132.125a.113.113 0 01-.125-.125.544.544 0 01.125-.387c.107-.113.194-.244.257-.387.088.174.175.218.263.13a1.52 1.52 0 00.255-.512c.082-.262.17-.494.257-.713.053-.164.14-.315.257-.443-.088 0-.131-.006-.131-.069s-.082-.063-.257-.063c.069-.169.28-.256.624-.256.176-.325.126-.456-.131-.325-.255.132-.337.113-.255-.062a1.25 1.25 0 00.131-.575c0-.22.168-.326.512-.326a.627.627 0 00-.32.326c-.04.125.109.188.452.188a.418.418 0 00-.069-.625c-.213-.17-.144-.3.193-.389.087.176.15.22.194.132.044-.088-.019-.132-.194-.132a9.699 9.699 0 00.813-2.119 2.006 2.006 0 011.538-1.48 2.286 2.286 0 01.45-2.12 5.65 5.65 0 001.094-1.474c-.09.317-.019.449.193.317.213-.13.15-.23-.193-.318-.114-.261.086-.386.512-.386a.324.324 0 01-.092-.4zm-.165-.62a7.474 7.474 0 00.257-1.875h-.031c0-.556.318-.744.911-.575a3 3 0 01.964-1.93 5.635 5.635 0 001.348-1.897 17.818 17.818 0 00-4.473 6.02.627.627 0 01.45.194.518.518 0 00.574.063zm3.471-6.3c.053-.246.188-.464.385-.62h.119c.17-.167.301-.211.383-.125-.169-.43-.169-.556 0-.387.167.17.174.3 0 .389a.107.107 0 01-.006.05.107.107 0 01-.027.043.111.111 0 01-.093.032h-.257c0 .252-.17.468-.504.617zm-1.283 2.818c.169-.166.255-.291.256-.38.334-.002.43-.084.257-.257-.176-.176-.257-.088-.257.257v-.002m0 .002h-.011.01zm-.256.38h-.131.131zm-.131 0a.114.114 0 01-.05-.005l.05.005zm-.05-.005a.112.112 0 01-.043-.027l.043.027zm-.043-.027a.112.112 0 01-.027-.043l.027.043zm-.027-.043a.114.114 0 01-.006-.05l.006.05zm-.006-.05v-.255.255zm0-.255h.502-.502zm-.14 2.53c-.16-.213-.276-.157-.36.164a.626.626 0 01-.626.518 8.518 8.518 0 011.415-2.188 15.288 15.288 0 001.538-2.057 1.784 1.784 0 01-.832 1.739 2.567 2.567 0 00-1.134 1.824z" clip-rule="evenodd"/></clipPath><path stroke="#073358" stroke-miterlimit="10" stroke-width="18" d="M110.745.619c2.989-.516 6.326-.471 9.106-.116.311.04.668.081 1.062.126 2.331.267 5.94.68 8.765 1.87 3.777 1.59 6.436 4.483 8.326 7.254 1.893 2.775 3.282 5.833 4.322 8.196 1.57 3.569 1.075 7.12.008 9.911-1.053 2.758-2.788 5.148-4.406 6.928-2.653 2.918-6.548 3.652-9.127 3.652-2.094 0-3.782-.664-5.163-1.698a12.452 12.452 0 01-1.403-1.25 25.504 25.504 0 01-.465-.482c-.106-.111-.194-.204-.399-.41a5.624 5.624 0 01-1.298-2.056 6.62 6.62 0 01-.328-1.35 9.975 9.975 0 01-.071-1.692c.015-.418.048-.821.069-1.076l.001-.018.025-.307c-.002-.64-.028-1.152-.092-1.574-.063-.413-.138-.566-.138-.566l.002.002a3.73 3.73 0 00-1.288-1.3 1.936 1.936 0 00-.568-.236.399.399 0 00-.158-.011h-.001c-1.504.334-2.895 1.092-5.015 2.506a2.009 2.009 0 00-.177.158c-.151.147-.301.307-.559.582l-.069.073-.061.065c-.469.502-1.388 1.485-2.621 2.232a2.83 2.83 0 00-.132.14c-.194.22-.41.508-.665.87a8.288 8.288 0 01-1.062 1.219 16.039 16.039 0 01-.484.441c-.671 1.27-1.567 2.324-2.161 3a69.7 69.7 0 01-.895.997c-.338.37-.568.622-.803.928a30.013 30.013 0 00-3.16 5.01c-.71 1.42-1.487 2.805-2.198 4.073l-.194.346c-.696 1.243-1.328 2.385-1.888 3.518l-.03.25c-.034.274-.102.812-.255 1.388a6.499 6.499 0 01-1.157 2.367 4.02 4.02 0 00-.15.348c-.076.197-.153.417-.256.719l-.025.074c-.09.261-.207.605-.333.936-1.2 3.171-2.124 6.3-2.537 9.4-.18 1.347-.495 2.61-.773 3.652l-.245.903a40.486 40.486 0 00-.474 1.848c-.148.669-.24 1.439-.335 2.456l-.048.535a49.406 49.406 0 01-.311 2.843c-.52 3.516-.94 6.926-.94 10.135 0 1.32-.041 2.661-.08 3.924l-.012.418a94.439 94.439 0 00-.06 4.047c.035 2.616.28 4.822.932 6.73.234.683.465 1.249.746 1.934.161.394.338.828.542 1.346.491 1.252 1.036 2.782 1.335 4.539l.065.078c.09.11.269.285.808.604.263.155.536.303.918.509l.112.061c.345.186.771.417 1.218.684.186.028.491.051.957.048a31.58 31.58 0 001.632-.069l.105-.006a32.258 32.258 0 011.883-.074 32.843 32.843 0 012.186.092c.658.04 1.145.063 1.576.055.337-.007.538-.034.641-.053a71.05 71.05 0 001.735-1.499c.261-.231.534-.471.824-.725.978-.854 2.102-1.808 3.335-2.676.656-.462 1.29-1.213 2.122-2.582.184-.303.423-.723.699-1.206.651-1.143 1.503-2.636 2.294-3.759l.429-.606c.656-.924 1.146-1.613 1.548-2.355.45-.829.534-1.292.534-1.546 0-1.166.178-2.257.292-2.951l.002-.013c.136-.831.195-1.2.207-1.523.057-1.466.401-2.718.621-3.504l.057-.202c.216-.77.298-1.06.338-1.375.225-1.806.845-3.375 1.243-4.38l.022-.056c.462-1.168.676-1.73.774-2.29a5 5 0 019.848 1.738c-.286 1.622-.863 3.073-1.238 4.016l-.084.211c-.433 1.095-.591 1.586-.643 2-.14 1.124-.443 2.182-.625 2.817l-.064.224c-.203.724-.249.994-.256 1.186-.038.981-.198 1.95-.302 2.574l-.029.176c-.121.745-.163 1.095-.163 1.352 0 2.544-.864 4.692-1.744 6.315-.72 1.326-1.624 2.594-2.278 3.509l-.316.445c-.548.777-.915 1.432-1.38 2.259-.331.59-.711 1.266-1.241 2.138-1.062 1.747-2.559 3.91-4.912 5.566-.786.552-1.586 1.221-2.509 2.027l-.668.589c-.716.631-1.518 1.339-2.307 1.984-2.28 1.866-4.931 2.139-6.606 2.173-.88.017-1.733-.032-2.382-.072l-.151-.009a24.612 24.612 0 00-1.429-.064c-.322 0-.734.023-1.397.063h-.003c-.597.035-1.368.081-2.154.086-1.331.009-3.854-.051-6.026-1.388a20.478 20.478 0 00-1.089-.612 35.76 35.76 0 01-1.245-.694c-1.025-.606-2.318-1.486-3.459-2.879l-.216-.26-.014-.016c-.067-.08-.163-.194-.254-.308a7.482 7.482 0 01-.828-1.242c-.562-1.071-.747-2.17-.86-2.845l-.007-.041c-.127-.756-.382-1.546-.79-2.585a78.127 78.127 0 00-.353-.874c-.34-.834-.761-1.868-1.088-2.822-1.148-3.358-1.429-6.775-1.469-9.836-.02-1.54.021-3.063.064-4.477l.012-.41c.039-1.288.075-2.474.075-3.633 0-3.99.516-8.01 1.048-11.6a37.08 37.08 0 00.23-2.135c.02-.22.04-.454.064-.702.099-1.068.235-2.374.53-3.701.189-.849.435-1.75.642-2.509l.177-.65c.254-.955.431-1.71.523-2.397.55-4.127 1.742-8.039 3.097-11.617.066-.176.133-.372.238-.68l.012-.034c.101-.294.235-.682.39-1.082a12.1 12.1 0 011.003-2.058l.004-.034c.019-.15.045-.354.082-.576.037-.22.092-.505.177-.818.083-.31.213-.709.42-1.14.766-1.603 1.615-3.133 2.395-4.525l.177-.315c.733-1.308 1.396-2.492 1.995-3.69a40.063 40.063 0 014.187-6.646c.38-.494.794-.963 1.135-1.342l.396-.438c.2-.22.376-.414.572-.637.29-.33.5-.586.653-.797.128-.176.172-.26.174-.262a7.114 7.114 0 011.141-1.77c.35-.402.7-.72.9-.9l.249-.222.055-.049c.561-.793 1.861-2.564 3.649-3.614.009-.012.157-.137.583-.592l.112-.12c.449-.484 1.333-1.436 2.434-2.17 2.262-1.508 4.962-3.188 8.4-3.952 3.035-.675 5.84.145 7.948 1.379a13.723 13.723 0 014.952 5.027c1.469 2.612 1.512 5.594 1.512 7.105l-.002.172c.127-.029.249-.062.362-.1.283-.096.399-.182.417-.195 1.082-1.195 1.98-2.53 2.447-3.751.457-1.196.368-1.886.18-2.315-1.034-2.348-2.107-4.648-3.43-6.588-1.327-1.944-2.637-3.123-3.946-3.673-1.382-.583-3.245-.808-5.649-1.1-.498-.06-1.02-.123-1.565-.192-2.021-.259-4.333-.261-6.139.05-.986.17-2.159.889-4.323 2.307-3.634 2.381-6.604 6.11-9.994 10.367l-.353.443c-2.876 3.608-4.972 7.653-7.179 12.32-3.107 6.57-5.87 13.139-8.113 19.924-.578 1.75-1.002 3.358-1.464 5.113-.29 1.1-.594 2.257-.961 3.543-.463 1.618-1.179 3.064-1.692 4.098l-.029.059c-.562 1.131-.912 1.838-1.147 2.54-.286.859-.42 1.817-.505 3.151-.019.293-.035.638-.054 1.018-.054 1.103-.122 2.5-.29 3.78-.12.91-.139 1.902-.145 3.204l-.002.299c-.004 1.156-.01 2.582-.153 4.008-.325 3.251-.8 7.268-1.924 10.908-.133.43-.213.967-.331 2.007l-.02.18c-.1.889-.25 2.219-.627 3.538-.238.835-.736 1.799-1.13 2.445a9.11 9.11 0 01-1.038 1.403 6.28 6.28 0 01-1.11.965 5.411 5.411 0 01-2.744.933c-5.278.278-10.263.863-15.487 1.734-1.161.193-2.405.302-3.398.389-.275.025-.531.047-.76.069-1.206.116-2.065.245-2.798.469-.348.106-.719.224-1.11.348-1.93.614-4.347 1.382-6.934 1.686a34.92 34.92 0 01-2.004.151c-.181.01-.334.018-.442.026-.65.044-.917.098-1.031.134-2.807.863-5.497 1.78-8.117 2.839-1.02.412-2.243.838-3.285 1.2-.523.182-1 .348-1.383.488-.237.087-.501.22-1.155.562l-.04.02c-.543.284-1.43.747-2.44 1.083l-.019.007-.056.023a4.02 4.02 0 00-.198.094 8.49 8.49 0 00-.612.348c-.495.304-.998.656-1.55 1.044a6.727 6.727 0 01-.846.503 8.594 8.594 0 01-.587.266l-.115.047c-.346.345-.652.594-.799.713l-.023.019c-.213.174-.418.331-.572.449a14.45 14.45 0 00-.155.118l-.156.119a3.73 3.73 0 00-.256.269c-.137.16-.242.303-.299.388a8.783 8.783 0 00-.1.194c-.067.129-.17.331-.263.501l-.002.005c-.032.061-.373.717-.87 1.273-.13.145-.603.671-1.38 1.091-.812.438-3.185 1.31-5.452-.436a5.033 5.033 0 01-1.9-3.207l-.003-.016a5.31 5.31 0 01-.053-1.13c.135-2.295 1.198-4.186 1.784-5.192.317-.544.547-.922.72-1.205.277-.456.407-.67.516-.945.835-2.116 1.64-4.223 2.324-6.277a39.77 39.77 0 01.776-2.053c.082-.205.153-.385.207-.525.278-.72.395-1.125.439-1.395.26-1.626.66-3.495 1.02-5.173.21-.979.407-1.892.553-2.655.187-.976.479-2.079.711-2.957.077-.29.148-.557.206-.786.284-1.12.416-1.85.432-2.392.057-2.009.463-3.9.865-5.481.229-.897.412-1.548.578-2.14.192-.684.361-1.289.553-2.1.18-.758.322-1.504.487-2.367.056-.294.115-.602.18-.928.234-1.2.524-2.586.96-3.978.741-2.374 1.838-4.707 2.76-6.671.186-.396.365-.776.533-1.139 1.086-2.353 1.847-4.25 2.151-6.105.52-3.167 1.504-6.144 2.38-8.74l.162-.48c.847-2.505 1.574-4.657 2.024-6.845 1.026-4.981 2.397-10.348 4.914-15.382.372-.746.727-1.508 1.111-2.34l.116-.25c.344-.744.714-1.547 1.11-2.36.191-.394.342-.87.626-1.839l.027-.092c.243-.83.614-2.096 1.235-3.338.256-.512.544-.98.746-1.301.085-.137.157-.249.22-.348.117-.186.206-.326.305-.493.06-.1.103-.176.134-.232.047-.394.13-1.01.256-1.625.083-.401.223-.997.46-1.604.118-.302.317-.756.638-1.237a5.44 5.44 0 012.087-1.859 5 5 0 016.561 6.982 15.88 15.88 0 00-.101.777c-.199 1.786-1.035 3.233-1.45 3.927-.346.579-.527.855-.647 1.038-.113.173-.172.263-.265.447-.182.364-.332.824-.611 1.775l-.039.132c-.238.816-.6 2.052-1.19 3.264a118.22 118.22 0 00-1.025 2.182l-.114.248c-.385.832-.797 1.72-1.246 2.618-1.927 3.853-3.09 8.2-4.063 12.927-.58 2.819-1.5 5.532-2.305 7.91l-.2.596c-.89 2.635-1.616 4.899-1.988 7.162-.54 3.291-1.817 6.242-2.94 8.676-.227.492-.446.96-.656 1.41-.91 1.942-1.652 3.529-2.172 5.192-.263.841-.469 1.78-.69 2.914-.046.233-.094.481-.143.74a70.195 70.195 0 01-.606 2.937c-.192.81-.496 1.919-.76 2.882a97.79 97.79 0 00-.412 1.526c-.342 1.34-.535 2.392-.56 3.298-.05 1.706-.423 3.333-.735 4.564-.12.475-.228.882-.325 1.248-.195.736-.346 1.305-.464 1.918a130.227 130.227 0 01-.706 3.397c-.302 1.384-.576 2.643-.814 4.13a14.896 14.896 0 01-.63 2.451c.146-.06.296-.119.448-.174a99.746 99.746 0 011.96-.693 46.18 46.18 0 002.403-.878c2.962-1.198 5.938-2.208 8.924-3.126 1.25-.385 2.454-.496 3.288-.553.425-.029.734-.045.99-.059.376-.019.636-.033.972-.072 1.556-.183 2.894-.604 4.765-1.192.47-.148.975-.307 1.525-.475 1.732-.529 3.414-.729 4.762-.859.415-.04.787-.073 1.13-.103.898-.079 1.599-.141 2.342-.265 4.614-.769 9.104-1.337 13.772-1.678.028-.227.058-.486.092-.786l.007-.067c.107-.934.266-2.341.706-3.763.8-2.587 1.204-5.711 1.528-8.95.093-.931.097-1.9.104-3.169v-.193c.007-1.267.02-2.842.231-4.454.112-.855.148-1.598.193-2.527.022-.473.047-.995.086-1.605.103-1.616.303-3.592.998-5.679.465-1.393 1.112-2.692 1.584-3.639l.121-.243c.543-1.093.856-1.777 1.035-2.4.247-.868.506-1.845.78-2.875.528-1.993 1.109-4.186 1.765-6.173 2.407-7.279 5.342-14.238 8.569-21.061 2.255-4.77 4.756-9.707 8.398-14.276l.648-.817c3.107-3.914 7.008-8.83 12.038-12.126l.385-.253c1.647-1.092 4.512-2.99 7.72-3.543zM63.44 100.565zm-29.045-84.29l-.002.002a.118.118 0 01.002-.002zm65.872 8.746l-.008.008.008-.008zm-6.345 88.258l.013.004-.013-.004zm1.495-62.98z" class="squiggle" clip-path="url(#clippy)" clip-rule="evenodd"/></svg>