<svg xmlns="http://www.w3.org/2000/svg" width="400" height="130" viewBox="0 0 255 83">
  <defs/>
  <g fill="#073358" fill-rule="nonzero">
    <path d="M118.182 23.784a.072.072 0 01.08.084c0 .056.056.08.163.08.366-.623.766-1.225 1.198-1.804.435-.588.807-1.22 1.109-1.888a6.672 6.672 0 001.596-1.684 3.308 3.308 0 011.68-1.353 6.656 6.656 0 011.596-1.927 10.946 10.946 0 001.764-1.848 2.702 2.702 0 012.095.168 5.104 5.104 0 011.517 1.353 9.346 9.346 0 011.11 1.887c.268.6.5 1.216.694 1.844a7.81 7.81 0 00.207 1.596 1.197 1.197 0 001.197 1.026 2.207 2.207 0 001.058-.555c.264-.266.543-.518.834-.754a2.989 2.989 0 00.163-1.68 9.21 9.21 0 01-.163-1.764 8.78 8.78 0 00-1.026-2.135 16.31 16.31 0 00-1.285-1.648.702.702 0 01-.614-.287 1.405 1.405 0 00-.535-.451 4.713 4.713 0 01-1.23-.491 3.384 3.384 0 00-1.312-.4 5.375 5.375 0 00-2.175.124c-.739.19-1.494.314-2.255.368a.192.192 0 01-.167.203.774.774 0 00-.327.208c-.165-.11-.261-.137-.288-.084-.028.056-.175.084-.45.084a2.095 2.095 0 01-.452.327.467.467 0 01-.534 0 9.677 9.677 0 00-3.404 2.502 108.266 108.266 0 01-2.75 3.16 5.683 5.683 0 01-1.15 1.8 4.765 4.765 0 00-1.069 1.888 53.37 53.37 0 00-6.277 13.045 114.83 114.83 0 00-3.731 14.606 57.166 57.166 0 01-.287 2.913 11.078 11.078 0 00.04 3.157.148.148 0 01.163-.164.4.4 0 00-.04.287c.028.084 0 .152-.124.208 0-.112-.051-.168-.163-.168a35.967 35.967 0 00-.04 2.957c.045.998.196 1.988.45 2.953-.11.108-.19.148-.247.124-.055-.024-.08 0-.08.12a.678.678 0 01.08.399c.276 0 .4.028.4.084-.22.107-.26.327-.124.654.135.327.068.547-.204.658.177.246.301.524.367.819.082.323.136.653.164.985.027.327.055.643.084.946.01.258.112.504.287.694-.056 0-.084.084-.084.248a7.14 7.14 0 00.619 1.516c.293.562.526 1.153.694 1.764.464.467.866.992 1.197 1.56.301.543.74.996 1.273 1.313-.051 0-.08-.056-.08-.163a15.316 15.316 0 004.96 2.913c2 .687 4.159.757 6.198.203.204-.239.504-.374.818-.367.4-.028.799-.072 1.234-.124a4.55 4.55 0 011.436-.861c.522-.195 1.03-.428 1.517-.699.71-.71 1.34-1.353 1.887-1.927a59.127 59.127 0 011.732-1.74 22.719 22.719 0 012.79-5.168c0-.112-.028-.164-.084-.164-.056 0-.052-.056 0-.167.166-.118.302-.272.399-.451a.3.3 0 00-.084-.451h-.08a2.23 2.23 0 00-.45.862c-.136.399-.316.558-.536.45a8.137 8.137 0 01.902-2.952.946.946 0 00.248.163c.107.056.135-.028.08-.243.055-.056.027-.14-.08-.248-.108-.107-.084-.219.08-.327.05.04.08.1.083.164 0 .052.056.08.164.08.056-.108.056-.18 0-.204-.056-.024-.08-.096-.08-.207.107-.107.24-.107.4 0 .167.111.247.055.247-.164a.45.45 0 00-.367-.243.4.4 0 01-.288-.084.547.547 0 01.244-.491.283.283 0 00-.124-.371c-.136-.08-.092-.148.124-.204a1.7 1.7 0 01.287-.822c.136-.163.152-.463.044-.902.066.06.154.091.243.084.218-.931.423-1.793.615-2.586.2-.824.35-1.66.45-2.502a.215.215 0 01-.243-.247v-.575a3.508 3.508 0 00-.04-.575c-.028-.163-.123-.215-.287-.163.052 0 .068.096.04.287-.028.192-.124.263-.287.208a.495.495 0 01.08-.495c.111-.108.055-.216-.164-.327a36.358 36.358 0 01-1.812 6.468 85.211 85.211 0 01-2.586 5.91 46.078 46.078 0 01-1.64 2.582 13.05 13.05 0 00-1.397 2.666h-.49a10.284 10.284 0 01-1.848 2.259 11.752 11.752 0 01-2.502 1.764 13.76 13.76 0 01-2.993 1.149 8.883 8.883 0 01-3.16.243 6.656 6.656 0 01-3.528-2.214 14.945 14.945 0 01-2.052-3.528 16.685 16.685 0 00-.654-2.794.862.862 0 000-.738.834.834 0 010-.738c-.164-.108-.22-.327-.164-.655.056-.327-.028-.522-.247-.574-.112.163-.192.163-.248 0a.798.798 0 010-.495.144.144 0 01.164.164.148.148 0 00.164.167.559.559 0 01.123-.331.227.227 0 00-.04-.327.63.63 0 00-.123.163c-.028.056-.04.028-.04-.08a1.03 1.03 0 000-.574.587.587 0 01.08-.495c-.108-.056-.164-.068-.164-.04 0 .028-.052.04-.164.04.112.22.096.275-.04.164-.135-.112-.123-.164.04-.164a.16.16 0 00-.08-.243c-.111-.056-.027-.084.244-.084a.798.798 0 00.044-.4.798.798 0 01-.044-.326.076.076 0 01.084.083c0 .056.052.08.163.08a1.923 1.923 0 00-.247-1.229c.056 0 .084 0 .084.04s.052.04.163.04a1.788 1.788 0 01-.123-1.145 1.54 1.54 0 00-.288-1.234.22.22 0 00.248-.247.327.327 0 01.163-.327c-.275.056-.438-.024-.49-.248a.47.47 0 00.327-.08.327.327 0 01.247-.083 3.93 3.93 0 01.08-1.393c.113-.484.141-.983.084-1.476-.164-.056-.248-.056-.248 0 .058-.201.058-.414 0-.615-.055-.14 0-.26.164-.371a.666.666 0 00-.164-.491.623.623 0 01-.083-.575c.111.108.18.124.207.04a.375.375 0 01.204-.203v-.503c-.108-.052-.164-.024-.164.084 0 .107-.056.107-.164 0a.57.57 0 00.288-.535c-.028-.192.175-.311.614-.367-.163-.22-.175-.371-.04-.451.136-.08.152-.287.04-.619-.163 0-.259 0-.287-.04a.351.351 0 00-.203-.04c0 .056 0 .08-.044.08s-.04-.024-.04-.08h.084c.24-.176.425-.418.53-.698.087-.259.143-.526.168-.798.023-.268.063-.535.12-.798.07-.293.207-.566.399-.798a.4.4 0 01-.08-.4.798.798 0 00-.084-.574.798.798 0 00.49-.982.922.922 0 01.496-1.07c.05-.164.05-.26 0-.286a.4.4 0 01-.164-.204c.108-.271.204-.507.287-.698.097-.304.138-.623.12-.942.428-.72.72-1.513.862-2.339a7.151 7.151 0 01.798-2.258 1.197 1.197 0 01.327-1.23c.337-.312.488-.777.4-1.228a49.611 49.611 0 002.294-4.721 38.022 38.022 0 012.299-4.554c-.052 0-.108-.067-.164-.203-.056-.136-.032-.136.08-.08zm-13.293 30.851c.052-.219.08-.231.08-.043 0 .187-.016.207-.08.043zm0-.822c.052-.163.08-.163.08 0 0 .164-.016.164-.08 0zm.164 8.289h-.164v-.236h.164v.236zm27.403-.248c0 .164-.056.136-.163-.083.107-.108.163-.08.163.095v-.012zm-2.542 5.743v-.08c.108 0 .148.024.12.08a.26.26 0 01-.12.124.303.303 0 01-.123.04c-.028 0 .012-.056.123-.164zm-1.07 1.684c.276-.467.603-.643.987-.535a.874.874 0 01-.491.451.4.4 0 00-.248.535c-.163-.112-.299-.068-.399.124-.089.163-.199.315-.327.45.117-.36.278-.704.479-1.025zm-2.13 3.28c0 .192-.056.208-.164.04.108-.22.164-.231.164-.04zm-17.958-1.995a.898.898 0 01.248.658c.215 0 .259.04.123.124-.135.084-.18.04-.123-.124-.164 0-.248-.067-.248-.203v-.455zm-.399-6.07c.056-.22.084-.231.084-.04 0 .192-.052.204-.108.024l.024.016zm.164-.163c-.216 0-.328-.164-.328-.495.196-.016.304.151.304.479l.024.016zm.738-14.686c0 .056-.08.08-.244.08-.023-.068.056-.096.22-.096l.024.016zm10.3-32.084c.135-.052.175-.136.123-.244.052 0 .08.108.08.327-.108 0-.163.028-.163.084-.188-.072-.2-.127-.064-.183l.024.016zm-.639.97c.164-.164.216-.312.164-.452-.052-.14.052-.259.327-.367 0 .491-.164.767-.49.818zm-5.702 6.728c.08-.29.215-.56.399-.799.195-.247.399-.506.574-.798.177-.238.304-.51.371-.798a.854.854 0 00.531-.614c.071-.276.235-.52.463-.69.164.055.192.179.08.366a.798.798 0 000 .699c-.108.056-.164-.052-.164-.327a2.897 2.897 0 01-.327.399c-.112.107-.22.22-.327.327.05.112.118.112.203 0 .085-.112.181-.112.288 0 .052.275-.028.399-.248.367a.798.798 0 01-.49-.204c0 .547-.112.85-.328.902 0 .056.133.084.4.084a3.5 3.5 0 01-.512.579 1.15 1.15 0 00-.287.902c-.22 0-.343.04-.371.123a2.219 2.219 0 01-.124.288.986.986 0 01-.131-.806zm-4.35 10.419a216.19 216.19 0 001.68-4.593c.275.056.343.191.207.399a.678.678 0 00-.123.575h-.328c.051.218.051.35 0 .399-.055.055-.055.195 0 .399a.499.499 0 00-.33-.08 3.384 3.384 0 01-.244 1.065c-.137.29-.247.592-.327.902.106.054.191.14.243.248.054.114.02.25-.08.327-.163-.108-.275-.136-.331-.084a.998.998 0 00-.164.331c-.052.16-.093.325-.123.491a.4.4 0 01-.204.327.26.26 0 00.248.164c.107 0 .107.112 0 .331a.32.32 0 01-.208-.044.18.18 0 00-.12-.04c-.04.325-.124.643-.247.946a.946.946 0 000 .798.798.798 0 00-.4.367 1.197 1.197 0 00-.083.451c0 .168-.028.335-.08.495a.49.49 0 01-.327.327 34.954 34.954 0 011.34-4.501zm1.353-1.804c-.22.056-.3 0-.248-.163h.248c.22.056.22.107 0 .163zm-.328.491c0 .275-.083.4-.247.4 0-.26.096-.4.247-.4zm-3.076 8.041c.175-.477.298-.972.367-1.476h.163v-.4a.215.215 0 01.244-.243c.112.218.112.351 0 .4a.543.543 0 00-.244.247c.052.163.108.191.164.083.056-.107.108-.083.164.08 0-.107.028-.163.08-.163-.052-.272-.028-.355.083-.248.112.108.08.196-.084.248 0 .111-.027.163-.08.163-.343.359-.559.82-.614 1.313-.085.555-.209 1.103-.371 1.64a3.08 3.08 0 01.128-1.644zm-.699 3.12a.866.866 0 00.164-.33c.22.056.26.14.124.247-.136.108-.176.22-.124.327-.164-.107-.216-.187-.164-.243zm-.08.655c.052-.056.052-.163 0-.327.163 0 .23.096.204.287-.027.192-.122.288-.287.288a.34.34 0 01.083-.248zm-.167.491a.164.164 0 01.247-.08c.056.108.04.164-.04.164s-.123.056-.123.164a.164.164 0 01-.084-.248zm0 1.11c0 .191-.028.203-.08.04.052-.216.08-.232.08-.04zm-.204 1.105c.081-.09.097-.22.04-.327a.291.291 0 01.164.287.4.4 0 01-.08.287c-.164-.04-.207-.135-.124-.247zm0 .906c-.028.163-.067.163-.123 0 .111-.164.151-.164.123 0zm.575 16.86a.854.854 0 00-.124-.535c.118.123.191.282.208.451.034.215.103.423.203.615-.22-.22-.315-.395-.287-.53zm-.371-.946c0-.107.028-.163.084-.163.056 0 .083-.056.083-.164.052 0 .08.108.08.327h-.247zm.618-3.28a.49.49 0 00-.123-.658c.271-.052.355 0 .243.123-.112.124-.052.208.168.208.108-.056.135-.112.08-.164-.056-.052-.052-.14 0-.247.09.09.185.172.287.247.084.052.096.188.04.4h-.327c.168.3.199.66.083.985 0 .056.04.084.124.084.084 0 .12-.028.12-.084.106.172.136.38.084.575a2.095 2.095 0 00-.084.658c-.052.108-.108.136-.164.08-.056-.056-.108-.028-.163.084-.164 0-.232-.056-.204-.164a.347.347 0 00-.124-.331c.164-.108.248-.124.248-.04 0 .084.052.148.163.203.112.056.152-.067.124-.203a1.9 1.9 0 01-.044-.371.682.682 0 01-.203.084 1.656 1.656 0 01-.288-.084.758.758 0 01.08-.327c.056-.108-.052-.136-.327-.08l.124-.248c.029-.055.125-.083.287-.083-.275-.212-.34-.411-.204-.647zm.368-2.215c0-.107-.052-.151-.164-.123-.107.027-.217.04-.327.04.106-.267.174-.43.203-.491.028-.056-.04-.136-.203-.248h.399a11.377 11.377 0 01-.044-3.731c.19-1.21.313-2.428.371-3.651a.188.188 0 01.204.123c.047.11.118.208.207.288a1.277 1.277 0 00-.207.45c-.012.238.03.476.123.695-.107-.108-.175-.136-.203-.08l-.124.248c.164.107.22.22.164.327-.056.108-.028.271.083.49h-.33c.105.256.175.524.207.799a.842.842 0 01-.288.698c.124.226.18.482.164.738a.958.958 0 01-.164.659c.182.323.24.702.164 1.065a2.47 2.47 0 01-.247.986c.273.594.303 1.272.083 1.888-.22 0-.399-.164-.574-.495 0-.165.096-.261.287-.288.204-.043.271-.167.216-.387zm.658-10.176c.108 0 .164 0 .164.044s.028.04.08.04c-.108.056-.136.18-.08.367.056.188 0 .264-.164.208a1.389 1.389 0 000-.659zm.08-.243a.192.192 0 01.124-.208c.083-.024.151 0 .203.124.052.124-.108.084-.327.084zm0 1.313a.16.16 0 00.084.243c0 .112-.164.164-.495.164a3.74 3.74 0 00.247-.57c.164 0 .22.051.164.147v.016zm.163 6.385a.072.072 0 01-.08.084h-.163c-.056-.108-.056-.18 0-.208.056-.028.08-.092.08-.204.056 0 .068.056.04.164-.028.108.016.176.111.176l.012-.012zm-.08-.798a.072.072 0 00-.083.08c-.052 0-.08-.08-.08-.244a.148.148 0 01.164.148v.016zm-.083-.4c.056-.266.084-.293.084-.083 0 .21-.028.233-.084.068v.016zm-.248 8.365c.052-.164.08-.136.08.084 0 .22-.024.171-.08-.084zm.08 2.051v.575a.4.4 0 01-.203-.288 1.596 1.596 0 00-.124-.367c.1.06.217.083.331.064l-.004.016zm-.738-5.168c0 .052-.108.08-.327.08.004-.072.111-.096.331-.096l-.004.016zm0 3.444a.666.666 0 00.49-.164c0 .22-.079.344-.243.372a.722.722 0 00-.399.203c-.12-.291-.064-.427.156-.427l-.004.016zm.203 1.15c.077-.26.092-.533.044-.799.231.205.374.49.4.798-.112.056-.168.068-.168.04 0-.028-.052-.04-.164-.04.112.108.136.208.084.288a.67.67 0 00-.084.37c-.147-.139-.187-.346-.108-.674l-.004.016zm.124 1.312h.164v.164h-.164v-.164zm.495 1.313c.052-.163.08-.135.08.084 0 .22-.024.172-.076-.1l-.004.016zm-.124-.698a.192.192 0 01-.207.124c.056-.164.028-.244-.08-.244.052-.112.124-.152.204-.124.08.028.123 0 .123-.123a.132.132 0 01.04.163c-.028.056 0 .084.124.084a.188.188 0 00-.2.104l-.004.016zm.367-8.78a2.37 2.37 0 000 .862.798.798 0 01-.163-.818c.112-.29.112-.611 0-.901.164.248.22.551.155.842l.008.016zm.392-5.399h-.4c.108.246.124.522.044.778a1.995 1.995 0 00-.123.799 1.796 1.796 0 01-.124-.862c.026-.289.067-.575.124-.858h.49c.124.1.108.143-.011.143zm.45 1.393c-.055-.053-.083-.025-.083.084-.052 0-.08-.108-.08-.327.112.011.148.091.148.255l.015-.012zm-.327-4.39a142.92 142.92 0 00-.163 1.597c.081.097.2.157.327.163-.275.056-.4.208-.371.451.028.243-.096.4-.367.451 0 .056-.028.072-.084.044-.056-.028-.028-.044.084-.044a20.14 20.14 0 01.287-2.17c.136-.738.258-1.463.367-2.176-.215 0-.315.056-.287.164.028.108-.04.108-.204 0-.163-.108-.096-.18.04-.208.136-.028.152-.175.04-.45h-.243c0-.272.08-.38.243-.328v.327h.4a.132.132 0 00.043-.163.28.28 0 01.04-.244c.108 0 .152.056.124.164-.031.113-.072.222-.124.327a.639.639 0 00-.084.288c0 .08.084.123.248.123a10.424 10.424 0 00-.332 1.696l.016-.012zm.08-8.655c-.108-.108-.108-.164 0-.164h.331c-.016.243-.135.287-.347.176l.016-.012zm.331 5.335c.052-.275.08-.303.08-.084 0 .22-.044.26-.096.096l.016-.012zm.284-.698a.423.423 0 01-.284.45.45.45 0 000-.37.487.487 0 01-.084-.288c.164.056.232 0 .204-.163-.028-.164.044-.188.208-.08a.754.754 0 00-.064.463l.02-.012zm.287-1.353h-.164c.005.151.02.302.044.45.028.192-.072.26-.287.204.109-.165.149-.288.12-.37-.028-.08 0-.176.123-.284.124-.108.044-.18-.04-.208-.083-.028-.123-.095-.123-.203-.108 0-.136.096-.08.287.056.192.028.288-.084.288 0 .219-.056.299-.164.243v-.164c.056 0 .084-.024.084-.08h.08c.056-.163.04-.275-.04-.33-.08-.057-.096-.164-.04-.328a.678.678 0 00.451-.614.678.678 0 01.451-.615 3.356 3.356 0 00-.347 1.736l.016-.012zm-.243-1.56c.107-.164.163-.164.163 0 0 .163-.072.175-.18.012l.017-.012zm.399-4.761a.144.144 0 01.163-.164.144.144 0 01-.167.176l.004-.012zm.243.163c-.052.112-.08.14-.08.084a.076.076 0 00-.084-.084.072.072 0 01.084-.08.072.072 0 01.076.092l.004-.012zm.044 4.023a.642.642 0 01-.124.327c-.056 0-.084-.163-.084-.49.16-.045.228.011.204.175l.004-.012zm.243-.084a.136.136 0 00-.123-.08.076.076 0 01.083-.083.072.072 0 01.08.083c-.004.12-.016.148-.044.092l.004-.012zm.288-2.418l-.4.614c.221.352.221.798 0 1.15a.323.323 0 00-.243-.084c.03-.45.127-.892.287-1.313.136-.327.288-.71.451-1.145a.798.798 0 01-.1.79l.005-.012zm-.4-3.193a.91.91 0 00.084-.287c.165.056.165.22 0 .49-.127.005-.167-.059-.1-.199l.017-.004zm.248-.534c0-.266.068-.334.204-.204.135.13.062.2-.22.208l.016-.004zm.327 2.546c.112-.22.164-.232.164-.044 0 .187-.068.211-.18.048l.016-.004zm.208-.372c-.028.192-.096.208-.208.04.14-.211.22-.223.192-.036l.016-.004zm-.044-3.567c.056-.22.084-.232.084-.04s-.044.207-.108.044l.024-.004zm.535 2.87c-.03.055-.098.083-.204.083a.49.49 0 01.08.49h-.327a.53.53 0 01.327-.654c.096.004.136.032.108.084l.016-.004zm-.368-3.529c.108 0 .164.028.164.084a.072.072 0 00.08.08c0 .112-.052.14-.164.084a.164.164 0 01-.096-.244l.016-.004zm.244 2.874c.112-.22.163-.232.163-.04 0 .191-.067.207-.18.044l.017-.004zm.124-4.063c-.084.028-.096.096-.04.208-.112.107-.192.107-.248 0-.056-.108-.135-.112-.247 0 0 .22.112.299.331.243a.527.527 0 00-.247.331c-.055.16-.096.325-.124.491a.91.91 0 01-.164.4.303.303 0 01-.37.08.575.575 0 01.043.861 1.3 1.3 0 00-.263.543c0-.036-.028-.092-.108-.172 0 .108-.028.176-.08.204-.052.028-.028.068.08.123a.132.132 0 01.08-.1.044.044 0 00.024-.027c-.04.184-.049.375-.024.562-.164.056-.276.056-.327 0-.01.225.031.448.12.655.083.163 0 .303-.288.399a.51.51 0 00-.204.614c.084.248.068.427-.04.535 0 .056-.111.08-.327.08.216.439.216.798 0 1.026a.826.826 0 00-.167.862.32.32 0 01-.204-.04.164.164 0 00-.124-.04.45.45 0 01-.08.45c-.111.136-.027.232.244.288 0 .056-.096.108-.287.164-.192.056-.152.107.123.163 0 .112-.08.192-.247.248-.168.056-.215.22-.164.49.164 0 .26-.055.288-.163.03-.113.072-.222.123-.327a.32.32 0 01.04.399.4.4 0 01-.367.243c-.056.112 0 .164.164.164.163 0 .191.056.084.163a.475.475 0 01-.332-.08c-.107 0-.107.08 0 .248.108.168.028.22-.243.164a3.22 3.22 0 00.08.738.4.4 0 01-.244.49c.096.162.138.349.12.535a3.364 3.364 0 00-.04.615.32.32 0 01-.203-.04.172.172 0 00-.124-.044 4.03 4.03 0 01-.164 1.477c.108 0 .152.028.124.084-.028.055-.072.027-.124-.084-.111.056-.123.123-.044.207a.4.4 0 01.124.288c0 .327-.108.49-.327.49.02.69-.048 1.38-.204 2.052a6.932 6.932 0 00-.123 2.135c-.122.097-.257.18-.4.243.122.497.15 1.013.084 1.52a7.08 7.08 0 01-.247 1.517c.11 1.393.124 2.791.04 4.186a21.613 21.613 0 00.207 4.43c-.22-.056-.276-.18-.167-.372.112-.191.056-.31-.164-.367-.052-.985-.096-1.927-.123-2.829a16.729 16.729 0 00-.204-2.339c.164-1.128.206-2.27.124-3.408-.087-1.142.01-2.291.287-3.403 0-.052-.056-.08-.164-.08a7.27 7.27 0 00.328-1.52c.056-.52.095-1.026.123-1.517.029-.497.097-.99.204-1.477.125-.529.348-1.03.658-1.476.052-.22.028-.331-.083-.331-.112 0-.136-.08-.08-.244.327-.984.654-2.064.981-3.24a6.485 6.485 0 00.332-2.67c.051-.164.215-.243.49-.243a11.15 11.15 0 01.4-1.808c.163-.491.327-.97.49-1.433.164-.463.344-.946.535-1.436.192-.491.4-1.066.615-1.724.22-.056.327 0 .327.163 0 .164.056.248.164.248.043.123.031.195-.052.235l.016-.02zm.45-.203c-.051.056-.051.135 0 .247-.107 0-.163-.112-.163-.331 0-.22.084-.3.247-.244a.467.467 0 01-.1.332l.017-.004zm0-1.64c.056 0 .084.08.084.243a.227.227 0 01-.083.164c-.108 0-.124-.04-.04-.12a.231.231 0 00.024-.283l.016-.004zm.084.738c.108-.22.164-.232.164-.044 0 .187-.06.211-.18.048l.016-.004zm.4 3.033a.726.726 0 00-.328.083c0-.163.112-.247.327-.247.104.116.104.168-.008.168l.008-.004zm-.08-.818c.107-.22.163-.232.163-.04 0 .191-.064.207-.171.044l.008-.004zm0-2.71c0-.052.107-.08.327-.08-.008.06-.116.104-.335.104l.008-.024zm.49 2.462h-.163v-.163h.163v.163zm-.163-4.102c0-.108 0-.148.04-.124.04.024.072 0 .123-.04a.072.072 0 01-.08.084.072.072 0 00-.091.084l.008-.004zm.163 1.065c-.051 0-.08-.107-.08-.327.108 0 .164.084.164.248-.064-.052-.092-.024-.092.083l.008-.004zm.535-1.352c-.136.027-.151-.04-.04-.204.156.112.168.184.032.207l.008-.003zm2.75-6.601c.107-.22.163-.231.163-.04 0 .192-.064.212-.163.04zm.203-.287c-.028.14-.096.151-.203.04v-.164a.072.072 0 00.08-.08c.103 0 .143.068.115.204h.008zm.615-1.517a.208.208 0 000 .328c-.272 0-.4.08-.327.247.219.056.259.12.123.203-.135.084-.18 0-.123-.203-.18.35-.416.668-.699.942a1.46 1.46 0 00-.287 1.353c-.482.1-.863.468-.982.945a6.19 6.19 0 01-.519 1.353c.112 0 .152.028.124.084-.028.056-.068.028-.124-.084-.215.056-.259.14-.123.248a.267.267 0 01.044.399c-.219 0-.314-.04-.288-.12a.4.4 0 01.204-.208c-.22 0-.327.068-.327.208a.798.798 0 01-.084.367c-.052.112 0 .124.163.04.164-.084.196 0 .084.207-.22 0-.355.056-.399.164.112 0 .164 0 .164.04s.028.044.084.044a.774.774 0 00-.164.283c-.056.14-.112.288-.164.455a.97.97 0 01-.163.327c-.056.056-.112.028-.168-.083a.854.854 0 01-.164.247.347.347 0 00-.08.247.072.072 0 00.08.08c.056 0 .084-.024.084-.08.108.056.124.096.04.12-.084.024-.096.1-.04.208-.163 0-.22-.056-.163-.164-.181.225-.27.51-.248.798 0 .381-.114.754-.327 1.07-.112-.219-.208-.246-.287-.084l-.208.399c-.052.163-.04.275.044.327.084.052.124.192.124.4h-.168v.247a.375.375 0 01-.327-.124.603.603 0 00-.243-.208c.254-.38.464-.789.626-1.217.136-.5.12-1.029-.044-1.52-.108.056-.215.275-.327.658a4.713 4.713 0 01.822-2.462c.494-.72.83-1.536.986-2.394.215 0 .299.028.243.08-.056.051-.052.14 0 .247.112 0 .18 0 .208-.04a.307.307 0 01.203-.044c0-.271.112-.399.327-.327a.563.563 0 00-.123.207.188.188 0 01-.204.12c0 .112.028.164.084.164a.072.072 0 01.08.084c.49-.823.957-1.653 1.396-2.503.428-.836.95-1.62 1.557-2.338.104.072.104.156-.02.263h.02zm0-1.52a4.789 4.789 0 01-.164 1.197.331.331 0 01-.367-.04.4.4 0 00-.287-.124 11.373 11.373 0 012.869-3.855c.033-.158.12-.299.247-.399h.076c.108-.107.192-.135.244-.08-.108-.275-.108-.355 0-.247.107.108.111.192 0 .248a.072.072 0 01-.08.08h-.164c0 .163-.112.303-.331.398-.2.464-.495.88-.866 1.222-.35.32-.57.76-.615 1.233-.379-.108-.582.012-.582.367h.02zm1.396-1.27c0 .057-.055.137-.163.244h-.084a.072.072 0 01-.08-.08v-.163h.327c0-.22.052-.276.164-.164.112.112.048.164-.171.164h.007zm-.399 1.641c-.111-.164-.191-.136-.247.08a.4.4 0 01-.4.331c.228-.51.532-.98.903-1.397.363-.409.692-.848.982-1.313.055.442-.152.876-.531 1.11a1.64 1.64 0 00-.727 1.189h.02z"/>
    <path d="M112.723 29.323c-.028-.192-.096-.231-.204-.124a2.65 2.65 0 01.164-.822c-.112 0-.164-.024-.164-.08.108 0 .164.028.164.08.1-.31.253-.6.45-.858.21-.283.364-.604.452-.946a.798.798 0 01-.575.248c-.108 0-.164.108-.164.327 0 .112.04.14.124.084a.172.172 0 00.04-.247.32.32 0 01-.04.45 1.137 1.137 0 01-.535.288.34.34 0 00.084.247c.052.056.028.136-.084.244a.072.072 0 01-.08-.08.076.076 0 00-.083-.084c-.052.112-.124.247-.204.4-.08.15 0 .302.204.398a.635.635 0 01-.575.244c-.108 0-.151.071-.124.207.028.136 0 .204-.04.204.216.001.429-.055.615-.164.192-.108.343-.052.451.164.112.08.152.012.124-.18zM111.86 29.61a2.578 2.578 0 01-.287.575c-.09.236-.104.494-.04.738.112-.163.26-.399.452-.698.191-.3.151-.507-.124-.615zM10.982 52.748a.475.475 0 01-.163.327c-.054.421-.224.82-.491 1.15.107.055.163.219.163.49a.71.71 0 00-.203.4 1.572 1.572 0 01-.124.398c.164.164.287.18.367.04a.351.351 0 01.288-.203.212.212 0 01-.08.287c-.112.08-.056.096.163.04-.111-.435-.056-.738.164-.902a.798.798 0 00.247-.822.351.351 0 00-.287.164c-.085.111-.18.111-.287 0l.49-.491c0 .112 0 .163.04.163s.044.056.044.164c.216-.164.232-.287.04-.367-.191-.08-.263-.208-.207-.371.331.056.495-.136.495-.575h-.248c0 .08-.135.108-.41.108zm-.49 2.394c.107-.22.163-.22.163 0s-.056.204-.164-.016v.016z"/>
    <path d="M12.295 50.038c0 .276-.08.36-.243.248-.164-.112-.304-.108-.4 0a4.88 4.88 0 01-.247 1.229c-.161.372-.353.73-.574 1.07.195-.024.393.003.574.08v-.244a.45.45 0 00.287.163c.084 0 .124-.135.124-.399-.112 0-.18.028-.207.08-.028.052-.068.028-.12-.08-.052-.108.068-.163.203-.163a.4.4 0 00.288-.084c.108-.272.056-.4-.164-.4a.555.555 0 01-.163.4 1.868 1.868 0 01.163-.798.862.862 0 00.08-.615c.22-.108.287-.068.208.124-.08.191 0 .231.203.12a.36.36 0 01.084-.4c.096-.111.068-.219-.096-.33zM184.147 58.163c.012-.309.111-.608.287-.862.192-.3.231-.535.12-.698a2.08 2.08 0 01-.327.778.798.798 0 00-.08.782zM19.845 72.685a.34.34 0 00.367-.04.223.223 0 01.288-.044.28.28 0 01.084.208c0 .08.051.095.163.04v-.164c-.163 0-.163-.084 0-.247v.247c.108.056.192 0 .248-.164.055-.163.135-.14.243.08a.838.838 0 01.619-.243.722.722 0 00.614-.4l-1.353.248a5.008 5.008 0 00-1.273.479z"/>
    <path d="M198.086 47.385a.36.36 0 010 .071c0 .136-.028.18-.084.124l-.164.164a2.993 2.993 0 00-.53-.946 1.153 1.153 0 00-1.197-.287 227.043 227.043 0 00-5.66 6.385 33.094 33.094 0 01-6.484 5.842v-.327c-.112.107-.191.163-.247.163.388-1.25.896-2.46 1.516-3.611A36.453 36.453 0 01187 52.089a6.784 6.784 0 001.026-1.312c.243-.434.65-.751 1.129-.882-.112-.164-.136-.272-.084-.328l.248-.247a6.812 6.812 0 001.847-1.596 5.451 5.451 0 012.255-1.597.435.435 0 01.371.168.295.295 0 00.367.08c.112 0 .164-.04.164-.124 0-.084.056-.068.163.044a1.596 1.596 0 000-1.233 2.127 2.127 0 00-.738-.798 8.444 8.444 0 00-1.105-.619 10.284 10.284 0 01-1.026-.53 1.995 1.995 0 01-.738.287c-.301.031-.604.044-.906.04a34.168 34.168 0 00-5.487 6.161c-.251.108-.499.208-.746.32a211.037 211.037 0 01-6.932 2.996 61.978 61.978 0 01-7.223 2.459 30.636 30.636 0 01-8.165 1.025 4.258 4.258 0 01-1.72-1.229c.164-1.696.687-2.845 1.557-3.444a2.366 2.366 0 001.197 1.64c.715.29 1.498.375 2.258.244a9.334 9.334 0 003.592-2.215c1.002-1 2.068-1.933 3.192-2.793a6.385 6.385 0 00.659-3.488 3.568 3.568 0 00-1.724-2.83 9.577 9.577 0 00-3.404.575c-1 .378-1.95.874-2.833 1.477a15.735 15.735 0 00-2.275 1.907 25.97 25.97 0 01-3.959.798 6.916 6.916 0 01-5.004-1.313 24.299 24.299 0 00-4.182-.798 4.789 4.789 0 00-3.695 1.11 13.205 13.205 0 00-1.477 1.56 13.17 13.17 0 01-1.476 1.556 3.5 3.5 0 01.083-1.392c.108-.332.272-.799.491-1.397a3.192 3.192 0 00-1.476-.738 43.603 43.603 0 00-1.888-.328 131.556 131.556 0 00-1.927 9.23 425.594 425.594 0 01-1.684 9.231l1.233 1.23c.356.368.812.625 1.313.737a4.996 4.996 0 001.516-2.17c.292-.812.498-1.652.615-2.507a42.256 42.256 0 001.807-4.182 36.714 36.714 0 011.852-4.21 18.097 18.097 0 012.422-3.568 8.715 8.715 0 013.612-2.422c.926.331 1.9.699 2.909 1.11 1.025.413 2.082.743 3.16.985 1.071.24 2.169.336 3.265.288a10.376 10.376 0 00-1.05 3.156 8.696 8.696 0 00.164 3.775 5.986 5.986 0 001.927 2.993c.958.822 2.288 1.233 3.991 1.233a17.32 17.32 0 005.415-1.065 98.04 98.04 0 014.761-1.724c.108-.164.327-.467.655-.902a.882.882 0 00.822.08c.262-.1.51-.235.738-.4-.22.057-.327-.023-.327-.243.215-.107.423-.207.614-.287.199-.09.379-.215.531-.371-.216-.108-.327-.188-.327-.244.233-.31.598-.493.985-.494.406-.016.762-.274.902-.655.164.056.248.152.248.287 0 .136.107.176.327.12a.435.435 0 00-.164-.367c-.111-.084-.135-.231-.083-.45.93-.44 1.915-.875 2.953-1.314.183-.076.359-.167.53-.255a18.516 18.516 0 00-1.923 6.245c.51.595.8 1.347.822 2.131.271.112.399.275.327.495.268.217.574.383.902.49.327.109.63.22.902.328a8.456 8.456 0 003.611-1.433 20.695 20.695 0 002.87-2.462 48.174 48.174 0 002.546-2.833 24.798 24.798 0 012.625-2.706 54.977 54.977 0 01-.247 2.993 58.232 58.232 0 00-.247 2.913c-.055.917-.027 1.838.083 2.75.102.88.38 1.731.819 2.502.249.05.47.193.618.399.11.197.264.365.451.49.262-.107.556-.107.818 0-.052-.27 0-.366.124-.286a.523.523 0 00.45.043 1.329 1.329 0 01-.366-1.069c.028-.435-.096-.71-.372-.798 0-.112.044-.152.124-.124.08.028.124 0 .124-.124-.164-.111-.22-.231-.164-.367.054-.145.081-.3.08-.455h.247a4.653 4.653 0 01-.08-2.621c.216-.987.406-2 .571-3.037v-.084a1.173 1.173 0 01-.12-.738 1.065 1.065 0 01.204-.655c-.112.22-.084.327.084.327.002-.73.07-1.457.203-2.175.136-.738.232-1.42.288-2.05a3.74 3.74 0 00-.204-1.68 1.62 1.62 0 00-1.125-.954zm-53.363.071a.36.36 0 00.04-.207c.108 0 .164.112.164.331h-.243a.164.164 0 01.04-.124zm-.698.531c.108-.108.136-.052.084.164a.487.487 0 00.243-.655c.108 0 .164.04.164.124 0 .084.056.124.168.124a1.72 1.72 0 00-.288.367c-.084.14-.18.151-.287.04-.168 0-.196-.052-.084-.164zm-2.091 3.572c.08-.136.176-.18.287-.124a.555.555 0 00-.123.164.57.57 0 01-.124.163c-.112 0-.124-.068-.04-.203zm-.287 1.476a.443.443 0 00.163-.37c.164.11.192.207.08.286a.212.212 0 00-.08.288c-.22-.052-.275-.124-.143-.204h-.02zm-.164 1.596c-.056 0-.084 0-.084-.043 0-.044-.028-.04-.08-.04-.051 0 0-.08.04-.08s.04-.028.04-.084c0-.056.084 0 .084.04s.052.044.164.044l-.164.163zm.615-1.197a.599.599 0 01-.371.451.686.686 0 01.207-.574.954.954 0 00.287-.575.188.188 0 01.04.203c-.028.084 0 .124.124.124a.4.4 0 00-.287.383v-.012zm3.324-5.702c.052.22.04.367-.044.45a.503.503 0 00-.124.368c-.266 0-.399.028-.399.084-.163-.108-.14-.192.08-.248.22-.056.3-.163.247-.327-.22-.056-.427.068-.614.367a5.304 5.304 0 00-.451.862h.164a.327.327 0 01.163-.327.335.335 0 00.164-.327c.22.107.247.231.084.367-.122.11-.256.207-.4.287-.257.57-.559 1.12-.901 1.644a14.163 14.163 0 00-.906 1.556c-.056-.051-.08-.191-.08-.399-.112 0-.18.072-.208.208-.028.136-.095.203-.203.203.032-.33.161-.644.371-.901.206-.26.333-.573.367-.902a.4.4 0 00-.203.327c-.028.164-.124.22-.288.164a.982.982 0 01.367-.739.615.615 0 00.208-.738c.11-.11.234-.206.367-.287a.4.4 0 00.208-.367c.05-.056.09-.084.12-.084.027 0 .067-.056.123-.164a.212.212 0 00-.227.136c.067-.232.347-.455.842-.67a2.25 2.25 0 001.197-1.026.666.666 0 00-.084.287.28.28 0 01-.084.208h.168c0-.056.024-.084.08-.084.055 0 .004.028-.104.084v-.012zm.327-.164h-.164v-.247h.164v.247zm.08-.331c0-.052 0-.08.044-.08s.04-.028.04-.084h.247c0 .124-.104.176-.331.176v-.012zm.084-.4a.479.479 0 01-.164.332c-.112-.108-.18-.18-.207-.207-.028-.028-.12 0-.288.123-.108-.327 0-.463.331-.399.332.064.52 0 .575-.163.052 0 .08.083.08.247-.22-.068-.327-.04-.327.068zm.902-.326c.107-.216.247-.328.399-.328.012.12-.128.22-.4.328zm19.554-.982a9.254 9.254 0 013.898-1.971.164.164 0 01.04-.124.307.307 0 00.044-.204c.108 0 .164.04.164.124 0 .084.08.124.243.124a8.404 8.404 0 01-3.364 4.222 22.79 22.79 0 01-5.084 2.258.89.89 0 01.655-.534 1.48 1.48 0 00.822-.535c0-.052-.112-.08-.332-.08a18.006 18.006 0 012.926-3.28h-.012zm-1.517 12.1a4.186 4.186 0 01-.738-.288c0-.164.191-.203.574-.124.266.035.52.134.739.288-.1.163-.288.207-.563.123h-.012zm9.354-.368c-.056-.163.028-.191.248-.084.011.164-.064.192-.236.084h-.012zm1.56-.738h-.247v-.168h.247v.168zm.164-.168a.327.327 0 01.164-.327.275.275 0 01.327.084 1.864 1.864 0 01-.479.243h-.012zm.902-.941a1.329 1.329 0 00-.495.203.323.323 0 01.287-.367c.192-.027.374-.096.535-.204-.044.22-.151.34-.315.368h-.012zm1.764-2.052a32.292 32.292 0 01-6.194 1.928l-2.71.946a4.605 4.605 0 01-2.793.04 24.343 24.343 0 004.474-.902 52.614 52.614 0 004.222-1.477 422.455 422.455 0 014.062-1.596 70.882 70.882 0 013.923-1.389l-.028.044c-1.6.896-3.252 1.7-4.944 2.406h-.012zm3.99 2.255h-.163v-.243h.163v.243zm6.729-.654c.111.22.163.191.163-.084a.798.798 0 01.164-.575.331.331 0 01.044.495c-.128.143-.226.31-.288.49a.072.072 0 00-.083-.079c-.056 0-.056-.084 0-.247zm-.328.367a.922.922 0 01.328-.04c.055.164 0 .22-.124.164a1.054 1.054 0 00-.367-.08.371.371 0 00.163-.044zm-.574 2.338c.052-.107.08-.08.08.084s-.028.124-.08-.084zm.163-.243c0-.164.04-.192.124-.084.084.108.056.136-.124.084zm.451-.287c-.135-.028-.203-.096-.203-.208.379 0 .546.168.49.495a.4.4 0 00-.287-.287zm.615.287h-.244v-.327h.244v.327zm6.197-7.343c-.036.12-.08.24-.127.36 0-.14-.032-.172-.08-.073 0 .08.028.136.04.176l-.04.076h-.328v.247h.208l-.044.084c-.166.283-.359.55-.575.798a3.22 3.22 0 00-.49.699c-.056 0-.084 0-.084.04s-.028.04-.08.04c-.4.327-.738.642-1.07.945a4.166 4.166 0 00-.901 1.353.91.91 0 01-.4-.084.164.164 0 00-.243.084c.216.108.176.315-.124.615a1.88 1.88 0 01-.798.534c-.111 0-.095.028.04.08.136.052.124.164-.04.327-.163.164-.167.084-.167-.08 0-.163-.052-.247-.164-.247 0 .164-.096.236-.287.208-.192-.028-.288.067-.288.287h.4a.36.36 0 01-.4.399c.112-.164.096-.231-.04-.204a.543.543 0 01-.367-.04v.08h-.083v-.163h.083v.056c.409-.74 1.001-1.364 1.72-1.808a.842.842 0 00-.367-.08h-.287c.113-.111.25-.196.399-.247.164-.052.243-.248.243-.575a.164.164 0 00-.243.084c-.056.108-.028.163.08.163-.107.221-.202.221-.288 0-.08-.22-.203-.27-.367-.163-.056.108-.028.163.08.163s.136.056.084.164c-.052.108-.192.192-.248.084a.26.26 0 00-.247-.168c.439-.492.891-.984 1.357-1.476a7.618 7.618 0 011.68-1.313c.162.167.162.263 0 .287-.164.028-.244.1-.244.208l.164.163a.69.69 0 00.327-.534.926.926 0 01.164-.531c.267.002.527-.085.738-.248a.507.507 0 00.164-.658.738.738 0 00.574-.451c.112-.243.248-.367.4-.367 0-.108-.028-.164-.084-.164-.056 0-.08-.056-.08-.163.327.106.519.106.575 0 .168.316.223.681.155 1.033zm-5.702 5.044c0-.163.135-.247.399-.247.008.167-.128.247-.4.247zM42.9 44.38a2.155 2.155 0 01-1.23-.619 2.718 2.718 0 00-1.066-.694 26.338 26.338 0 00-3.12 1.995 11.525 11.525 0 00-2.395 2.338 5.61 5.61 0 00.575-.45c.22-.188.4-.232.575-.124a.4.4 0 01.163-.491.3.3 0 01.4 0c-.384.165-.507.384-.372.658.14.261.05.586-.203.739.165 0 .26-.028.287-.084.024-.052.096-.024.204.084a.85.85 0 01.083-.451c.052-.084-.028-.068-.247.04.042-.09.097-.174.164-.248.055-.052.028-.135-.08-.247a.798.798 0 00.574-.367c.108-.192.3-.204.575-.04-.168-.276-.14-.44.08-.495.22-.056.271-.243.164-.575-.209.215-.46.384-.739.495-.056.164 0 .232.124.204.124-.028.203.04.203.207a.331.331 0 00-.367.04c-.083.08-.151 0-.203-.207a1.52 1.52 0 011.145-1.066.85.85 0 00.116.483.642.642 0 010 .45c.271 0 .367-.079.287-.243-.08-.163-.04-.275.124-.33a.363.363 0 00-.164-.288c-.111-.08-.084-.148.08-.204a.774.774 0 00.4.328c.149.052.285.137.398.247.013.519-.352.97-.862 1.066-.48.08-.892.386-1.11.822a.164.164 0 00.248-.084c.056-.11.084-.081.084.084-.05.098-.106.194-.168.287a.375.375 0 01-.327.124c0-.112.013-.223.04-.332.028-.107-.04-.135-.203-.08 0 .056 0 .08.04.08s.043.028.043.084a.4.4 0 01-.247.288.718.718 0 00-.327.203c.108.112.187.112.243 0 .056-.112.112-.108.168 0a.718.718 0 01-.619.4 2.793 2.793 0 00-.694.083c-.056.162-.016.23.12.203.14-.024.18.04.123.204-.271 0-.399-.024-.399-.08a.467.467 0 01.168-.327c0-.056 0-.084.04-.084s.04-.024.04-.08c-.276 0-.367-.095-.288-.287.08-.192 0-.287-.203-.287a.32.32 0 00-.044.399l.207.399c-.275.163-.478.18-.614.044s-.263-.096-.371.12a.439.439 0 01.49.33 1.652 1.652 0 00-.857.4 1.56 1.56 0 01-.798.399c0-.052 0-.08-.04-.08s-.04-.028-.04-.084c0-.271.04-.399.123-.399.084 0 .064-.136-.043-.399a2.885 2.885 0 01-.4.168.32.32 0 00-.243.327c.216-.056.367.08.451.399.084.32 0 .49-.287.49a2.259 2.259 0 01.04-.45.519.519 0 00-.204-.451 1.457 1.457 0 01-.495.287c-.22.08-.243.204-.08.367a.662.662 0 01.4-.243c-.056-.108-.056-.152 0-.124.055.028.051.068 0 .124a.148.148 0 01-.164.163c-.112 0-.14.08-.084.244.108.056.192 0 .247-.12.056-.12.108-.151.164-.044a.69.69 0 00-.247.451.51.51 0 01-.164.371c0-.107-.028-.163-.084-.163-.056 0-.08-.056-.08-.164 0-.108.04-.163.124-.163.084 0 .096-.056.04-.168a.263.263 0 00-.247.168c-.056.107-.164.135-.328.08 0-.053 0-.08.04-.08s.044-.028.044-.084a6.525 6.525 0 00-1.724 1.229c-.49.495-1.001.974-1.516 1.436-.52.466-1.084.879-1.684 1.234-.654.369-1.385.58-2.135.614.186-1.358.56-2.683 1.11-3.939.527-1.167.979-2.366 1.352-3.591a4.789 4.789 0 00-1.556-1.026 32.536 32.536 0 01-1.808-.798c-.174.464-.38.916-.615 1.353a2.642 2.642 0 00-.287 1.52 5.962 5.962 0 00-.818 2.502 31.642 31.642 0 01-.4 2.582c-.014.864.167 1.72.532 2.503.33.706.839 1.314 1.476 1.763a3.592 3.592 0 002.095.659 3.711 3.711 0 002.295-.902.61.61 0 00.455 0 .646.646 0 01.367-.084 98.374 98.374 0 005.044-4.39 97.353 97.353 0 015.048-4.39 201.932 201.932 0 01-1.11 6.785 20.32 20.32 0 00.124 7.347c.44.654.864 1.32 1.273 1.995a2.207 2.207 0 001.848 1.11.658.658 0 00.244-.204c.055-.084.163-.1.327-.044.053-.104.095-.214.124-.327.03-.131.045-.265.043-.4l-.33-.163-.328-.164a9.019 9.019 0 01-.698-3.324 8.225 8.225 0 01.45-3.077c-.219-.107-.315-.243-.287-.399a8.19 8.19 0 01.124-.57c.056-.22.108-.44.164-.659a.69.69 0 00-.08-.574.172.172 0 00.247-.04.603.603 0 01.244-.208.89.89 0 01.04-1.065.67.67 0 00.043-.902c.458-1.128.748-2.316.862-3.528a8.743 8.743 0 011.106-3.528 7.183 7.183 0 01-.204-1.149 2.626 2.626 0 00-.359-1.073zm-3.856.49c0-.163.056-.191.164-.083.107.107.056.14-.164.083zm-4.593 5.025a.331.331 0 01-.331.163c-.056-.108 0-.163.123-.163.124 0 .152-.108.04-.328h.4a1.309 1.309 0 00-.232.328zm.57-.328h-.243v-.163h.244v.163zm.084-.327c0-.163.056-.191.164-.084.108.108.056.12-.152.064l-.012.02zm2.874-1.971c.107-.108.215-.232.327-.367.135-.157.303-.284.49-.371-.11.378-.428.658-.817.718v.02zM74.325 58.163c.012-.308.11-.606.283-.862.196-.3.236-.535.124-.698a2.08 2.08 0 01-.327.778.798.798 0 00-.08.782z"/>
    <path d="M88.264 47.385a.36.36 0 010 .071c0 .136-.028.18-.083.124l-.164.164a2.93 2.93 0 00-.535-.946 1.141 1.141 0 00-1.197-.287 218.89 218.89 0 00-5.659 6.385 33.006 33.006 0 01-6.484 5.826v-.327c-.108.107-.188.163-.244.163.388-1.25.896-2.46 1.517-3.611a36.453 36.453 0 011.763-2.874 6.784 6.784 0 001.026-1.312 1.848 1.848 0 011.11-.902c-.112-.164-.136-.272-.084-.328l.247-.247a6.744 6.744 0 001.844-1.596 5.491 5.491 0 012.258-1.596.423.423 0 01.367.167c.09.11.244.144.372.08.107 0 .163-.04.163-.124 0-.084.056-.068.164.044a1.596 1.596 0 000-1.233 2.127 2.127 0 00-.738-.798 8.444 8.444 0 00-1.106-.619 10.284 10.284 0 01-1.025-.53 1.995 1.995 0 01-.743.287c-.3.031-.6.045-.902.04a32.535 32.535 0 00-4.234 4.477c-.103.068-.215.132-.315.2-.698.448-1.346.972-1.931 1.56a3.623 3.623 0 001.197-.367c-.124.176-.252.351-.375.53l-.164.244c-.331.264-.674.523-1.025.798a16.517 16.517 0 01-4.306 2.339c-.056.108 0 .22.163.327a25.324 25.324 0 00-3.364 1.995 7.239 7.239 0 01-4.022 1.198 6.836 6.836 0 01-.244-2.874c.107-1.093.188-2.157.244-3.192.058-.96.003-1.923-.164-2.87a2.546 2.546 0 00-1.313-1.887 2.21 2.21 0 01-.818-.38 11 11 0 00-.858-.53 1.856 1.856 0 00-.906-.247 1.137 1.137 0 00-.858.49 2.853 2.853 0 00-1.887.699 5.587 5.587 0 00-1.477 1.437 2.897 2.897 0 001.557-.986c.42-.503.998-.85 1.64-.986a90.41 90.41 0 00-1.72 1.596 3.715 3.715 0 01-1.644 1.026c0 .056.055.14.167.247a8.404 8.404 0 00-1.724 1.724 6.126 6.126 0 01-1.887 1.64c.423-.749.979-1.415 1.64-1.967a9.35 9.35 0 001.724-1.887 9.202 9.202 0 00-2.542 2.254A24.558 24.558 0 0148.29 52.6c.113-1.117.291-2.227.535-3.324.233-.98.33-1.987.287-2.993a3.516 3.516 0 00-1.197-1.025 2.813 2.813 0 00-1.764-.208 11.03 11.03 0 01-.399 3.939 59.165 59.165 0 00-.985 4.062 14.19 14.19 0 00-.288 3.775 4.09 4.09 0 001.684 2.993.798.798 0 01.799-.287 1.62 1.62 0 00.861-.124 80.087 80.087 0 002.542-3.364 62.074 62.074 0 012.547-3.32 35.273 35.273 0 012.793-3.037c1-.973 2.098-1.84 3.276-2.586 0 .822-.041 1.71-.123 2.666-.08.962-.124 1.903-.124 2.833-.002.908.081 1.814.247 2.706.152.86.488 1.677.986 2.394.108.112.191.124.247.044.056-.08.108-.044.164.124.373.485.816.912 1.313 1.269.475.35 1.05.538 1.64.535a6.592 6.592 0 002.993-.535c.938-.4 1.833-.894 2.67-1.477a52.907 52.907 0 002.857-2.175 18.832 18.832 0 00-.547 2.71c.511.594.8 1.347.818 2.131.276.112.4.275.332.495.268.216.574.382.901.49.328.108.63.22.902.328a8.456 8.456 0 003.612-1.433 20.695 20.695 0 002.869-2.462 52.292 52.292 0 002.546-2.833 24.434 24.434 0 012.626-2.706 58.64 58.64 0 01-.248 2.993 59.873 59.873 0 00-.247 2.913c-.054.917-.026 1.838.084 2.75.096.879.367 1.73.798 2.502.25.05.47.193.618.399.11.197.265.365.451.49.263-.107.556-.107.819 0-.052-.27 0-.366.123-.287a.523.523 0 00.451.044 1.317 1.317 0 01-.367-1.07c.028-.434-.096-.71-.371-.797 0-.112.04-.152.124-.124.083.028.123 0 .123-.124-.163-.111-.22-.231-.163-.367.054-.145.08-.3.08-.455h.247a4.689 4.689 0 01-.084-2.622c.22-.987.412-1.999.575-3.036v-.084a1.17 1.17 0 01-.124-.738 1.062 1.062 0 01.208-.655c-.112.22-.084.327.08.327.002-.73.072-1.457.207-2.175.136-.738.231-1.42.287-2.05a3.74 3.74 0 00-.207-1.68 1.596 1.596 0 00-1.11-.974zm-32.974.111c.052-.22.08-.231.08-.04 0 .192-.028.204-.08.044v-.004zm.164-.163c0-.164.067-.248.203-.248a.798.798 0 00.371-.08.59.59 0 01-.559.328h-.015zm1.396-.986c-.056 0-.084.056-.084.164a.16.16 0 01-.083-.244.164.164 0 01.247-.084c0 .12-.028.164-.08.164zm12.882 7.794c-.056 0-.084-.08-.084-.244.108-.056.164 0 .164.164a.072.072 0 00-.08.08zm2.993-1.517c.084.084.068.18-.04.288a1.261 1.261 0 00-.287-.164h-.451c-.185.29-.439.53-.739.698-.308.226-.69.329-1.069.288a1.92 1.92 0 001.026-.822c.299-.435.642-.547 1.025-.328a5.072 5.072 0 011.397-1.476l.124-.092c-.212.36-.4.726-.595 1.097a2.873 2.873 0 00-.431.14.335.335 0 00.04.371zm.04 2.993H72.6v-.243h.164v.243zm6.728-.654c.108.22.164.191.164-.084a.798.798 0 01.163-.575.331.331 0 01.04.495 1.572 1.572 0 00-.287.49.072.072 0 00-.08-.079c-.056 0-.056-.084 0-.247zm-.327.367a.922.922 0 01.327-.04c.052.164 0 .22-.124.164a1.054 1.054 0 00-.37-.08.375.375 0 00.167-.044zm-.575 2.338c.052-.107.08-.08.08.084s-.028.124-.08-.084zm.164-.243c0-.164.04-.192.123-.084.084.108.04.136-.123.084zm.45-.287c-.135-.028-.207-.096-.207-.208.4 0 .547.168.495.495a.4.4 0 00-.287-.287zm.615.287h-.247v-.327h.24l.007.327zm6.194-7.343a3.192 3.192 0 01-.124.36c0-.14-.032-.172-.08-.073 0 .08.028.136.04.176l-.04.076h-.327v.247h.203a.798.798 0 01-.04.084c-.166.283-.358.55-.574.798a3.22 3.22 0 00-.491.699c-.056 0-.084 0-.084.04s-.028.04-.084.04c-.379.327-.738.642-1.065.945a4.166 4.166 0 00-.902 1.353.91.91 0 01-.4-.084.164.164 0 00-.242.084c.215.108.175.315-.124.615-.216.244-.49.428-.798.534-.108 0-.092.028.044.08.135.052.12.164-.044.327-.164.164-.164.084-.164-.08 0-.163-.052-.247-.164-.247 0 .164-.095.236-.287.208-.191-.028-.287.067-.287.287h.399a.36.36 0 01-.4.399c.113-.164.097-.231-.04-.204a.555.555 0 01-.37-.04v.08h-.08v-.163h.08v.056a4.956 4.956 0 011.724-1.808.842.842 0 00-.367-.08h-.288c.113-.112.25-.196.4-.247.167-.052.247-.248.247-.575a.168.168 0 00-.248.084c-.052.108-.028.163.084.163-.112.22-.203.22-.287 0-.084-.22-.204-.27-.367-.163-.056.108-.028.163.08.163.107 0 .135.056.083.164-.111.164-.191.192-.247.084a.263.263 0 00-.248-.168c.44-.492.892-.984 1.357-1.476a7.618 7.618 0 011.68-1.313c.165.167.165.263 0 .287-.163.028-.247.1-.247.208l.163.163a.686.686 0 00.332-.534.926.926 0 01.163-.531c.267.002.527-.085.739-.248a.507.507 0 00.163-.658.746.746 0 00.575-.451c.108-.243.247-.367.399-.367 0-.108-.028-.164-.084-.164-.056 0-.08-.056-.08-.163.328.106.52.106.575 0 .167.317.218.682.144 1.033zm-5.703 5.044c0-.163.14-.247.4-.247.011.167-.125.247-.4.247zM143.614 49.057a.826.826 0 01-.399.694.543.543 0 00-.243.698c.115-.117.212-.252.287-.399.084-.163.211-.301.367-.399a.766.766 0 01.124-.371c.072-.156.028-.223-.136-.223zM133.685 58.574a2.91 2.91 0 00-.163.655 1.4 1.4 0 00.45-.615c.14-.3.124-.507-.04-.614a7.334 7.334 0 01-.247.574zM28.952 71.005c-.4-.028-.575.064-.575.283.108-.163.4-.191.862-.08.463.112.699 0 .699-.327a2.299 2.299 0 01-.986.124z"/>
    <path d="M41.259 69.812a1.995 1.995 0 00-.49-.244.798.798 0 01-.4-.33c-1.35-.401-2.738-.662-4.142-.78a35.544 35.544 0 00-4.514-.123c-1.505.056-2.982.18-4.43.371-1.346.177-2.679.444-3.99.798-.056 0-.08-.055-.08-.163a41.64 41.64 0 01-2.462.658c-.93.224-1.887.451-2.873.695-.986.243-1.943.534-2.87.862-.87.301-1.72.657-2.545 1.065-.108-.163-.232-.163-.367 0-.136.164-.264.248-.372.248-.109-.221-.272-.193-.49.083a.519.519 0 01-.739.164 29.35 29.35 0 01-1.803.818c-.655.271-1.234.495-1.724.658.107.272.04.4-.208.4a.718.718 0 00-.53.163c.051-.275 0-.439-.124-.495-.124-.056-.18-.22-.124-.49a.619.619 0 01.45 0c.192.055.232-.028.125-.248-.112-.108-.26-.096-.451.044a2.15 2.15 0 01-.52.271.638.638 0 01.248-.574.89.89 0 00.491.08c.092-.254.25-.477.459-.647a.323.323 0 01-.247-.327c.271-.112.399-.4.399-.906 0-.507-.056-.738-.164-.738.327-.056.503-.288.53-.695a3.915 3.915 0 00-.04-1.025c-.055 0-.079 0-.079.04s-.056.04-.168.04a.4.4 0 01-.163.494.67.67 0 01.163-.494v-.575c.44-.056.619-.204.535-.451a.902.902 0 01.124-.798c.052-.056.08 0 .08.163 0 .164.056.164.167 0a1.413 1.413 0 01-.083-.45c0-.14-.112-.18-.328-.124 0-.22.052-.315.164-.288.107.027.217.04.327.04a.4.4 0 00-.163-.49c0 .163-.164.247-.491.247a.535.535 0 01-.124-.287c-.028-.14 0-.208.124-.208 0 .108.135.18.399.208.2.043.41-.002.574-.124a.798.798 0 01-.49-.4.798.798 0 00-.216-.31c.084.043.184 0 .3-.1-.065-.362.059-.731.327-.982l.036-.044a.603.603 0 01-.036-.124c.051-.219.08-.219.08 0v.08c.217-.223.41-.47.574-.734 0-.164-.056-.26-.164-.287a.4.4 0 01-.247-.204 1.026 1.026 0 000-1.644H8.32a3.312 3.312 0 00-.53 1.026 1.963 1.963 0 00-.044 1.197 3.32 3.32 0 00-.655 1.995 3.033 3.033 0 01-.706 2.035c.383-1.476.738-2.911 1.065-4.306a32.56 32.56 0 011.238-4.074c.107.108.163.108.163 0s.052-.136.164-.084c.052.4-.04.603-.288.659-.247.056-.343.299-.287.738.164 0 .248.056.248.164h.163c0-.164.108-.22.327-.164a.483.483 0 01-.327.164.367.367 0 01-.247.203c-.112.028-.164.124-.164.287.164 0 .192.056.08.164.275.056.399.112.371.164-.028.052.096.056.371 0 .052-.164 0-.26-.124-.284-.123-.024-.18-.1-.123-.207a.483.483 0 00.45-.4c.025-.204.094-.4.204-.574-.22.056-.327-.08-.327-.399-.108 0-.164 0-.164.04v-.124c.108 0 .164.028.164.084.123-.223.29-.418.49-.575a.527.527 0 00-.079-.287.423.423 0 010-.371.818.818 0 01-.327.164 1.353 1.353 0 01-.4-.164c0 .056-.055.14-.163.247 0 .056-.028.068-.084.04-.056-.028-.028-.04.084-.04 0-.163.052-.247.164-.247-.056-.164 0-.232.123-.204.121.026.244.04.368.04a.271.271 0 00-.164-.247c-.108-.052-.056-.136.164-.244l.163.328c.056.107.108.22.164.327.22-.052.315-.164.287-.327-.028-.164.096-.136.371.084a.666.666 0 01.164-.495c-.112-.108-.192-.096-.248.04-.055.135-.107.151-.163.043.056-.163.044-.259-.04-.287a.36.36 0 01-.204-.207c.135-.14.258-.291.368-.451.127-.174.225-.368.287-.575a.503.503 0 00-.04-.45c-.084-.109-.287-.164-.615-.164a.223.223 0 00.04.287c.08.084.068.151-.04.203a1.748 1.748 0 01-.33-.399c.219-.22.33-.399.33-.495a2.853 2.853 0 01-.247-.654.567.567 0 00-.49-.4.954.954 0 00.079-.398h.4a1.995 1.995 0 01.398-1.967 4.222 4.222 0 01-.164 1.025 2.27 2.27 0 00-.083 1.026 6.58 6.58 0 00.574-1.397c.153-.478.237-.975.248-1.477-.112-.051-.196-.051-.248 0-.052.052-.111.028-.163-.08a.212.212 0 000-.33c-.112-.108-.084-.188.08-.244.111.108.207.096.287-.044.08-.14.18-.092.287.124a1.05 1.05 0 00.248-.491c.055-.22.191-.247.399-.084.056-.143.07-.3.04-.45-.028-.188.067-.232.287-.124.064.136.01.3-.124.37-.135.08-.151.18-.04.288.272 0 .4-.084.4-.247 0-.164.135-.136.398.083.052-.271 0-.399-.123-.399-.124 0-.208-.084-.208-.247.056 0 .084-.08.084-.244.108-.055.164-.028.164.08a.144.144 0 00.163.164c.4-.4.3-.575-.247-.575.112-.163.231-.231.37-.203.14.028.232-.04.288-.204.056-.163-.056-.247-.163-.247-.11.001-.22.014-.328.04-.093.025-.19.038-.287.04-.084 0-.152-.052-.207-.164a.623.623 0 00.45-.124l.288-.283c-.108-.168-.204-.192-.287-.084-.084.108-.124.056-.124-.164-.164-.055-.26.028-.288.248-.027.22-.095.243-.203.08 0-.22.068-.34.203-.367.155-.032.306-.073.455-.124a.866.866 0 01-.083-.615.475.475 0 00-.084-.455.487.487 0 00.331-.327c.051-.16.091-.325.12-.49.022-.139.063-.273.123-.4a.335.335 0 01.332-.163v-.491c-.112 0-.168.028-.168.08a.072.072 0 01-.08.083v-.494c.108-.052.176-.068.204-.04.028.028.123 0 .287-.04a1.816 1.816 0 01.044-1.197c.218-.363.474-.7.762-1.01-.066.475-.219.933-.45 1.353a2.418 2.418 0 00-.204 1.596c-.112 0-.164 0-.164.044s-.056.04-.163.04c.075.464-.045.94-.332 1.313a1.357 1.357 0 00-.243 1.229.347.347 0 01.327-.124.45.45 0 00.327-.04c.056-.271.028-.367-.08-.287-.107.08-.195.068-.247-.04.052-.164.096-.231.124-.204.028.028.096 0 .203-.043.05-.729.201-1.446.451-2.131.241-.639.42-1.299.535-1.972.22.112.355.112.4 0a.331.331 0 01.326-.163.738.738 0 01.124-.799c.19-.22.238-.53.124-.798a1.88 1.88 0 01-.575.495 4.39 4.39 0 00.243-.946c.03-.329.213-.625.495-.798.028.296-.06.591-.247.822.106 0 .174-.028.203-.083.028-.052.096-.024.208.083a.69.69 0 01.04-.698c.138-.196.262-.4.371-.615-.224-.055-.343-.027-.371.08a.192.192 0 01-.204.164.579.579 0 00.08-.491.4.4 0 01.084-.399c.107 0 .203.065.243.164.056.111.14.111.248 0-.062-.304.014-.62.207-.862a.742.742 0 00.12-.779 1.05 1.05 0 00-.243.491.519.519 0 01-.4.4c.252-.384.419-.817.491-1.27.064-.433.234-.845.495-1.197l.164.168c.052 0 .08 0 .08-.044s.028-.04.083-.04c0-.222-.073-.438-.207-.615-.136-.191-.068-.343.207-.45a.507.507 0 01-.083.287c-.056.08 0 .151.163.203.266-.598.486-1.05.659-1.352.215-.508.35-1.047.399-1.597.325-.268.566-.624.694-1.025a9.45 9.45 0 00.323-1.198c.08-.434.164-.861.244-1.269.078-.414.263-.802.535-1.125a1.397 1.397 0 00-.084-.575c.111 0 .18.028.207.084.028.056.096.056.204 0 .144-.728.351-1.442.618-2.135.3-.822.587-1.596.858-2.394-.22 0-.327-.028-.327-.084a.547.547 0 00.615-.575c.028-.399.18-.546.45-.49a1.002 1.002 0 000-.575.479.479 0 01.084-.49c.11.108.137.176.084.203-.056.028 0 .068.164.123a7.622 7.622 0 01-.124-.798c-.028-.247.148-.37.53-.37-.122-.44.005-.912.332-1.23a1.68 1.68 0 00.4-1.397c.265-.598.531-1.227.797-1.887a7.933 7.933 0 00.451-2.295c-.368-.374-.799-.68-1.273-.906a1.716 1.716 0 00-1.596.168c-.108-.331-.315-.427-.615-.287-.267.13-.569.172-.862.12-.033.775-.199 1.539-.49 2.258a18.45 18.45 0 01-.902 1.844c-.062.125-.104.26-.124.399a.4.4 0 01-.287.327 30.3 30.3 0 01-.451 1.233 2.758 2.758 0 01-.798 1.15 1.512 1.512 0 01-.451 1.476 1.64 1.64 0 00-.451 1.556 1.74 1.74 0 00-.655.798c-.16.318-.19.686-.084 1.026a.766.766 0 00.451-.248.539.539 0 01.451-.163c0 .056 0 .084.044.084s.04.028.04.08a310.502 310.502 0 00-3.691 11.117A594.07 594.07 0 019.996 45.74a206.532 206.532 0 01-2.095 7.583 279.693 279.693 0 00-2.127 7.546 149.964 149.964 0 00-1.887 7.781A84.788 84.788 0 002.534 77.1a2.131 2.131 0 01-1.56.658c-.107.266-.23.553-.371.862a2.67 2.67 0 00-.204 1.105.192.192 0 00.124.208c.08.024.096.092.04.203a.32.32 0 01-.04.204c-.028.028-.04.096-.04.207.192.29.251.65.163.986a2.71 2.71 0 001.026.982 2.215 2.215 0 001.596.084 5.48 5.48 0 001.597-1.11c.462-.467.97-.942 1.516-1.436.108-.056.164-.056.164 0s.055.083.163.083a.467.467 0 01.327-.574 23.92 23.92 0 013.815-1.968 46.31 46.31 0 003.9-1.807h.813a3.436 3.436 0 012.255-1.066 4.86 4.86 0 002.339-.822c.316.111.667.067.945-.12.27-.178.558-.33.858-.45.767-.056 1.341-.112 1.724-.168a5.886 5.886 0 001.477-.491c.668.001 1.336-.053 1.995-.164.627-.111 1.409-.22 2.339-.327 0-.275.028-.399.083-.399.108.22.228.271.368.164.14-.108.287-.028.45.247a.702.702 0 01.739-.399 7.95 7.95 0 011.149.08c.056-.164.108-.244.164-.244.056 0 .107-.083.163-.247.108.108.152.192.124.247-.028.056 0 .136.124.244.555.116 1.13.103 1.68-.04.471-.134.973-.12 1.436.04.056-.164.028-.26-.08-.287-.107-.028-.14-.12-.083-.288a.942.942 0 01-1.066 0 .335.335 0 01-.163.331.958.958 0 00-.575-.287 2.598 2.598 0 00-.658 0c-.231.026-.463.04-.695.04a.842.842 0 01-.618-.247c.215-.057.442-.057.658 0 .164.055.3-.028.4-.244a2.718 2.718 0 00-1.561-.044 3.029 3.029 0 01-1.477.044c.223.26.59.343.902.204a.918.918 0 01.986.203 11.23 11.23 0 00-1.888.168 4.158 4.158 0 01-1.64 0 .91.91 0 00.04.287c.028.08 0 .148-.124.204.056-.164 0-.232-.163-.204a.69.69 0 01-.491-.124c-.112-.275-.072-.399.12-.33.191.067.259 0 .207-.164a1.56 1.56 0 00-.822.163c.162.056.19.112.084.168a.16.16 0 00-.084.243c-.108-.107-.192-.135-.243-.08a.914.914 0 01-.822.368c-.36-.024-.721.018-1.066.123-.164.164-.275.136-.331-.08-.056-.215-.164-.275-.327-.167.163.399.095.563-.204.535-.3-.028-.479.067-.535.287 0-.164-.191-.247-.574-.247a1.097 1.097 0 01-.902.287.99.99 0 00-.902.371 3.308 3.308 0 00-1.928.367 2.23 2.23 0 01-1.596.287c.271-.053.508-.216.655-.45a.722.722 0 00.163-.615.587.587 0 01-.53.399c-.23.053-.469.053-.699 0-.056.164.028.22.248.164.22-.056.271.056.163.327-.439-.108-.642-.244-.614-.4.028-.155-.124-.107-.451.168a.4.4 0 01.12-.33c.083-.057.067-.136-.04-.244a.555.555 0 00-.288.614c.011.247.083.486.208.699-.056-.266-.016-.418.12-.455.14-.03.27-.102.37-.204-.055.22 0 .327.124.327a.51.51 0 01.367.164c-.399 0-.602.056-.654.168-.052.111-.303.163-.738.163 0-.22.024-.359.08-.399.055-.04 0-.14-.164-.247-.108.108-.248.084-.4-.08a.71.71 0 00-.49-.247.615.615 0 01-.535.738c-.331.102-.681.13-1.025.084.107-.276.26-.344.45-.208.192.136.26.068.208-.203a.742.742 0 00-.822.163.543.543 0 01-.738.08.559.559 0 00.495-.243c-.276-.112-.467-.084-.575.08-.108.163-.164.055-.164-.328a.69.69 0 00.531-.04 4.99 4.99 0 00.371-.247 1.92 1.92 0 01.327-.204c.108-.056.248 0 .4.164.113-.222.3-.398.53-.495.248-.108.423-.08.535.084-.164-.275-.084-.467.247-.575.332-.107.547-.028.655.248v-.4c.874-.219 1.832-.49 2.873-.821a40.968 40.968 0 013.157-.862 46.707 46.707 0 013.12-.615 17.718 17.718 0 012.83-.243c.271-.276.822-.4 1.64-.372a10.26 10.26 0 002.135-.123c0 .22.024.327.08.327.244-.194.55-.294.862-.283a7.015 7.015 0 011.313.04c.466.051.917.095 1.352.123.435.028.822.04 1.15.04.2.12.425.19.658.204.275.027.548.069.818.123.27.052.537.122.798.208a.87.87 0 01.531.45 1.92 1.92 0 01-.798-.398c-.056.108-.124.147-.208.124-.083-.024-.123 0-.123.123 0 .124.167.148.33.12.165-.028.244 0 .244.124 0 .123.028.151-.08.123-.107-.028-.163 0-.163.124a2.1 2.1 0 011.596-.04c.627.188 1.106.148 1.433-.124a1.062 1.062 0 00-.531-.247c-.24-.1-.227-.18.048-.291zM8.536 62.429c.112 0 .152.028.124.084-.028.056 0 .08.123.08-.056.163-.135.191-.247.084-.112-.108-.124-.192-.016-.248h.016zm-.283-.399c.024 0 .04-.028.04-.08h.163c.052.108-.028.164-.247.164-.016-.068 0-.096.028-.096l.016.012zm-.288.986c.164.052.26.04.288-.04.028-.08.091-.1.203-.044a.998.998 0 01-.164.331c-.055.052-.027.164.08.327a.555.555 0 01-.399.164 1.48 1.48 0 00.164-.4.854.854 0 00-.188-.35l.016.012zm-.223 1.644a.682.682 0 00.287-.08.18.18 0 01-.04.12c-.028.028-.04.096-.04.207a.65.65 0 00-.399-.084c.032-.123.112-.163.192-.163zm-.367 2.666a.28.28 0 01-.084.207c-.056 0-.08-.112-.08-.331.108-.016.164.028.164.108v.016zm1.64-7.016c.108-.215.163-.231.163-.04 0 .192-.055.192-.163.024v.016zm-.04-1.229a.4.4 0 00.04-.164c.108-.055.163 0 .163.204 0 .203-.083.263-.247.207a.57.57 0 01.044-.255v.008zm10.707-31.893c0 .192-.028.18-.084-.04.056-.163.084-.148.084.04zm-.619 1.437c.054-.118.124-.229.208-.328 0-.27.052-.355.163-.247.112.108.056.192-.163.247a.646.646 0 01-.084.368.674.674 0 00-.08.37.327.327 0 01-.044-.41zm-.798 1.229c.22 0 .26.072.124.207-.136.136-.16.068-.104-.207h-.02zm-.203 1.52c.135-.084.175-.18.123-.287.164.108.188.203.08.287-.108.084-.164.152-.164.204-.143-.04-.143-.124-.02-.204h-.02zm-.4 1.888c-.083.135-.18.18-.287.123-.108-.055-.028-.18.084-.207.1-.014.17-.103.164-.204.115.056.131.16.047.288h-.008zm.204-.699a.267.267 0 00-.08.328.231.231 0 01-.124-.288.567.567 0 01.124-.287c.172.056.2.14.088.247h-.008zm-.164-.658v.168c-.056 0-.08.055-.08.163h-.247v-.247c.108 0 .164-.028.164-.084h.163zm-.399-4.019h.256v.164h-.248l-.008-.164zm.084 4.925c-.056-.056-.084-.028-.084.08-.056 0-.08-.108-.08-.328.104 0 .16.084.16.248h.004zm.172.722c-.108.271-.22.4-.328.4-.012-.248.096-.4.328-.4zm-2.75 8.572c-.028.247-.096.315-.203.207-.112-.33-.084-.518.083-.574.096.016.136.14.108.383l.012-.016zm.4-3.077a2.953 2.953 0 00-.444 1.904.547.547 0 01-.399.163c-.056.164 0 .264.164.288.163.024.191.123.084.287-.276-.164-.4-.327-.4-.49.002-.173.045-.343.124-.496l.248-.49a.623.623 0 00.04-.491c.246-.328.414-.707.49-1.11.083-.428.252-.835.495-1.197a2.167 2.167 0 01-.403 1.648v-.016zm.398-4.789a.539.539 0 01.124-.283c.108.052.124.12.04.204a.227.227 0 00-.04.287c-.1.004-.14-.064-.112-.204l-.012-.004zm1.353.823c0 .191-.056.18-.164-.04.12-.16.176-.148.176.043l-.012-.003zm-.798 1.197a4.418 4.418 0 01-.451 1.065 1.353 1.353 0 01.124-1.065c.187-.4.339-.71.45-.986a.172.172 0 01.124.044c.024.028.092.04.204.04a2.315 2.315 0 00-.42.898l-.031.004zm-.287-2.953v-.332c.163-.107.247-.067.247.124 0 .192-.052.26-.215.204l-.032.004zm.247-.822a.49.49 0 01.164.33c-.08-.003-.132-.11-.132-.334l-.032.004zm.243 2.462c.108-.216.164-.216.164 0 0 .215-.024.215-.132-.004l-.032.004zm.196-4.845a.148.148 0 00-.164.164.463.463 0 01-.08-.327c.045.004.136.055.244.163zm-.942 1.888a3.013 3.013 0 00.535-1.648c.052 0 .1.031.12.08.02.05.069.084.123.083-.007.303-.09.6-.243.862-.168.303-.168.507 0 .615a.355.355 0 01-.208.203.858.858 0 00-.287.208.55.55 0 010 .574 2.845 2.845 0 01-.327.4 1.624 1.624 0 01.287-1.377zm-.854 2.542c.165-.343.298-.7.4-1.066.107-.052.147-.04.123.04-.024.08 0 .152.124.208-.264.259-.408.616-.4.985a1.34 1.34 0 01-.398.982c-.065-.39-.012-.79.151-1.15zm-.49 3.364c-.056-.052-.029-.136.08-.244 0-.107-.08-.163-.244-.163.108-.274.136-.573.08-.862a.503.503 0 01.247-.615 1.66 1.66 0 01-.084.655c-.066.184-.093.38-.08.574.052.108.136.124.244.04.108-.084.191-.068.247.04-.22 0-.287.14-.203.4.084.259 0 .398-.208.398a.076.076 0 00.084.084c.052 0 .052.056 0 .164-.22.056-.327-.084-.327-.4a.072.072 0 01.08.084c0 .052.055.08.163.08 0-.086-.03-.17-.088-.235h.008zm-.044.946c.027.191 0 .18-.12-.04.044-.168.084-.152.112.04h.008zm-1.86 8.04c-.056.136-.14.18-.248.124 0-.111.028-.167.084-.167.052 0 .08-.052.08-.164.116 0 .144.072.084.208zm.247-3.24a.798.798 0 00-.167.4.208.208 0 010-.328.204.204 0 000-.327c.227.008.283.092.175.255h-.008zm.164-2.462c.108-.056.164.028.164.244-.056 0-.084 0-.084-.04s-.028-.04-.08-.04v-.164zm.04 1.393c.08-.164.175-.216.287-.164a.958.958 0 01-.124.208c-.049.062-.09.13-.123.203-.092 0-.116-.084-.032-.247h-.008zm-.615.658a.335.335 0 00.164-.399c.108-.056.164-.04.164.04s.055.152.163.208c-.327.106-.49.27-.49.49-.156-.12-.156-.231.007-.339h-.008zm0 .575c-.111.164-.22.243-.33.243a.323.323 0 01.338-.243h-.008zm-.163 1.887c0 .221-.056.221-.168 0 .117-.22.176-.22.176 0h-.008zm-.248 2.543c.135.117.325.15.491.083.108.272.096.451-.04.531-.135.08-.151.18-.04.287-.111.164-.191.152-.247-.04-.056-.191-.14-.231-.248-.123-.055-.22-.04-.355.044-.4.084-.043.1-.175.048-.338h-.008zm-.084-1.56c0 .219-.027.219-.08 0 .06-.216.088-.216.088 0h-.008zm0 .861c0 .192-.027.208-.08.044.06-.22.088-.231.088-.044h-.008zM10.32 51.56c.107.027.217.04.327.04a.467.467 0 00-.164.327c-.056-.108-.123-.164-.203-.164a.627.627 0 01-.288-.08.331.331 0 01.336-.123h-.008zm.698-1.808c-.084.303-.18.45-.287.45a.858.858 0 00.04-.398 1.117 1.117 0 01.04-.495c.227-.008.295.144.215.443h-.008zm.244-1.026c-.192.056-.232 0-.124-.163 0-.216.084-.244.247-.08.164.164.076.191-.116.243h-.007zm.083-1.352c.024.027.068 0 .124-.04l-.164.163c.008-.108.02-.147.048-.123h-.008zm.08.45a.45.45 0 00.044.328c-.164 0-.247.028-.247.084a.223.223 0 01-.048-.336.559.559 0 00.123-.327.196.196 0 01.136.251h-.008zm-.45-.45a.351.351 0 00.163-.288c.112.056.112.124 0 .208a.351.351 0 00-.164.287c-.1-.056-.1-.124.008-.207h-.008zm-.244.738c.05-.021.08-.07.08-.124.109 0 .137.028.083.084-.049.04-.079.1-.083.164-.1-.056-.128-.096-.072-.124h-.008zm.203.738c.248.028.371.068.371.124-.055.163-.223.231-.494.203-.272-.028-.4-.091-.4-.203a.65.65 0 01.531-.124h-.008zm-.798-.778c.108.056.136.096.08.124a.128.128 0 00-.08.123c-.084-.056-.084-.14.028-.247h-.028zm-.124 2.175c.024-.136.068-.208.124-.208h.08c0-.163.056-.243.164-.243v.243h-.164c0 .112-.028.18-.08.208-.052.028-.056.123 0 .287a.235.235 0 01-.096-.287h-.028zm.124.367a.168.168 0 01-.084.247c-.107.056-.08.108.084.164-.163.22-.275.18-.331-.124-.056-.303.084-.395.36-.287h-.029zm-6.62 22.826c0-.056.084-.08.247-.08 0 .036-.084.08-.247.08zm2.546-.08H5.73c-.056-.223 0-.33.167-.33.168 0 .216.091.164.314v.016zm-.575-4.924c.216 0 .287.068.204.203a.754.754 0 00-.124.372c-.108 0-.136-.068-.08-.208a.45.45 0 000-.383v.016zm.244-.535a.958.958 0 00.167-.614c.271.056.327.191.164.399a.635.635 0 00-.164.574c-.223-.115-.275-.239-.167-.375v.016zm.167 1.888c.012-.34.126-.668.327-.942.11.32.096.67-.04.982-.087.38-.241.742-.454 1.07a4.65 4.65 0 00.167-1.126v.016zm-.084 3.077c.108-.22.248-.304.4-.248.011.152-.128.232-.4.232v.016zm.798-.799c.036.099.077.195.124.288a.271.271 0 01-.367.04.51.51 0 00-.45-.04c0-.164.051-.264.163-.288.111-.024.163-.123.163-.287.164 0 .188.04.08.124-.108.084-.108.175 0 .287.164 0 .22-.084.164-.247-.056-.164.028-.22.247-.164-.128.112-.171.208-.144.291l.02-.004zm-.307-3.815c.056-.22.084-.235.084-.043 0 .191-.028.211-.084.043zm.822.288c0 .187-.056.175-.163-.044.107-.16.163-.144.163.048v-.004zm-.45.798a.838.838 0 00.123-.491c.164 0 .204.164.124.49-.08.328-.208.492-.371.492a.798.798 0 01.123-.507v.016zm-.124 1.273c0 .08.055.124.163.124-.056-.112-.056-.152 0-.124.056.028.056.068 0 .124l-.163.163h-.168v-.399c.112-.028.168.012.168.096v.016zm-.567-4.162a.53.53 0 01.399.399.363.363 0 01-.4-.4zm.698-.655c-.028.164-.096.192-.207.08v-.164c.056 0 .084-.055.084-.163.1 0 .14.084.115.247h.008zm.124-1.065c0 .165-.028.26-.084.287-.056.027-.028.122.084.287a.331.331 0 01-.247-.083c-.056-.056-.14-.056-.248 0a.635.635 0 01.164-.372.243.243 0 000-.367c.056-.163.22-.247.495-.247 0 .125.014.249.04.371.02.136-.048.176-.228.124h.024zm.567-1.664c-.056.63-.276.945-.659.945.056 0 .124-.083.208-.247.084-.164 0-.247-.208-.247 0-.108.108-.164.327-.164-.107-.4-.067-.643.124-.778a.467.467 0 00.124-.615.4.4 0 00.203-.247c.028-.112.124-.164.288-.164-.244.47-.383.988-.407 1.517zm.399-1.928a.34.34 0 000 .327c-.272 0-.4-.055-.328-.163.065-.122.148-.233.248-.327.116-.02.144.035.088.143l-.008.02zm.167-.822a.164.164 0 00-.083.248c-.112 0-.14-.052-.084-.164a.61.61 0 00.084-.248c.171.036.199.092.091.144l-.008.02zm.204-.49a.515.515 0 01-.124.247c-.056 0-.08-.056-.08-.164-.111 0-.167.028-.167.08-.164-.164-.148-.248.044-.248.191 0 .259-.024.203-.08.116-.02.16.037.132.144l-.008.02zM7.94 59c.108-.215.164-.215.164 0 0 .216-.048.204-.156-.02l-.008.02zm.328-.327H8.02v-.164h.248v.164zm.163-.08c.108-.22.164-.22.164 0s-.048.2-.156-.02l-.008.02zm.4.491c-.113.164-.22.247-.332.247a.327.327 0 01.351-.259l-.02.012zm-.053-1.333a.519.519 0 000 .4c-.275 0-.399-.109-.399-.328a.295.295 0 00.332-.331c.067.012.111.095.067.26zm.248-.575c-.112-.107-.192-.107-.248 0a.327.327 0 01-.327.164c.108-.215.204-.327.287-.327.084 0 .068-.136-.04-.4.108.057.188.04.244-.04.056-.079.136-.095.247-.039a.363.363 0 01-.123.327c-.092.044-.108.152-.052.315h.012zm1.15-.738h.163v.164h-.164v-.164zm-.536.164a.263.263 0 00.288.247c0-.163.056-.191.163-.084.108.108.056.14-.163.084 0 .108-.04.164-.124.164-.084 0-.096.056-.04.163.266 0 .334.096.204.288-.136.191-.152.315-.04.37-.112.109-.22.097-.328-.043a.603.603 0 01-.163-.367c.215 0 .327-.084.327-.248-.056 0-.14-.051-.247-.163-.164.056-.22.22-.164.49.056.272 0 .44-.164.496a.882.882 0 01.04-.799c.133-.266.176-.568.124-.862a.263.263 0 01.275.264h.012zm-.367-3.731a.335.335 0 00.08-.372c.22 0 .271.096.164.288-.09.135-.146.29-.164.45-.176-.107-.204-.23-.092-.366h.012zm-.044 1.763c.028 0 .044-.027.044-.083.108 0 .164.111.164.327-.112 0-.164-.024-.164-.08a.076.076 0 00-.084-.084c-.012-.032-.012-.08.028-.08h.012zm-.299-3.543v.163c0 .056 0 .08-.04.08s-.04-.08-.04-.243c.052-.04.08-.04.08 0zm0 3.364c-.056-.22-.028-.287.084-.208.112.08.08.152-.084.208 0 .547-.136.846-.4.902a.47.47 0 00.169-.495c-.068-.148.012-.283.231-.391v-.016zM8.779 55.7c-.163.22-.247.247-.247.084 0-.164.072-.192.247-.084zm-.08-3.568c0 .192-.055.204-.167.04.1-.22.156-.231.156-.04H8.7zm-.247.451H8.7a.467.467 0 00-.168.328c-.12-.056-.152-.164-.092-.328h.012zm.04 3.488c.105.084.25.1.371.04a.623.623 0 00.08-.575.34.34 0 00.247-.083c.056-.052.136-.024.248.083a.515.515 0 00-.164.818.535.535 0 01-.535.044 8.358 8.358 0 01-.45-.207c.04-.164.111-.204.191-.12h.012zm-.287-.742c0 .195-.056.207-.164.044.096-.22.152-.232.152-.044h.012zm-.164 1.768a.798.798 0 00.247-.575.706.706 0 01.04.615c-.08.135-.18.287-.287.45a.307.307 0 01-.012-.49h.012zm-.164.738c.056 0 .084-.056.084-.168.108 0 .148.084.12.248-.028.163-.096.191-.204.084v-.164zm-.534 1.556c.173-.288.324-.59.45-.902a.894.894 0 01-.08.862 1.449 1.449 0 00-.247.942.678.678 0 01-.135-.902h.012zm-.12 1.233c.108.056.136.096.08.12-.056.024-.08.1-.08.208-.124-.056-.124-.164-.012-.328h.012zm-.658 1.928a9.03 9.03 0 01.327-1.026c.108 0 .163 0 .163.04s.056.04.168.04a1.548 1.548 0 00-.371.822c-.041.315-.139.62-.287.902-.12-.106-.124-.366-.012-.778h.012zm-.328.778a.072.072 0 01.08.084c0 .052.056.08.164.08 0 .107-.056.135-.164.083a.164.164 0 01-.092-.247h.012zm.164.575v.163h-.176v-.163h.176zm-.204.49c.024-.107.064-.163.12-.163.056 0 .124.028.044.084-.08.056-.1.135-.044.247-.114 0-.158-.056-.132-.168h.012zm-.37-2.394h.159v.263h-.164l.004-.263zm-.164 4.43c.173-.327.231-.702.163-1.066.164.164.176.535.04 1.11-.042.38-.2.737-.45 1.025-.017-.366.064-.73.235-1.053l.012-.016zm-.084 2.793c0 .112 0 .18-.04.208-.04.028.04.095.203.203a.327.327 0 01-.243.084.61.61 0 01-.247-.084c.053-.104.094-.214.123-.327.012-.1.084-.128.212-.072l-.008-.012zm-.164 1.15v.33h-.399a.196.196 0 01.124-.207.188.188 0 00.124-.203c.083-.048.14-.016.14.091l.011-.012zm-.327-1.996c.032-.223.117-.435.247-.618.053.232.038.474-.043.698a.982.982 0 01-.368.535 1.92 1.92 0 00.152-.615h.012zm-.327 2.582c-.112 0-.152-.04-.124-.124a.196.196 0 00-.04-.203c.192.108.26.22.152.327h.012zm-.4.946c.005-.216.062-.428.164-.619.185.448.088.963-.247 1.313.043-.229.063-.461.06-.694h.024zm.164 1.436c0-.111.028-.18.084-.207.056-.028.052-.096 0-.204a.475.475 0 01.244.4l-.328.011zm.328-3.447c-.056-.164-.04-.276.043-.328.084-.052.04-.111-.123-.163 0-.168.052-.18.163-.044.112.135.136.124.08-.04.112.056.14.175.084.371-.056.196-.164.26-.271.204h.024zm.163 1.392c.056 0 .084 0 .084.044s.056.04.164.04a.204.204 0 01-.248.124c-.131-.028-.131-.096-.024-.208h.024zm0 4.023c-.056 0-.08-.084-.08-.248.108-.055.164 0 .164.164a.076.076 0 00-.108.084h.024zm-.08-.4c.108-.602.204-1.196.288-1.803.084-.607.175-1.197.287-1.808a2.394 2.394 0 010 1.932c-.237.541-.437 1.099-.599 1.668l.024.012zm5.827-.326c-.056-.164.024-.248.243-.248a.215.215 0 01-.267.236l.024.012zm.738-.248h-.331c0-.108.111-.164.33-.164.073.096.073.152-.023.152l.024.012zm22.291-2.893h.164c.056.164-.056.243-.327.243.108-.095.163-.18.163-.243zm-6.193.53c.024.029.068 0 .124-.04l-.168.164c0-.095.016-.14.044-.111v-.012zm-.044-.49c0 .191-.024.175-.08-.04.06-.156.08-.14.08.052v-.012zm-.654.818a.128.128 0 00.084-.12c.107.052.135.096.08.12a.128.128 0 00-.08.124c-.112-.044-.14-.084-.084-.112v-.012zm-.288-.08c.028.192-.04.204-.203.04.108-.208.175-.22.203-.02v-.02zm-3.99.738c0 .192-.028.176-.084-.04.068-.151.096-.14.096.052l-.012-.012zm-6.852 1.15a.192.192 0 00.124-.208c.107.056.163.096.163.124 0 .028.056.068.164.124a.555.555 0 01-.491.247c-.044-.16-.028-.251.052-.275l-.012-.012zm-.451.287h.243v.24h-.247l.004-.24zm-.235-.16c-.056.163-.028.258.083.288.112.029.112.097 0 .203a2.945 2.945 0 01-.287-.163 2.394 2.394 0 00-.287-.164.65.65 0 01.49-.164zm-.902.328c.055 0 .083-.056.083-.164.108 0 .148.08.124.243-.024.164-.1.192-.207.084v-.163zm-.328.123c.164.024.192.096.08.204h-.163a.072.072 0 00-.08-.08c-.056-.104 0-.144.163-.116v-.008zm-.399-.45c.22.163.248.243.084.243-.163 0-.203-.072-.096-.244h.012zm.084.694c0 .191-.056.18-.163-.04.095-.156.151-.144.151.048l.012-.008zm-.986-.739c-.111.086-.14.046-.083-.12h-.587c.116-.116.251-.213.4-.287.163-.083.219 0 .163.288.18.008.203.048.095.127l.012-.008zm27.488-3.99c-.276 0-.4-.108-.331-.327a.076.076 0 00.083-.084c.26.02.344.16.236.43l.012-.02zm.163-.244a.47.47 0 01.164.328c-.124.02-.176-.092-.176-.308l.012-.02zM194.195 27.024c.136-.135.124-.147-.04-.04-.163.108-.096.18.04.04M184.063 58.327a.072.072 0 00-.08.084c.108-.056.136-.084.08-.084M198.669 56.28a.75.75 0 00.08-.204v.04l-.08.164zM191.078 55.454c-.028-.052 0-.08.04-.08 0 .107 0 .135-.04.08M185.088 55.481c.14-.191.152-.231.04-.123-.163.271-.175.315-.04.123M192.347 53.937c0-.136-.028-.148-.083-.04.055.164.083.18.083.04M191.98 52.788c.136-.136.124-.148-.04-.04-.163.108-.095.18.04.04M194.239 52.42c-.112 0-.152 0-.124.04.034.03.079.045.124.04v-.08zM198.01 47.58a.072.072 0 00-.08-.084.072.072 0 00.08.084"/>
    <path d="M197.807 47.412c-.028.056 0 .084.123.084-.056-.108-.095-.135-.123-.084M197.356 64.03c.052.023.08 0 .08-.04-.108 0-.136 0-.08.04M189.85 55.082c.08.028.067.04-.045.04-.051-.052-.04-.068.044-.04M190.013 54.8c-.136.107-.152.107-.044 0 .108-.109.18-.109.044 0M145.873 46.387c-.14.14-.152.124-.044-.04s.18-.096.044.04M107.02 63.578c-.108 0-.163.024-.163.08.111 0 .163-.028.163-.08M133.606 59.269c-.056-.024-.084 0-.084.123.112-.052.136-.096.084-.123M110.795 33.956c-.052-.052-.08-.052-.08 0 .108.056.136.056.08 0M111.573 31.622a.168.168 0 00.044-.124.164.164 0 01.04-.124c.028-.028 0 0-.04.124s-.071.152-.044.124M112.886 28.665c.028.027.044 0 .044-.12-.056.052-.072.096-.044.12M113.01 28.461l-.08.084c.052.052.08.028.08-.084M132.169 64.604c-.136.136-.152.124-.04-.04.112-.164.176-.1.04.04M108.146 59.312c-.136.108-.152.108-.04 0 .111-.107.175-.107.04 0M107.595 55.825c-.052.247-.052.203 0-.124.056-.164.056-.124 0 .124M110.508 36.626c.084.028.096.04.04.04s-.12-.068-.04-.04M113.461 33.014c.084.084.072.096-.04.04-.112-.056-.04-.123.04-.04M119.32 16.645c0-.052.055-.08.163-.08 0 .056-.052.08-.164.08M74.225 58.327a.076.076 0 00-.083.084c.111-.056.14-.084.083-.084M88.847 56.28a.75.75 0 00.08-.204v.04l-.08.164zM81.257 55.454c-.028-.052 0-.08.04-.08 0 .107 0 .135-.04.08M75.267 55.481c.14-.191.152-.231.04-.123-.164.271-.176.315-.04.123M82.53 53.937c0-.136-.028-.148-.084-.04.056.164.084.18.084.04M82.159 52.788c.135-.136.123-.148-.04-.04-.164.108-.096.18.04.04M84.413 52.42c-.107 0-.147 0-.12.04a.16.16 0 00.12.04v-.08zM88.192 47.58a.072.072 0 00-.08-.084.072.072 0 00.08.084M87.985 47.412c-.028.056 0 .084.124.084-.056-.108-.096-.135-.124-.084M87.534 64.03c.052.023.08 0 .08-.04-.108 0-.136 0-.08.04M80.024 55.082c.084.028.072.04-.04.04-.052-.052-.04-.068.04-.04M80.211 54.8c-.14.107-.151.107-.044 0 .108-.109.18-.109.044 0M69.836 52.708c.135-.14.123-.152-.04-.044-.164.108-.096.18.04.044M70.263 52.46c.135-.135.123-.151-.04-.04-.164.112-.096.176.04.04M35.915 48.195c-.055-.028-.083 0-.083.123.107-.056.135-.095.083-.123M19.722 73.136c.135-.136.123-.152-.04-.04-.164.112-.1.176.04.04M21.238 72.601c-.108 0-.136 0-.08.044.056.044.08 0 .08-.044M19.023 72.19h.327-.079zM24.111 71.66c-.056-.029-.084 0-.084.123.112-.056.14-.096.084-.124M36.315 71.7c-.028 0-.04.027-.04.083 0 .056.08 0 .08.04s.027.04.083.04c.056 0 0-.08.04-.08s.044-.028.044-.084c0-.056-.084 0-.084-.04s-.028-.04-.084-.04c-.055 0 0 .08-.04.08M24.686 71.66c.052-.248.052-.26 0-.04-.052.219-.056.287 0 .04M26.246 70.718c-.111 0-.167.024-.167.08.111 0 .167-.029.167-.08M7.375 69.32a.076.076 0 00-.084.085.076.076 0 00.084-.084"/>
    <path d="M7.454 69.197c-.055-.028-.08 0-.08.124.108-.056.136-.096.08-.124M10.819 54.552c.055-.22.055-.204 0 .04-.056.243-.056.235 0-.04M21.813 23.557c-.056 0-.08.028-.08.083.108-.055.136-.083.08-.083M23.21 19.598c-.112 0-.164.028-.164.084.108 0 .163-.028.163-.084M10.819 75.885c0-.055.055-.083.163-.083 0 .056-.056.083-.163.083M11.764 74.201c-.14.14-.151.124-.044-.04.108-.163.18-.095.044.04M12.295 73.67c0-.055.056-.083.164-.083 0-.056-.056-.028-.164.084M29.199 71.863h-.331.247zM6.265 71.412c-.028.247 0 .231.04-.04s0-.203-.04.04M7.95 59.352c-.057.248-.057.232 0-.04.055-.27.051-.207 0 .04M11.517 49.587c-.14.14-.152.124-.04-.04.112-.163.176-.095.04.04M9.977 48.482a.45.45 0 00-.04.203.247.247 0 01-.04.164c-.028.028 0-.04.04-.203.04-.164.067-.22.04-.164M12.092 44.83c-.028.244 0 .232.04-.043.04-.276 0-.204-.04.044M13.24 41.63a.47.47 0 00-.083.124.303.303 0 00-.04.123c0 .028.024 0 .08-.123.056-.124.068-.152.044-.124M16.685 29.814c-.136.14-.152.124-.04-.04.112-.164.175-.096.04.04M19.885 26.37c-.135.136-.151.124-.04-.044.164-.108.176-.092.04.044M21.238 23.006c-.056.243-.056.231 0-.044s.056-.204 0 .044M202.5 26.378a.15.15 0 00.141.023.167.167 0 00.102-.11v.178c.22 0 .22.06 0 .177v-.177a.572.572 0 00-.655.355c.216-.06.34-.03.368.09.028.122.123.148.287.087a.415.415 0 01.224-.233.37.37 0 01.31.013c.248.086.4 0 .452-.312-.22.06-.276.043-.164-.043.1-.063.138-.2.084-.312a.805.805 0 01-.619-.047.831.831 0 00-.694.047.278.278 0 00.164.264zm.798 0c0 .178-.056.178-.164 0 .128-.19.184-.19.184 0h-.02z"/>
    <path d="M252.095 58.79c-.3-.4-.615-.798-.942-1.198-.333-.387-.636-.8-.906-1.233a5.144 5.144 0 01-1.065-.654 1.353 1.353 0 01-.655-1.066.507.507 0 01-.574-.574 1.25 1.25 0 00-.328-.906 8.999 8.999 0 01.767-3.763.231.231 0 00.135-.052V49.2l-.032-.02c.01-.02.02-.04.032-.06.012-.372.086-.74.22-1.089.646-1.672 2.342-2.77 4.106-3.08.583-.294 1.19-.536 1.816-.723a1.568 1.568 0 00-.288-1.23 3.384 3.384 0 00-.901-.698 10.71 10.71 0 00-1.198-.53 2.219 2.219 0 01-.985-.659 2.159 2.159 0 00-1.52.204 9.155 9.155 0 00-1.198.862c-.366.316-.709.659-1.025 1.025a2.123 2.123 0 01-.942.699 253.056 253.056 0 00-1.353 3.99 9.035 9.035 0 00-.4 1.764 225.588 225.588 0 01-6.755 2.913 62.182 62.182 0 01-7.22 2.463 30.66 30.66 0 01-8.164 1.025 4.246 4.246 0 01-1.724-1.229c.024-.24.056-.467.096-.686a.32.32 0 00.151-.216.235.235 0 00-.095-.068l.024-.111a.351.351 0 00.111-.028c.192-.08.26-.204.208-.368a.156.156 0 00-.232.06c.02-.075.04-.155.064-.231h.084c.04-.188.088-.375.14-.563.222-.495.57-.923 1.01-1.24.128.7.569 1.303 1.197 1.64.714.293 1.497.379 2.258.247a9.29 9.29 0 003.592-2.215 31.37 31.37 0 013.192-2.794 6.409 6.409 0 00.659-3.487 3.564 3.564 0 00-1.724-2.83 9.53 9.53 0 00-3.404.575c-1.001.375-1.953.87-2.834 1.476a15.472 15.472 0 00-2.394 1.996c-.71.738-1.425 1.492-2.135 2.258a10.268 10.268 0 00-1.313 3.652l-.024.183c-.37.455-.734.914-1.081 1.373a21.078 21.078 0 00-1.848 2.913c-.275.22-.523.4-.738.575-.237.21-.38.506-.4.822-.402.074-.723.38-.817.778a1.038 1.038 0 01-.739.798.34.34 0 01-.043.368.343.343 0 00-.04.37 13.193 13.193 0 00-2.091 2.052 51.722 51.722 0 01-1.972 2.255 17.028 17.028 0 01-2.215 1.995 7.79 7.79 0 01-2.913 1.313.726.726 0 00-.327-.084.746.746 0 01-.327-.08 7.802 7.802 0 01-.942-2.793 20.671 20.671 0 01-.207-2.91V58.95c.002-.926-.108-1.85-.328-2.75a.914.914 0 00.248-.163l.243-.247c0-.435 0-.926.044-1.477.044-.55.064-1.037.12-1.476-.056-.108-.112-.124-.164-.04-.052.084-.08.04-.08-.124a.91.91 0 00.328-.818 5.016 5.016 0 01-.084-.986 18.313 18.313 0 002.175-2.665 9.905 9.905 0 001.436-3.245 34.627 34.627 0 002.666-5.331c.74-1.863 1.492-3.831 2.259-5.906h.327a.706.706 0 010-.906c.228-.312.366-.68.399-1.066.106 0 .174.028.203.084.03.056.098.028.204-.084.056-.215.044-.367-.04-.45-.084-.084-.096-.232-.04-.452l.248.248c.216-.492.394-1 .53-1.52.149-.51.376-.991.675-1.43a103.83 103.83 0 013.99-.247 61.214 61.214 0 003.568-.247c.54.126 1.088.209 1.64.247.659.056 1.038-.056 1.15-.327.105.106.249.164.398.164.227.015.448.07.655.163.056 0 .068-.056.044-.163-.024-.108 0-.164.12-.164v.327c.187-.05.382-.064.574-.04a.798.798 0 00.495-.123c.108.22.367.299.778.243.411-.056.615-.163.615-.327 1.243.42 2.547.627 3.859.614a9.877 9.877 0 013.855.799 2.917 2.917 0 01-.739.243.774.774 0 00-.574.4 1.78 1.78 0 001.803 0 .53.53 0 00.659.326c.327-.052.435.028.327.248a1.923 1.923 0 00.659-1.888 3.516 3.516 0 00-.966-2.043c-.266.162-.458.19-.575.084a2.845 2.845 0 00-.399-.327c0 .055-.056.08-.163.08v.247c-.164.108-.236.096-.204-.04s.092-.208.204-.208a.367.367 0 01-.084-.399 58.468 58.468 0 00-3.24-.53 91.342 91.342 0 00-3.32-.372c-.057.276.04.356.287.248.247-.108.31-.056.203.163-.112 0-.164 0-.164-.04s-.055-.043-.163-.043c-.112.163-.1.247.04.247s.203.056.203.164c.276-.272.463-.4.575-.4.033.142.088.276.163.4.112.056.168 0 .168-.124s.052-.204.164-.204a.798.798 0 00.49.328c.05.038.067.106.04.163-.027.056 0 .084.124.084l.084-.084a.208.208 0 00-.044-.14c.206.02.414.011.619-.023.654-.108 1.117 0 1.392.327h.084c0-.052.024-.064.08-.04s.028.04-.08.04a.16.16 0 01-.044.124c-.028.028-.04 0-.04-.124-.22 0-.327.084-.327.247a.18.18 0 00.204.04c.083-.024.175 0 .287.124 0-.327.136-.49.399-.49.053.114.02.249-.08.326-.112.112-.056.164.164.164s.243-.136.243-.243c0-.108.164-.168.495-.168 0 .168-.072.235-.207.207-.136-.027-.18.04-.124.204.253.156.53.267.822.327.28.06.555.142.822.248 0-.052.024-.068.08-.04.056.028.028.04-.08.04a.295.295 0 00.287.247c.132 0 .176.08.12.247a1.197 1.197 0 00-1.145-.207c-.41.136-.859.091-1.233-.124-.235 0-.47-.027-.699-.08-.243-.055-.231-.135.044-.247-.399-.108-.606-.084-.658.084 0-.22-.112-.303-.328-.248-.055 0-.083 0-.083.04s-.028.04-.08.04c0 .112-.084.168-.248.168-.163 0-.219-.056-.163-.168-.112 0-.164.072-.164.208 0 .135-.084.151-.247.04a9.434 9.434 0 00-1.38-.332.766.766 0 01.681 0c.192.108.316.056.372-.163a3.99 3.99 0 01-.575-.04.57.57 0 00-.487.195 6.042 6.042 0 00-1.812-.032 4.865 4.865 0 01-2.705-.37c0 .111.024.179.08.207.055.028.027.04-.08.04-.22.002-.44-.011-.659-.04a2.394 2.394 0 00-.738.04c.112-.108.084-.192-.08-.248-.163.328-.495.427-.986.288-.38-.15-.81-.105-1.149.123.108.164.22.248.327.248.108 0 .22.08.332.243a1.002 1.002 0 01-.699.084 3.192 3.192 0 00-.698-.084.223.223 0 01-.04-.327c.08-.108 0-.164-.203-.164-.168.108-.14.22.08.328a7.71 7.71 0 01-1.066.207 2.71 2.71 0 01-.822-.044c-.056.112-.204.164-.451.164-.248 0-.4-.052-.451-.164.164-.163.3-.203.399-.123a.798.798 0 00.49.123c.124-.12.257-.23.4-.327.163-.108.191-.22.084-.327-.168 0-.248.068-.248.203 0 .136-.084.18-.247.124-.056-.22-.315-.271-.778-.164a3.08 3.08 0 01-1.198.08c-.055-.109.012-.177.204-.203.192-.028.152-.068-.124-.124-.22.275-.614.399-1.197.327a11.96 11.96 0 00-1.516-.08c.052-.163.091-.315.123-.45.032-.136.148-.232.368-.288a.263.263 0 00.163.248c.108.055.22 0 .331-.168-.167 0-.167-.08 0-.243a1.68 1.68 0 00-.399.04.34.34 0 01-.33-.124 2.598 2.598 0 011.312-.328 3.99 3.99 0 011.233.164c.108-.271.287-.34.535-.203.23.138.527.086.694-.124 0 .22.028.271.084.163.056-.107.108-.163.164-.163a.487.487 0 00.698.203.483.483 0 01.694.288c.112-.272.084-.4-.08-.367-.163.032-.219-.068-.163-.288.066.116.195.18.327.164a.215.215 0 01.248.243.61.61 0 01.738-.12c.277.146.596.188.902.12v-.243a.132.132 0 00-.164-.04c-.056.028-.084 0-.084-.124a.132.132 0 00.164.04c.056-.028.084 0 .084.124.215-.22.355-.22.399 0a.295.295 0 00.399.243.886.886 0 00.45-.12l.452-.287c.59.434 1.347.57 2.05.367.324-.079.654-.122.987-.127.106-.213.146-.225.12-.036a.076.076 0 010 .032c.324.007.646.065.953.171a.798.798 0 00.575-.163l.327-.328a47.3 47.3 0 00-7.012-.127 62.481 62.481 0 01-6.812.044 312.31 312.31 0 001.52-4.677c.466-1.474.93-2.952 1.394-4.434.462-1.476.9-2.98 1.312-4.51.413-1.529.837-3.17 1.273-4.924-.219.108-.33.08-.33-.084.292-.662.472-1.369.534-2.09a5.69 5.69 0 00-.124-2.092c-.471-.53-1.007-1-1.596-1.396a3.99 3.99 0 00-2.259-.579 24.215 24.215 0 00-3.28 4.76 55.817 55.817 0 00-2.546 5.496 124.19 124.19 0 00-2.175 5.866 73.605 73.605 0 01-2.255 5.786 4.346 4.346 0 01-.399 1.804 7.427 7.427 0 00-.574 2.051c-.112-.215-.315-.203-.615.044-.3.248-.535.204-.698-.123-.112.27-.124.399-.04.327.084-.072.176-.028.287.084-.056.107-.123.163-.207.163-.084 0-.152.056-.204.164.108.163.216.191.327.08.112-.112.22-.08.332.083.163.056.271.028.327-.083a.535.535 0 01.243-.244 9.529 9.529 0 00-.12.695.646.646 0 01-.287.454.327.327 0 00-.399-.043c-.163.083-.195 0-.084-.204a.83.83 0 01-.654.287 1.552 1.552 0 01-.822-.123c0 .107-.056.151-.164.123a1.333 1.333 0 00-.327-.04c.052 0 .092-.043.124-.123s0-.124-.124-.124l-1.476.164a1.221 1.221 0 01-1.15-.4.718.718 0 00.739.084c.275-.107.462-.055.574.164a.463.463 0 01.451-.535c.3-.024.451-.175.451-.45a.579.579 0 00-.203-.124.754.754 0 01-.288-.204.507.507 0 01-.574.4.974.974 0 01-.659-.164c-.108 0-.152.055-.124.163.028.108 0 .164-.12.164v-.327c-.219.107-.37.175-.45.203a1.006 1.006 0 01-.535-.124c-.056.112 0 .192.124.248.123.056.123.108-.044.163a4.222 4.222 0 00-.798-.123c.032 0 .044-.044.028-.124-.027-.162-.095-.162-.204 0 .08.08.132.12.168.12a2.458 2.458 0 00-.826.088 4.302 4.302 0 01-1.804.04c0 .055-.028.067-.084.04-.056-.029-.08 0-.08.123.052 0 .08 0 .08.04s-.028.044-.08.044v-.096a46.61 46.61 0 01-5.211.204 52.38 52.38 0 01-4.965-.288 3.452 3.452 0 00-.287 1.932c.034.623.28 1.216.698 1.68.659.111 1.177.18 1.56.207.468.04.934.108 1.393.204a113.18 113.18 0 007.838-.862c2.38-.354 5.041-.696 7.981-1.026.06.76-.078 1.523-.399 2.215a3.436 3.436 0 00-.331 2.051 72.853 72.853 0 00-1.517 7.14c-.41 2.519-.834 4.98-1.273 7.382l-.127.068-.156.642c.024.292.044.579.056.87a6.217 6.217 0 01-.32 2.578 127.3 127.3 0 00-.215 4.33 42.827 42.827 0 00.124 4.924c.125 1.565.443 3.107.946 4.594.5 1.46 1.318 2.792 2.394 3.898.746.651 1.747.928 2.722.755a11.689 11.689 0 002.913-.822 29.287 29.287 0 004.717-4.841 181.064 181.064 0 014.142-5.168c-.112-.108-.18-.124-.204-.04-.024.084-.044.068-.044-.04a12.77 12.77 0 001.52-2.462c.105-.22.204-.43.312-.634a5.986 5.986 0 001.74 2.438c.953.822 2.283 1.232 3.99 1.229 1.851-.062 3.68-.422 5.416-1.065a102.69 102.69 0 014.757-1.724c.112-.164.331-.463.658-.902a.886.886 0 00.798.084c.264-.1.514-.235.743-.4-.224.056-.332-.027-.332-.247.22-.108.423-.203.615-.287.2-.086.382-.211.535-.367-.22-.108-.328-.192-.328-.248.234-.309.599-.49.986-.49.406-.018.762-.278.902-.66.164.057.243.153.243.288 0 .136.112.18.332.124a.431.431 0 00-.164-.367c-.112-.084-.14-.232-.084-.455.93-.435 1.912-.874 2.953-1.31.328-.14.647-.303.954-.486 0 .343 0 .694.032 1.058.29.133.48.419.49.738.05.326.077.655.08.986a10.619 10.619 0 002.052 2.953l2.462 2.462a3.671 3.671 0 01-1.477 2.258 4.789 4.789 0 00-1.64 1.764c-.822.328-1.692.723-2.625 1.198a3.54 3.54 0 01-2.706.287 1.137 1.137 0 00-.208-.862.603.603 0 01.208-.862c-.275 0-.4-.028-.4-.084 0-.271.069-.45.204-.53a.682.682 0 00.288-.452 1.864 1.864 0 00-1.313 1.597 5.132 5.132 0 00.247 2.394 4.964 4.964 0 001.353 2.051 2.59 2.59 0 002.175.699.99.99 0 00.654-.208c.168-.136.443-.124.822.044a19.474 19.474 0 004.637-2.462 8.348 8.348 0 003.077-4.35 4.745 4.745 0 00-.331-1.848 6.784 6.784 0 00-.77-1.436zm-27.77-9.694c.317-.085.597-.273.797-.534 0-.052-.111-.08-.327-.08a17.882 17.882 0 012.913-3.284 9.226 9.226 0 013.899-1.968.164.164 0 01.04-.123c.028-.028.04-.096.04-.208.108 0 .163.044.163.124s.084.123.248.123a8.38 8.38 0 01-3.364 4.227 22.746 22.746 0 01-5.088 2.254.882.882 0 01.678-.53zm8.942-23.508c0-.164.052-.192.164-.08.111.112.052.148-.164.092v-.012zm2.091.862c-.243-.028-.343-.124-.287-.288a.878.878 0 01.658.084c0 .173-.123.245-.37.216v-.012zm1.285.626c.052-.107.108-.163.164-.163.056 0 .028-.052-.084-.164-.218 0-.351-.028-.4-.084a.16.16 0 01.244-.08c.108.056.164.108.164.164.22-.056.315 0 .287.164-.028.163.044.22.208.163a.467.467 0 00-.164.332c0 .107.132.163.4.163-.328.164-.508.12-.531-.124-.024-.243-.136-.37-.288-.37zm-.798.4c.024-.057.064-.029.12.083.112 0 .112.056 0 .164-.112.108-.112.056 0-.164-.107.008-.147-.016-.12-.072v-.012zm-.168-.04c.028.191 0 .179-.12-.04.06-.156.1-.14.128.051l-.008-.012zm-2.542-.124c-.027.163-.071.163-.123 0 .115-.164.16-.164.131.012l-.008-.012zm-3.73-.288c.106.028.216.041.326.04 0 .112-.055.14-.163.084a.347.347 0 00-.331 0c.008-.096.063-.14.175-.112l-.008-.012zm-.536-.083c.08-.024.176 0 .288.123-.056.164-.196.192-.4.084a.192.192 0 01.12-.195l-.008-.012zm-.123-.204c-.112.164-.22.192-.327.084-.108-.108.008-.128.335-.072l-.008-.012zm-.986.164c.164 0 .26.04.287.123.028.084.124.096.288.04 0 .112-.124.152-.367.124-.244-.028-.312-.112-.2-.275l-.008-.012zm-1.844-.204c.128.026.25.067.368.124a.71.71 0 00.33.08c.109 0 .188-.08.244-.248.216-.052.315 0 .288.168-.028.167.067.191.287.08a1.832 1.832 0 01-.942.163c-.467 0-.754-.052-.862-.163.059-.155.157-.218.295-.192l-.008-.012zm-.247.862c.084.108 0 .136-.287.08.115-.152.215-.18.295-.068l-.008-.012zm-2.135-.658c.225-.074.463-.1.698-.08a.355.355 0 01.248.08c.052.056.191.056.399 0-.236.1-.485.17-.738.207-.18.031-.364.016-.535-.044-.132-.04-.132-.095-.064-.151l-.008-.012zm-2.091.574c.108.112.052.14-.164.084.008-.151.06-.18.172-.072l-.008-.012zm-3.939.248c.108-.164.208-.192.288-.084.08.108-.004.152-.28.096l-.008-.012zm.4-.902c.215-.056.398.056.49.327-.163-.108-.3-.124-.399-.04a.754.754 0 01-.575.04c.121-.166.301-.279.503-.315l-.02-.012zm10.215-1.808c.08.112 0 .14-.207.084.076-.152.143-.18.227-.072l-.02-.012zm-3.448 0c.084.112 0 .14-.203.084.072-.152.144-.18.223-.072l-.02-.012zm-1.269-.163a.559.559 0 01-.494.247c.02-.152.167-.235.514-.235l-.02-.012zm-4.924.207c0 .192-.028.204-.084.04.076-.208.104-.22.104-.028l-.02-.012zm-13.456 1.197c0-.163.051-.191.163-.084.112.108.072.144-.143.088l-.02-.004zm-4.019.08c-.112.164-.22.192-.331.084-.112-.108.02-.132.351-.068l-.02-.016zm2.131 17.311a.627.627 0 00-.08.248c-.112 0-.155-.052-.123-.164a.499.499 0 01.123-.247c.128.004.152.06.1.167l-.02-.004zm.164-2.05a.22.22 0 01.247.247c-.056-.051-.084-.023-.084.083-.107 0-.151-.028-.12-.083a.307.307 0 00-.023-.244l-.02-.004zm.494-2.132c.108-.22.164-.231.164-.04 0 .192-.036.208-.144.044l-.02-.004zm.982-3.775c-.056.164-.136.192-.243.084-.108-.108-.044-.164.04-.164.083 0 .123-.056.123-.167.128.004.156.087.1.251l-.02-.004zm6.385-4.102h-.163v-.248h.163v.248zm1.928-5.62c-.027.137-.095.204-.204.204.052-.163.04-.259-.04-.287-.08-.028-.1-.096-.044-.203a.172.172 0 00.248-.044c.052-.08.135-.092.247-.04a.726.726 0 00-.171.375l-.036-.004zm.798-2.749v-.327c.107-.056.163 0 .163.204 0 .203-.036.235-.151.127l-.012-.004zm.45-.822a.267.267 0 01-.287.248c0-.272.024-.435.08-.491.168.004.252.084.228.247l-.02-.004zm.04-.399c-.163-.056-.235-.096-.203-.123.047-.066.087-.135.12-.208.112 0 .167.044.167.124a.295.295 0 01-.063.203l-.02.004zm1.56 4.96c.053-.023.08-.091.08-.203a3.1 3.1 0 00.535.287c.25.088.52.102.779.04-.112.164-.3.192-.575.084a1.077 1.077 0 00-.818 0c-.044-.112-.044-.183.02-.211l-.02.004zm-.123-.04c.08.112-.016.112-.287 0 .122-.111.225-.112.307-.003l-.02.004zm-.37.248c0-.164.051-.191.163-.084.111.108.056.14-.164.084a.072.072 0 01-.08.08c-.036-.004-.012-.028.1-.096l-.02.016zm-.492-.247l.164.163v.164a1.077 1.077 0 00-.575 0c-.112-.216-.072-.287.124-.204.195.084.307.036.307-.127l-.02.004zm-.49-5.495v-.168h.163v.168h-.164zm.398-1.56c0-.164.056-.192.164-.085.108.108.072.136-.136.08l-.028.004zm.495-1.15a1.764 1.764 0 000-.738c.108 0 .164-.028.164-.084.063.158.105.325.124.495.051.215-.044.323-.26.323l-.028.004zm.539-1.728c-.112-.271-.028-.399.247-.399-.02.32-.103.455-.247.399zm.738-1.68c-.056.192-.22.287-.49.287.044-.137.098-.27.163-.399.063-.122.147-.233.247-.327a.435.435 0 01.06.439h.02zm.46-2.175c.055-.108.123-.108.207 0 .084.108.024.112-.208 0zm.167-.327c.052-.22.08-.232.08-.044s-.016.207-.068.044h-.012zm-4.023-2.953c.108.108.052.136-.163.08.028-.164.064-.192.175-.08h-.012zm-1.313 3.528c.108-.108.108-.276 0-.495.164-.052.248 0 .248.123a.283.283 0 00.163.288.642.642 0 01-.203.247.599.599 0 00-.208.244c-.103-.163-.1-.298.012-.407h-.012zm-.902 3.364c.163.106.163.174 0 .203-.162.03-.158-.038.012-.203h-.012zm-.49-3.364c.163.163.163.243 0 .243-.164 0-.152-.08.012-.243h-.012zm-.4 1.995c0-.024.025-.064.08-.12.056-.056.028-.152.084-.124.056.028.028.068-.084.124 0 .22-.055.3-.163.244.052-.04.084-.084.084-.112v-.012zm-.083 2.298c-.112.083-.112.179 0 .288-.112 0-.152-.068-.124-.204a.567.567 0 01.124-.287c.109.07.109.14 0 .215v-.012zm-.531-.798c.132-.271.255-.546.367-.822a.503.503 0 010 .738 2.083 2.083 0 00-.399.739.623.623 0 01.024-.623l.008-.032zm-.331 1.106a.227.227 0 00.044-.288c.107 0 .147.072.123.208a.646.646 0 01-.123.287c-.12-.024-.12-.092-.044-.175v-.032zm-.04.495c0 .191-.028.18-.08-.044.044-.132.08-.116.08.075v-.031zm.124 5.127c.191-.546.399-1.081.614-1.596.208-.496.387-1.003.535-1.52a4.278 4.278 0 00.124-1.557.746.746 0 00.49-.494c.114-.292.197-.594.248-.902.052-.327.124-.655.203-.982.06-.292.22-.555.451-.742-.111-.272-.191-.327-.243-.164-.052.164-.14.192-.248.084a.894.894 0 00.46-.55 1.23 1.23 0 01.45-.655.906.906 0 01.164-1.233c.362-.332.515-.836.399-1.313a.698.698 0 00-.287.535.4.4 0 01-.451.367.906.906 0 01.203-.367c.084-.084 0-.152-.287-.208.287-.118.521-.336.658-.615.167-.344.195-.74.08-1.105a.523.523 0 00.4-.371c.06-.203.173-.388.327-.535.055-.163 0-.231-.164-.203-.164.028-.192-.068-.08-.288.435-.051.639-.327.615-.822a.89.89 0 01.614-.981 6.672 6.672 0 011.197-3.077 47.905 47.905 0 011.996-2.75 2.19 2.19 0 00-.371-.287.698.698 0 01-.276-.459c.318.133.621.298.906.49a68.28 68.28 0 01-2.833 11.9 397.54 397.54 0 00-3.731 11.973c-.66-.053-1.043-.026-1.15.084a2.04 2.04 0 01-.822.327c-.056-.165 0-.233.168-.204a.275.275 0 00.327-.123.547.547 0 00-.535-.04.698.698 0 01-.534.04c.061-.555.19-1.1.383-1.625V23.6zm-.288 1.968c.052-.164.136-.192.248-.08.111.112.024.168-.248.112v-.032zm-.163-6.605a.798.798 0 00.08.372c-.164 0-.244-.068-.244-.208a.842.842 0 00-.084-.367c.164.032.248.1.248.235v-.032zm-.084 6.525c.108.108.052.136-.164.08 0-.132.052-.16.164-.048v-.032zm0 .4a.73.73 0 01.287.286c.028.084.152.072.371-.04 0-.163-.111-.247-.327-.247.352-.003.7-.072 1.026-.203a1.716 1.716 0 011.105-.04c0-.108.028-.152.084-.124.056.028.024.068-.084.124a.184.184 0 01-.04.123.148.148 0 00-.04.12h-.495c.052.224.124.287.208.208a.331.331 0 01.367-.04c-.213.25-.316.575-.287.902.028.327-.204.518-.699.574.07-.087.127-.184.168-.287 0-.028.08 0 .243.04.052-.108.044-.192-.04-.248-.083-.055-.095-.163-.04-.327.108 0 .164-.028.164-.084l-.084-.08c-.111 0-.163.164-.163.491a7.546 7.546 0 00-2.215.164c.108-.271.192-.503.247-.694.063-.2.145-.394.244-.579v-.04zm.986 1.643c.106-.162.202-.19.287-.084.084.152-.016.18-.287.124v-.04zm-1.848-6.369c.022-.138.064-.272.124-.399.275.056.399.152.33.287a1.141 1.141 0 01-.247.372c-.167-.004-.235-.088-.207-.26zm.124 1.477c.051-.164.095-.164.123 0 .028.163-.016.171-.123.008v-.008zm-.655-.248a.515.515 0 00.244-.243c.22.108.247.231.083.367a.754.754 0 01-.49.208.331.331 0 01.163-.324v-.008zm.164.495c0-.108.052-.124.163-.044.112.08.052.108-.155.052l-.008-.008zm-.084.491c0-.108.056-.124.164-.04.107.084.055.104-.164.048v-.008zm-.451.49c.075-.045.145-.1.208-.163.163.056.187.112.08.164a.263.263 0 00-.164.247c-.164-.1-.204-.183-.124-.24v-.007zm-.45 1.597a.994.994 0 01.398-.124.475.475 0 00-.163.332c-.164 0-.248.028-.248.08-.154-.099-.15-.19.012-.276v-.012zm-.532 1.644a.575.575 0 01.204.12c.108-.164.092-.243-.04-.243s-.18-.084-.124-.248c.164 0 .3-.108.4-.327a.247.247 0 010 .367.343.343 0 000 .45.579.579 0 01-.496.085c-.043-.164-.016-.22.056-.192v-.012zm-.044 3.648c-.275-.052-.355-.148-.243-.284.093-.115.174-.24.243-.37.219 0 .247.067.084.203a.307.307 0 00-.084.463v-.012zm.164-1.393c.112-.164.168-.148.168.04 0 .187-.056.191-.168-.028v-.012zm.331 1.927c0 .192-.056.18-.163-.04.107-.151.163-.14.163.052v-.012zm-.574-2.394c0 .192-.056.18-.164-.04.108-.14.164-.112.164.068v-.028zm-.164.646c-.112 0-.168-.107-.168-.327.099.082.16.2.168.327zm-.184 8.121h.248a3.484 3.484 0 010-1.52c.108-.463.231-.902.371-1.313.14-.411.255-.798.367-1.197.105-.345.134-.709.084-1.066a3.02 3.02 0 00.654-1.313 2.43 2.43 0 00-.08-1.396 3.99 3.99 0 00.902-1.477 2.25 2.25 0 001.066.084c.399-.056.798-.108 1.233-.164a485.37 485.37 0 00-2.506 7.184 25.855 25.855 0 01-3.049 6.209.67.67 0 000-.22.487.487 0 01.367-.534 1.796 1.796 0 01-.123-.862c.029-.305.085-.607.167-.902.08-.3.164-.587.244-.862.084-.206.104-.433.055-.65zm-.08-7.059c0 .275-.111.4-.327.4a.463.463 0 01-.083-.328.635.635 0 01.427-.072h-.016zm-.49.698c.052-.024.08-.095.08-.203.163-.056.231.028.207.243-.024.216-.124.276-.287.168-.04-.112-.04-.18.016-.208h-.016zm-1.094 4.226a.563.563 0 01-.04-.49c.108 0 .164 0 .164.04s.052.04.164.04a1.305 1.305 0 01.083-1.198c.216-.363.246-.808.08-1.197.108-.108.176-.124.204-.04.028.084.096.068.207-.044-.275-.271-.275-.49 0-.654a.2.2 0 01.124.04c.024.028.092.04.204.04-.112.494-.236.961-.368 1.396-.12.394-.271.779-.45 1.15.215 0 .283.135.203.399-.08.263-.204.435-.371.49a.4.4 0 01.167.491c-.038.17-.094.337-.167.495-.22 0-.327-.068-.327-.207a.842.842 0 00-.08-.367c.108-.108.163-.136.163-.084 0 .052.08.084.244.084a1.465 1.465 0 00-.204-.384zm-.49 2.175a8.64 8.64 0 00.203-1.11c.03.086.088.159.164.208.09.058.173.127.247.204a1.868 1.868 0 01-.287.798c-.164.245-.29.515-.371.798a1.824 1.824 0 01.044-.898zm-.124 2.175c.108 0 .175.028.203.08.028.052 0 .112-.123.164h-.164a.34.34 0 00.084-.244zm.08 2.542c.22.056.275.14.163.248a.475.475 0 01-.327.163 1.48 1.48 0 00.164-.41zm-.531-.574a.922.922 0 00.04-.328c.215-.056.315 0 .287.204a.75.75 0 01-.124.371c-.163-.108-.235-.18-.203-.247zm.124 3.527c0 .221-.056.221-.168 0 .112-.215.168-.215.168 0zm-.906 1.15c-.056.275-.164.399-.328.399a.662.662 0 01.124-.4c.086-.149.101-.329.04-.49.164.056.22.22.164.49zm.083-1.066a1.524 1.524 0 01.04-1.065c.16-.343.285-.702.372-1.07.107-.108.163-.08.163.084.106.336.045.702-.163.986a2.498 2.498 0 00-.412 1.065zm5.663 21.996c.108-.22.164-.231.164-.04 0 .192-.056.196-.164.04zM219.64 52.64v.22l-.056-.092a.762.762 0 01.056-.136v.008zm-2.37 4.837a55.51 55.51 0 01-3.939 4.553l-.247-.247c-.056.163-.04.259.04.287.08.028.095.096.043.207-.23.117-.416.303-.534.531a.443.443 0 01-.615.208c-.112.163-.084.231.08.203.164-.028.191 0 .084.124a.726.726 0 00-.535.203c-.137.138-.26.29-.367.451a2.47 2.47 0 01-.331.4.375.375 0 01-.4.083 102.917 102.917 0 014.346-5.211 32.324 32.324 0 003.94-5.456.076.076 0 01.083.084c0 .056.024.08.08.08.056-.106.056-.174 0-.204a.128.128 0 01-.08-.123c.249-.187.484-.393.702-.615a8.22 8.22 0 000 1.134 63.927 63.927 0 01-2.35 3.308zm2.215-2.586v-.164h.207c0 .056.02.112.028.164h-.235zm6.728 2.422a4.749 4.749 0 01-.739-.287c0-.164.188-.208.575-.124.266.036.519.134.738.287-.12.164-.303.204-.574.124zm9.354-.371c-.056-.164.024-.188.243-.08 0 .164-.08.192-.243.08zm1.556-.738h-.243v-.164h.243v.164zm.164-.164a.335.335 0 01.163-.327.271.271 0 01.332.08c-.152.107-.319.19-.495.247zm.906-.942a1.281 1.281 0 00-.495.204.32.32 0 01.287-.367c.192-.027.375-.098.535-.208-.056.22-.164.355-.327.355v.016zm6.624-4.39a49.484 49.484 0 01-4.86 2.355 32.81 32.81 0 01-6.198 1.928c-.929.327-1.83.64-2.706.941a4.61 4.61 0 01-2.793.044 24.65 24.65 0 004.47-.906 49.157 49.157 0 004.225-1.476c1.37-.55 2.725-1.083 4.063-1.596a71.395 71.395 0 013.795-1.345l.004.056zM219.883 55.713v-.04V55.713z"/>
    <path d="M203.154 27.324a.072.072 0 00-.08-.084c0 .056.024.084.08.084M202.95 27.148c-.031.056 0 .08.124.08-.056-.108-.1-.136-.124-.08M232.405 26.585c-.028.056 0 .08.124.08-.056-.107-.096-.135-.124-.08M232.158 26.546c-.028-.028-.04 0-.04.12.052-.053.068-.093.04-.12M210.784 26.546c-.056-.028-.08 0-.08.12.108-.053.136-.093.08-.12M229.74 25.64c0 .028.023.044.08.044V25.6c-.057 0-.08 0-.08.04M228.794 25.476c.135-.136.123-.148-.04-.04-.164.108-.096.18.04.04M203.318 39.59c-.056.244-.056.232 0-.043.055-.216.055-.204 0 .044M225.186 26.953c-.14.14-.155.123-.044-.04.112-.164.176-.096.044.04M233.267 26.833c.108 0 .148.028.124.08-.024.052-.072.028-.124-.08M213.534 24.083a.443.443 0 01-.124.08c-.056.028-.08.056-.08.084 0 .028.052 0 .164-.124l.04-.04M211.69 14.566c-.056.243-.056.231 0-.04.056-.272.052-.208 0 .04"/>
  </g>
</svg>
